<?xml version="1.0" standalone="no"?>
<!DOCTYPE svg PUBLIC "-//W3C//DTD SVG 1.1//EN" "http://www.w3.org/Graphics/SVG/1.1/DTD/svg11.dtd" >
<svg xmlns="http://www.w3.org/2000/svg" xmlns:xlink="http://www.w3.org/1999/xlink" version="1.1">
<metadata>
Created by FontForge 20190801 at Mon May 14 03:45:02 2007
 By Jimmy Wärting
Copyright (c) BPG-InfoTech, 2006. All rights reserved.
</metadata>
<defs>
<font id="BPGAlgeti" horiz-adv-x="484" >
  <font-face 
    font-family="BPG Algeti"
    font-weight="400"
    font-stretch="normal"
    units-per-em="1000"
    panose-1="2 0 5 3 0 0 0 2 0 4"
    ascent="800"
    descent="-200"
    x-height="515"
    cap-height="716"
    bbox="-533 -332 1676 1012"
    underline-thickness="73"
    underline-position="-143"
    unicode-range="U+0020-FFFC"
  />
<missing-glyph horiz-adv-x="750" 
d="M125 0h500v625h-500v-625zM141 16v593h468v-593h-468z" />
    <glyph glyph-name="uniFDF2" unicode="&#xfdf2;" horiz-adv-x="534" arabic-form="isolated" 
d="M401 649l-2 1c0 -1 2 -1 2 -1zM308 713h2l-2 4v-4zM363 520l-2 8c-1 -1 -1 -2 -2 -3s-2 -2 -3 -4c2 0 5 -1 7 -1zM308 713h-1v7c0 3 -6 16 -14 33c-4 9 -11 14 -20 14c-4 0 -8 -2 -11 -10c11 -13 20 -22 23 -27c7 -7 11 -14 14 -20c3 -7 4 -14 5 -22v-1c4 2 7 5 8 5
l-4 -18c8 -4 13 -7 24 -11c-8 20 -17 37 -24 50zM380 649c0 -6 0 -14 -1 -22c-7 -15 -14 -23 -21 -23c-13 0 -22 4 -27 15v10h16c-11 8 -21 15 -36 25c1 -3 1 -5 2 -9c2 -10 5 -20 7 -25c0 0 -1 -2 -1 -3c-3 -8 -5 -13 -9 -20c-7 -14 -14 -25 -21 -25c-12 0 -22 6 -26 16v6
c1 2 1 4 1 7c0 0 1 1 1 4l13 1c-5 4 -8 8 -13 12l-16 16c0 -21 1 -41 4 -49v-6c0 -26 10 -43 28 -43c8 0 16 6 24 14c0 1 1 1 1 2c5 7 10 15 15 28c18 -10 27 -13 37 -13c9 0 17 8 22 22v0c4 12 7 22 11 37c3 7 5 16 6 25l2 -1c-1 1 1 2 9 4c-10 8 -16 12 -29 21v-16
c1 -3 1 -7 1 -10zM188 308l11 -69c-17 -24 -37 -36 -54 -36c-23 0 -41 4 -60 13c14 28 30 46 42 57c11 9 33 20 61 35zM510 229c0 14 -3 51 -11 94c-4 27 -10 70 -21 123c-4 20 -6 32 -7 37s-3 17 -4 28c-5 -9 -10 -16 -13 -20v-2c-6 -13 -9 -25 -9 -34c0 -5 0 -15 2 -27
c0 -2 0 -4 1 -5v-3c1 -3 2 -7 2 -11c0 -2 0 -5 1 -8c3 -18 7 -39 11 -59c5 -27 10 -54 14 -79c-6 -31 -16 -49 -34 -49c-21 0 -34 9 -46 26c-10 12 -16 32 -21 58c-3 15 -6 31 -9 47c-3 12 -5 27 -7 38c-1 3 -1 7 -2 10c-2 12 -3 23 -4 33c-4 10 -5 21 -6 31c-1 1 -1 4 -1 5
c-1 3 -3 5 -3 8c-1 4 -1 9 -1 12c0 2 0 7 -1 15c4 8 11 19 15 24c-12 4 -20 7 -33 11c2 -9 5 -19 6 -21c0 -1 0 -3 1 -6l-1 1c1 -3 2 -2 2 -7l-4 -5v-1s-1 -4 -2 -5c-5 -11 -9 -25 -9 -33c0 -6 0 -15 4 -27c0 -9 2 -20 3 -27c6 -28 10 -58 15 -87c3 -16 6 -35 9 -51
c-11 -24 -23 -38 -30 -43s-18 -7 -30 -7c-34 0 -55 17 -62 57c-6 37 -12 76 -17 116c-3 12 -6 26 -7 39c0 3 0 5 -1 7v6c-3 0 -5 0 -9 1c-1 -1 -1 -2 -2 -3v1c-1 -3 -2 -5 -2 -7c-1 -1 -2 -3 -2 -2c-5 -12 -9 -24 -9 -33c0 -8 5 -30 8 -45c-49 -29 -89 -62 -119 -94
c-26 -31 -44 -64 -44 -89c0 -12 37 -20 97 -20c11 0 26 5 41 19c9 7 26 28 43 53c11 -27 24 -46 36 -54c15 -13 33 -18 50 -18s29 3 43 11v-1c13 9 25 25 40 54c19 -24 35 -42 49 -48c17 -10 42 -16 76 -16v3l1 3c5 12 10 28 12 44c1 9 1 21 1 32z" />
    <glyph glyph-name=".notdef" horiz-adv-x="750" 
d="M125 0h500v625h-500v-625zM141 16v593h468v-593h-468z" />
    <glyph glyph-name=".null" horiz-adv-x="0" 
 />
    <glyph glyph-name="nonmarkingreturn" horiz-adv-x="278" 
 />
    <glyph glyph-name="uni00A0" unicode=" " horiz-adv-x="229" 
 />
    <glyph glyph-name="uni00A0" unicode="&#xa0;" horiz-adv-x="229" 
 />
    <glyph glyph-name="exclam" unicode="!" horiz-adv-x="255" 
d="M91 0h76v88h-76v-88zM110 182h39c3 62 6 124 10 188c3 65 7 130 10 192v154h-81v-154c1 -25 3 -55 5 -83c5 -77 10 -159 13 -229c0 -3 0 -7 1 -11c1 -20 3 -39 3 -57z" />
    <glyph glyph-name="quotedbl" unicode="&#x22;" horiz-adv-x="318" 
d="M209 473h36c2 10 4 23 5 35c2 11 3 25 4 34c2 8 3 15 4 23c2 14 4 29 6 41v110h-74v-110c2 -19 5 -36 8 -53c1 -5 1 -12 2 -17c3 -18 7 -44 9 -63zM74 473h36c2 10 3 21 4 33c2 14 3 27 5 39v-1c1 9 2 18 4 27c2 12 3 24 4 34v111h-73v-111c0 -4 1 -11 2 -16
c0 -1 1 -3 1 -3c5 -38 9 -75 17 -113z" />
    <glyph glyph-name="numbersign" unicode="#" 
d="M154 259l32 197h141c-5 -34 -12 -70 -17 -101c-6 -30 -12 -64 -17 -96h-139zM57 -12h51c11 62 23 139 33 200l1 2c1 4 -1 4 4 10h138l-34 -212h49c8 41 16 92 23 135c2 16 6 32 9 48c2 8 3 20 5 29h125v59h-117c4 21 9 48 12 67c7 43 15 86 22 130h83v59h-74l37 214h-50
c-8 -42 -19 -101 -26 -144v1c-2 -12 -3 -24 -5 -36c-2 -10 -4 -25 -5 -35h-142l35 214h-48c-5 -28 -11 -60 -16 -92c-3 -20 -7 -42 -10 -61c-5 -20 -10 -42 -12 -61h-123v-59h114c-2 -15 -6 -36 -8 -49c-8 -48 -18 -98 -27 -148h-79v-59h70z" />
    <glyph glyph-name="dollar" unicode="$" 
d="M223 683v-268c-76 31 -104 73 -104 137c0 32 9 61 27 85c16 21 41 37 77 46zM257 43v293c46 -20 76 -40 87 -59c14 -21 23 -49 23 -82c0 -42 -12 -75 -30 -102c-19 -26 -45 -42 -80 -50zM223 -105h34v90c50 6 99 32 129 65c28 39 47 93 47 150c0 84 -33 145 -97 177
c-14 10 -32 16 -61 26c-4 1 -13 4 -18 6v272c51 -17 82 -53 94 -118c6 1 16 2 24 4l15 3c6 2 17 4 26 5c-9 52 -27 94 -55 121c-23 24 -58 38 -104 45v42h-34v-42c-53 -8 -90 -25 -114 -49c-36 -36 -53 -86 -53 -147c0 -67 27 -125 71 -157h-1c29 -17 61 -32 97 -42v-303
c-36 8 -64 29 -86 59c-11 21 -23 54 -29 101c-8 -2 -20 -5 -25 -6c-12 -2 -26 -5 -40 -9c4 -43 14 -79 29 -107c14 -30 35 -54 57 -68c19 -12 53 -22 94 -29v-89z" />
    <glyph glyph-name="percent" unicode="%" horiz-adv-x="758" 
d="M182 683c21 0 37 -11 50 -32v0c15 -20 20 -55 20 -105c0 -53 -6 -89 -20 -111v1c-12 -21 -29 -32 -50 -32c-20 0 -36 10 -50 30c-12 21 -20 55 -20 106c0 53 8 90 20 111c14 22 30 32 50 32zM574 298c20 0 36 -10 50 -31c12 -20 20 -56 20 -104c0 -53 -9 -91 -21 -112
c-13 -19 -30 -31 -49 -31c-21 0 -37 11 -53 33c-11 20 -18 52 -18 102c0 53 7 91 19 112c16 22 31 31 52 31zM192 -26h50c81 193 165 387 249 582c24 56 50 115 74 173h-49c-68 -158 -137 -318 -204 -477c-41 -95 -79 -184 -120 -278zM59 548c0 -62 13 -112 35 -143
c23 -30 53 -47 88 -47s64 17 89 47c21 32 36 79 36 138c0 61 -14 108 -35 139v-1c-25 28 -56 48 -91 48c-40 0 -70 -19 -91 -53h1c-19 -34 -32 -79 -32 -128zM448 165c0 -63 14 -113 34 -145v1c26 -30 55 -47 89 -47c36 0 66 17 91 47c22 32 34 79 34 138s-11 108 -34 138
c-24 30 -56 47 -91 47c-40 0 -70 -17 -91 -52c-20 -36 -32 -78 -32 -127z" />
    <glyph glyph-name="ampersand" unicode="&#x26;" horiz-adv-x="577" 
d="M255 451l-35 49c-18 28 -31 59 -31 83c0 23 9 45 21 62c16 17 34 25 55 25s36 -8 52 -25c14 -18 21 -41 21 -66c0 -24 -5 -45 -14 -63c-11 -18 -33 -39 -69 -65zM227 362l140 -213c-17 -30 -38 -56 -62 -73c-23 -15 -48 -24 -70 -24c-37 0 -66 16 -87 50s-31 66 -31 97
c0 27 9 53 22 79c15 22 42 51 88 84zM401 82h12c25 -39 55 -72 86 -98c7 11 18 26 25 36c6 8 11 15 18 24c-34 33 -64 71 -94 115c23 44 41 93 54 151c-6 2 -16 4 -23 6c-3 1 -5 2 -7 3c-9 2 -24 5 -36 8c-9 -34 -16 -62 -32 -104c-8 11 -20 29 -27 40
c-30 47 -59 91 -92 141c80 54 119 114 119 177c0 39 -14 74 -39 104c-24 25 -59 44 -97 44c-41 0 -76 -17 -104 -48c-28 -30 -41 -66 -41 -108c0 -20 5 -43 13 -64c9 -20 28 -53 61 -99c-100 -60 -149 -132 -149 -216c0 -48 17 -95 42 -133v0c35 -47 84 -73 144 -73
c63 0 120 32 167 94z" />
    <glyph glyph-name="quotesingle" unicode="'" horiz-adv-x="184" 
d="M71 473h38c3 17 6 45 8 65c2 11 4 20 5 30c2 13 3 25 5 36v112h-73v-113c3 -21 6 -45 8 -68c3 -22 6 -40 9 -62z" />
    <glyph glyph-name="parenleft" unicode="(" horiz-adv-x="301" 
d="M209 -215h41c-80 162 -119 318 -119 471c0 62 6 128 19 190c10 48 24 100 40 145c11 30 30 78 60 138h-41c-50 -83 -87 -167 -111 -248c-21 -70 -32 -147 -32 -225c0 -88 16 -173 42 -256v0c27 -80 60 -150 101 -215z" />
    <glyph glyph-name="parenright" unicode=")" horiz-adv-x="301" 
d="M70 -215h42c40 65 72 135 99 215c29 82 43 167 43 256c0 75 -12 157 -31 225c-24 80 -63 167 -112 248h-40c26 -55 50 -111 60 -138c15 -43 31 -101 39 -146c12 -60 19 -129 19 -189c0 -152 -40 -310 -119 -471z" />
    <glyph glyph-name="asterisk" unicode="*" horiz-adv-x="347" 
d="M59 651l-16 -56c8 -2 17 -4 25 -7c24 -6 62 -17 82 -21c-26 -29 -48 -60 -73 -98c3 -2 5 -5 8 -7c9 -8 19 -17 31 -27l11 22c13 23 27 51 43 90c22 -46 42 -83 55 -105c2 -3 2 -3 4 -7c2 3 6 6 9 8c5 5 11 9 13 12c1 1 5 5 9 8s6 4 8 6c-25 35 -50 68 -76 98
c44 6 76 16 109 27c-5 16 -12 41 -15 57c-33 -14 -70 -33 -100 -51c0 6 1 22 2 27c4 42 7 73 9 102h-51v-2c1 -21 3 -55 6 -88c0 -3 1 -8 1 -12c0 -5 2 -22 3 -29c-30 20 -60 37 -97 53z" />
    <glyph glyph-name="plus" unicode="+" horiz-adv-x="507" 
d="M224 119h60v199h164v70h-164v198h-60v-198h-164v-70h164v-199z" />
    <glyph glyph-name="comma" unicode="," horiz-adv-x="255" 
d="M90 0h42c-2 -62 -15 -97 -44 -118c1 -2 4 -6 6 -9c5 -8 8 -13 9 -17c43 30 61 71 61 136v96h-74v-88z" />
    <glyph glyph-name="uni00AD" unicode="-" horiz-adv-x="301" 
d="M42 220h217v74h-217v-74z" />
    <glyph glyph-name="uni00AD" unicode="&#xad;" horiz-adv-x="301" 
d="M42 220h217v74h-217v-74z" />
    <glyph glyph-name="period" unicode="." horiz-adv-x="255" 
d="M91 0h76v88h-76v-88z" />
    <glyph glyph-name="slash" unicode="/" horiz-adv-x="255" 
d="M18 -12h48c25 108 50 218 74 322c30 133 64 280 97 419h-47c-9 -41 -20 -83 -29 -124c-18 -76 -36 -154 -53 -225c-18 -80 -43 -184 -62 -268c-10 -43 -19 -82 -28 -124z" />
    <glyph glyph-name="zero" unicode="0" 
d="M113 353c0 123 13 207 40 252c22 37 51 55 85 55c37 0 68 -22 91 -62c23 -42 36 -123 36 -245s-12 -204 -36 -245c-25 -41 -54 -62 -90 -62c-34 0 -65 23 -90 62c-23 42 -36 125 -36 245zM48 353c0 -131 22 -231 58 -292v0c32 -44 80 -73 133 -73c45 0 79 13 106 41
s50 70 63 118c14 54 23 124 23 206c0 69 -5 130 -13 170c-10 39 -22 78 -37 106c-31 59 -78 91 -142 91c-43 0 -76 -14 -105 -42c-28 -27 -49 -72 -64 -119c-14 -53 -22 -125 -22 -206z" />
    <glyph glyph-name="one" unicode="1" 
d="M317 0v720h-40c-15 -33 -39 -68 -66 -97c-29 -33 -65 -62 -106 -85v-72c32 17 51 30 73 44h-1c22 16 48 41 77 70v-580h63z" />
    <glyph glyph-name="two" unicode="2" 
d="M427 70h-301c14 29 30 51 38 62c13 16 47 54 87 94c50 50 89 96 113 127c44 60 63 114 63 170s-17 102 -50 139c-33 38 -77 58 -133 58c-108 0 -176 -70 -191 -197c5 0 12 -2 18 -2c4 0 8 -1 11 -1c7 -2 24 -5 37 -6c2 47 15 82 35 106c21 28 51 40 88 40
c35 0 63 -12 85 -37v0c23 -28 33 -59 33 -98c0 -36 -11 -72 -36 -112h1c-22 -37 -72 -95 -135 -157c-38 -38 -75 -80 -97 -110c-19 -28 -36 -66 -47 -95c-4 -14 -7 -30 -8 -51h389v70z" />
    <glyph glyph-name="three" unicode="3" 
d="M114 188l-64 -9c6 -58 24 -102 57 -136c33 -38 77 -56 128 -56c57 0 104 21 142 66c38 42 55 93 55 155c0 83 -45 147 -125 179c62 40 97 95 97 150c0 31 -8 61 -22 90v-1c-14 29 -37 52 -62 68s-56 26 -89 26c-45 0 -85 -16 -117 -49c-26 -28 -46 -70 -56 -127
c7 -2 19 -4 27 -7h-1c5 -1 14 -3 22 -5c7 -2 8 -2 14 -3c15 88 58 132 114 132c30 0 54 -11 75 -34c18 -23 29 -55 29 -88c0 -44 -14 -79 -41 -100c-25 -19 -52 -29 -89 -30c3 6 4 14 4 19c-6 -8 -13 -16 -21 -26c3 -1 6 -2 10 -3c-2 -9 -2 -13 -2 -16c0 -4 -1 -13 -2 -23
c-1 -6 -1 -6 -2 -11c20 5 37 8 47 8c34 0 64 -15 88 -43c22 -28 35 -64 35 -108s-12 -83 -38 -114c-25 -31 -56 -46 -91 -46c-59 0 -103 42 -122 142z" />
    <glyph glyph-name="four" unicode="4" 
d="M286 243h-205c44 77 90 158 133 234c20 35 42 74 63 111l9 -2v-343zM286 0h63v175h83v68h-83v473h-54c-17 -30 -35 -63 -54 -95c-12 -20 -25 -43 -36 -62c-60 -103 -122 -208 -181 -312v-72h262v-175z" />
    <glyph glyph-name="five" unicode="5" 
d="M116 184l-68 -7c9 -57 27 -102 57 -135c35 -37 79 -54 131 -54c67 0 118 30 156 86c28 45 46 102 46 167s-20 121 -52 164c-36 42 -79 65 -130 65c-34 0 -75 -18 -123 -54c13 76 24 145 35 220h241v70h-291c-1 -6 -2 -13 -3 -19c-5 -34 -10 -70 -15 -102
c-13 -78 -25 -159 -38 -240c14 -2 31 -5 46 -8c5 -1 9 -1 14 -2c26 42 67 71 114 71c38 0 72 -16 95 -47v0c26 -29 38 -72 38 -127c0 -54 -14 -101 -38 -135c-26 -31 -60 -51 -95 -51c-56 0 -103 49 -120 138z" />
    <glyph glyph-name="six" unicode="6" 
d="M119 229c0 49 14 90 37 121c24 29 55 46 90 46c33 0 63 -17 86 -47c21 -31 35 -75 35 -125c0 -54 -12 -98 -35 -130s-52 -48 -84 -48c-22 0 -42 8 -64 23c-19 15 -36 41 -49 69c-9 28 -16 60 -16 91zM358 546l62 6c-7 52 -25 92 -50 120h1c-31 31 -70 48 -114 48
c-63 0 -114 -30 -150 -82c-37 -63 -62 -171 -62 -303c0 -125 18 -213 56 -267c40 -53 87 -80 148 -80c35 0 68 10 95 31c28 20 50 48 65 85c16 40 24 81 24 125c0 66 -18 123 -51 166c-33 40 -74 64 -122 64c-50 0 -101 -37 -153 -113c3 93 10 159 23 196h-1
c14 41 33 72 57 94v-1c20 18 42 26 64 26c30 0 59 -16 78 -40c12 -16 23 -40 30 -75z" />
    <glyph glyph-name="seven" unicode="7" 
d="M53 636h304c-44 -65 -86 -139 -116 -204c-31 -72 -59 -158 -76 -233c-13 -65 -25 -145 -29 -199h67c5 74 15 140 28 196c21 80 53 177 88 254c35 71 77 149 113 198v59h-379v-71z" />
    <glyph glyph-name="eight" unicode="8" 
d="M136 542c0 32 11 61 31 84v0c20 24 44 35 74 35c29 0 53 -12 73 -36c19 -24 30 -54 30 -88c0 -35 -11 -62 -30 -87c-19 -22 -43 -35 -72 -35c-30 0 -57 12 -75 36s-31 54 -31 91zM113 203c0 44 14 83 35 111c25 29 56 44 91 44c36 0 69 -15 92 -45c24 -30 38 -67 38 -113
c0 -44 -12 -81 -36 -111c-24 -26 -58 -43 -91 -43c-24 0 -47 7 -67 20h1c-19 13 -37 34 -48 59c-10 24 -15 52 -15 78zM157 397l-3 -17c-68 -26 -108 -88 -108 -176c0 -61 20 -113 55 -156c34 -40 82 -60 140 -60c57 0 104 20 141 61h-1c36 42 54 93 54 152
c0 80 -46 147 -128 188c68 37 102 89 102 147c0 50 -16 94 -45 130c-31 34 -76 54 -125 54s-93 -20 -123 -53c-29 -35 -44 -78 -44 -128c0 -65 27 -114 85 -142z" />
    <glyph glyph-name="nine" unicode="9" 
d="M363 484c0 -52 -13 -96 -36 -127c-23 -29 -54 -45 -88 -45s-64 17 -90 44c-22 32 -36 75 -36 121c0 53 14 97 39 132c26 34 55 51 90 51c32 0 61 -14 85 -47c23 -31 36 -74 36 -129zM120 161l-59 -6c7 -54 26 -95 49 -122c30 -29 69 -45 114 -45c44 0 81 12 113 41
c31 28 56 72 72 123c17 56 26 130 26 222c0 87 -9 156 -25 202v-1c-17 44 -42 84 -73 107c-33 25 -68 38 -104 38c-52 0 -99 -24 -132 -67c-34 -43 -54 -104 -54 -173c0 -67 19 -126 51 -168c33 -41 76 -63 124 -63c26 0 54 7 80 25c20 15 41 38 70 84v-40
c0 -35 -6 -74 -14 -111c-6 -37 -15 -67 -26 -89v1c-22 -43 -60 -73 -106 -73c-54 0 -89 33 -106 115z" />
    <glyph glyph-name="colon" unicode=":" horiz-adv-x="255" 
d="M91 428h74v87h-74v-87zM91 0h74v88h-74v-88z" />
    <glyph glyph-name="uni037E" unicode=";" horiz-adv-x="255" 
d="M90 428h74v87h-74v-87zM90 0h42c-2 -62 -15 -97 -44 -118c1 -2 4 -6 6 -9c5 -8 8 -13 9 -17c43 30 61 71 61 136v96h-74v-88z" />
    <glyph glyph-name="uni037E" unicode="&#x37e;" horiz-adv-x="255" 
d="M90 428h74v87h-74v-87zM90 0h42c-2 -62 -15 -97 -44 -118c1 -2 4 -6 6 -9c5 -8 8 -13 9 -17c43 30 61 71 61 136v96h-74v-88z" />
    <glyph glyph-name="less" unicode="&#x3c;" horiz-adv-x="507" 
d="M58 317l390 -201v72c-39 20 -86 44 -130 66h1c-4 2 -8 3 -11 5v0c-61 31 -132 67 -188 95l328 163v72c-110 -56 -226 -115 -335 -171c-16 -8 -37 -20 -55 -28v-73z" />
    <glyph glyph-name="equal" unicode="=" horiz-adv-x="507" 
d="M448 430v68h-388v-68h388zM448 208v68h-388v-68h388z" />
    <glyph glyph-name="greater" unicode="&#x3e;" horiz-adv-x="507" 
d="M448 317v74c-22 10 -42 21 -63 32c-44 22 -89 45 -130 66h1c-52 26 -113 57 -170 86v0c-11 6 -16 8 -28 14v-72c49 -25 104 -52 158 -79c54 -26 121 -60 170 -84l-328 -166v-72c39 20 80 41 124 64c35 19 70 36 101 52v0c23 12 46 24 71 37c32 17 63 33 94 48z" />
    <glyph glyph-name="question" unicode="?" 
d="M202 0h74v88h-74v-88zM207 181h61c1 34 3 58 6 71c5 18 10 32 18 46v0c6 13 23 33 47 58c34 34 59 71 72 97c9 25 18 55 18 84c0 51 -18 98 -50 135c-34 36 -81 57 -138 57c-105 0 -173 -71 -190 -197c15 -3 37 -5 55 -8c5 0 5 -1 10 -1c19 102 63 147 126 147
c32 0 62 -13 85 -42v0c24 -28 36 -60 36 -98c0 -19 -5 -39 -12 -56c-8 -17 -26 -42 -53 -68c-5 -6 -9 -11 -14 -16c-18 -21 -32 -37 -36 -47c-12 -14 -20 -35 -28 -52v1c-1 -3 -2 -5 -2 -5l1 1c-8 -23 -12 -56 -12 -89v-3c0 -2 -1 -9 0 -15z" />
    <glyph glyph-name="at" unicode="@" horiz-adv-x="862" 
d="M277 209c0 31 4 62 14 97v0c8 32 21 66 35 90c29 47 64 70 99 70c28 0 52 -12 71 -39c20 -27 29 -64 29 -111c0 -35 -4 -71 -14 -105c-10 -32 -23 -63 -40 -86c-31 -43 -70 -69 -100 -69c-26 0 -46 14 -66 42c-18 27 -28 64 -28 111zM474 76l13 -4c2 -17 4 -30 7 -36
c10 -24 32 -38 67 -38c55 0 112 37 160 99c50 70 83 159 83 251c0 66 -15 129 -39 183c-31 65 -76 116 -127 148c-53 33 -114 50 -180 50c-171 0 -297 -106 -363 -273c-25 -70 -40 -153 -40 -230c0 -70 11 -141 33 -200c18 -47 46 -93 79 -129c73 -75 178 -112 298 -112
c68 0 122 10 169 31c44 19 87 52 119 85c24 27 49 59 66 93h-63c-26 -42 -63 -78 -109 -107c-49 -29 -111 -44 -183 -44c-64 0 -129 15 -185 43c-55 28 -100 73 -129 134v-1c-31 60 -45 132 -45 215c0 78 15 155 45 224c28 66 73 123 124 159c54 36 116 55 179 55
c58 0 109 -14 156 -44c46 -29 83 -72 109 -119c21 -48 35 -103 35 -159c0 -47 -10 -98 -28 -143c-19 -46 -45 -84 -76 -110v0c-24 -21 -46 -31 -61 -31c-17 0 -33 18 -33 40c0 5 5 36 13 80c17 104 38 221 56 326h-63c-3 -20 -9 -52 -12 -73v-19c-44 72 -88 105 -129 105
c-30 0 -62 -12 -94 -38c-34 -26 -61 -68 -82 -117c-20 -49 -33 -104 -33 -155c0 -43 6 -80 20 -114c28 -69 77 -102 124 -102c41 0 85 30 119 77z" />
    <glyph glyph-name="A" unicode="A" horiz-adv-x="577" 
d="M172 285l70 226c10 39 22 91 31 140h11c10 -43 26 -96 42 -152c17 -54 34 -110 51 -163c4 -15 11 -36 16 -51h-221zM14 0h72c6 20 13 40 19 61s13 43 20 64c6 23 14 50 21 75c2 6 5 16 7 22h261l68 -222h81c-8 25 -16 49 -25 74c-56 165 -115 334 -168 496h-1
c-11 35 -24 73 -36 109c-5 13 -9 24 -13 37h-79c-12 -37 -24 -74 -36 -112c-32 -101 -65 -204 -95 -300s-65 -205 -96 -304z" />
    <glyph glyph-name="B" unicode="B" horiz-adv-x="577" 
d="M143 409v237h126c42 0 73 -4 93 -12c39 -14 59 -57 59 -109s-25 -90 -67 -108c-14 -5 -43 -8 -75 -8h-136zM143 70v268h145c38 0 67 -5 89 -13c40 -17 70 -64 70 -121c0 -24 -6 -45 -11 -62c-19 -41 -45 -60 -83 -68c-10 -2 -27 -4 -55 -4h-155zM73 0h225
c77 0 129 16 162 46c15 16 31 37 42 66c11 28 17 58 17 92c0 76 -47 141 -125 175c65 45 95 102 95 158c0 31 -8 63 -22 91c-30 60 -81 88 -173 88h-221v-716z" />
    <glyph glyph-name="C" unicode="C" horiz-adv-x="622" 
d="M574 218l-69 22c-26 -123 -92 -186 -179 -186c-37 0 -73 13 -105 37c-65 48 -96 147 -96 273c0 51 8 97 19 142c12 48 35 85 66 113c35 29 75 42 123 42c78 0 132 -46 164 -151c3 1 5 1 8 2c9 3 18 5 23 7c11 3 23 7 35 10c-18 62 -45 113 -80 145c-41 34 -91 55 -150 55
c-53 0 -101 -16 -145 -43v0c-43 -29 -77 -72 -98 -127c-25 -55 -35 -120 -35 -196c0 -69 10 -134 29 -193v0c43 -109 125 -182 249 -182c59 0 113 22 156 60c37 38 68 98 85 170z" />
    <glyph glyph-name="D" unicode="D" horiz-adv-x="622" 
d="M146 70v576h131c49 0 84 -6 106 -16c30 -14 56 -44 77 -86c22 -43 33 -105 33 -181c0 -112 -25 -192 -63 -239c-12 -17 -34 -30 -54 -40c-24 -9 -57 -14 -97 -14h-133zM77 0h212c71 0 128 17 166 47c55 49 109 152 109 315c0 123 -35 228 -92 293c-22 21 -54 41 -86 51h1
c-25 6 -62 10 -109 10h-201v-716z" />
    <glyph glyph-name="E" unicode="E" horiz-adv-x="577" 
d="M80 0h438v70h-370v266h333v70h-333v240h356v70h-424v-716z" />
    <glyph glyph-name="F" unicode="F" horiz-adv-x="530" 
d="M81 0h69v333h284v71h-284v242h328v70h-397v-716z" />
    <glyph glyph-name="G" unicode="G" horiz-adv-x="667" 
d="M358 287h178v-148c-20 -20 -46 -38 -79 -56c-33 -16 -68 -24 -103 -24c-38 0 -80 12 -114 33c-70 45 -112 138 -112 268c0 53 9 106 23 151c28 79 92 150 202 150c30 0 60 -8 85 -20s44 -31 60 -52c12 -21 25 -50 33 -85c19 6 39 13 54 19c3 0 6 1 8 2
c-10 49 -22 80 -42 108c-19 29 -49 54 -81 71v0c-35 17 -74 25 -117 25c-60 0 -114 -17 -158 -44h1c-41 -28 -80 -80 -104 -135c-21 -57 -36 -129 -36 -196c0 -69 13 -134 36 -190s63 -102 106 -131v0c49 -29 102 -45 161 -45c84 0 167 37 245 111v258h-246v-70z" />
    <glyph glyph-name="H" unicode="H" horiz-adv-x="622" 
d="M79 0h68v345h325v-345h71v716h-71v-301h-325v301h-68v-716z" />
    <glyph glyph-name="I" unicode="I" horiz-adv-x="255" 
d="M94 0h68v716h-68v-716z" />
    <glyph glyph-name="J" unicode="J" horiz-adv-x="438" 
d="M100 203l-62 -10c3 -134 59 -205 157 -205c34 0 65 9 90 25c27 16 46 44 57 73v-1c12 33 18 81 18 140v491h-69v-496c0 -44 -4 -75 -9 -95c-13 -41 -44 -67 -87 -67c-28 0 -53 13 -67 34c-14 20 -24 58 -28 111z" />
    <glyph glyph-name="K" unicode="K" horiz-adv-x="577" 
d="M73 0h70v250c33 40 71 84 105 123l216 -373h91c-11 17 -25 40 -36 59c-25 42 -52 86 -75 122c-50 85 -100 168 -150 247l246 288h-91c-65 -80 -145 -176 -218 -263c-4 -6 -9 -11 -13 -17c-21 -27 -54 -66 -75 -91v371h-70v-716z" />
    <glyph glyph-name="L" unicode="L" 
d="M74 0h367v70h-297v646h-70v-716z" />
    <glyph glyph-name="M" unicode="M" horiz-adv-x="713" 
d="M73 0h67c0 203 1 409 1 612l9 2l172 -614h66c11 41 24 83 35 126c17 61 35 123 52 182c12 41 24 81 35 122c17 58 34 117 52 174l9 -1v-603h67v716h-98c-18 -62 -36 -127 -54 -193c-21 -73 -44 -152 -64 -222c-1 -3 -1 -6 -2 -9v0c-7 -27 -15 -54 -23 -81
c-10 -35 -28 -101 -37 -135c-3 12 -12 45 -17 62v0c-5 18 -10 40 -17 65c-4 13 -8 27 -12 40c-20 71 -39 144 -59 215c-24 85 -47 174 -71 258h-111v-716z" />
    <glyph glyph-name="N" unicode="N" horiz-adv-x="622" 
d="M76 0h65v572l8 2l319 -574h73v716h-66v-572l-8 -2l-318 574h-73v-716z" />
    <glyph glyph-name="O" unicode="O" horiz-adv-x="667" 
d="M124 347c0 109 24 193 63 242c40 46 92 72 148 72c40 0 78 -12 112 -37c65 -51 99 -144 99 -266c0 -94 -22 -172 -59 -224c-40 -52 -92 -80 -153 -80c-59 0 -109 27 -151 79c-39 53 -59 123 -59 214zM51 349c0 -64 11 -123 34 -180c22 -53 59 -100 100 -132
c42 -31 95 -49 149 -49c49 0 103 16 145 44c43 29 81 76 103 131c24 56 36 122 36 194s-12 139 -34 192c-22 55 -55 101 -100 133c-44 31 -93 47 -149 47c-85 0 -151 -34 -204 -101c-52 -66 -80 -161 -80 -279z" />
    <glyph glyph-name="P" unicode="P" horiz-adv-x="577" 
d="M147 369v277h158c37 0 63 -2 77 -8h-1c45 -14 75 -64 75 -129c0 -45 -13 -79 -35 -104c-24 -24 -61 -36 -113 -36h-161zM78 0h69v297h158c82 0 143 25 175 63c28 40 46 96 46 152c0 36 -5 69 -16 95c-22 56 -69 89 -119 102c-22 4 -54 7 -92 7h-221v-716z" />
    <glyph glyph-name="Q" unicode="Q" horiz-adv-x="667" 
d="M356 186l-15 -57c26 -10 55 -27 84 -49c-36 -17 -67 -26 -93 -26c-62 0 -112 26 -153 79c-40 52 -60 127 -60 225c0 100 20 175 60 227c41 50 91 76 153 76c39 0 76 -12 109 -37c68 -51 101 -144 101 -266c0 -102 -25 -182 -76 -243c-30 27 -67 55 -110 71zM525 62v16
c60 70 89 165 89 280c0 71 -13 138 -36 192c-20 54 -57 99 -99 132c-41 27 -97 47 -147 47c-55 0 -106 -18 -149 -45v0c-41 -29 -77 -80 -101 -133c-22 -55 -36 -123 -36 -193s14 -138 36 -191c22 -52 62 -102 101 -132c44 -32 92 -47 147 -47c49 0 98 13 147 47
c42 -39 84 -70 127 -91c2 6 5 14 7 18v0c1 3 2 5 3 7c1 5 5 16 8 24h-1s1 3 2 5c-31 16 -66 39 -98 64z" />
    <glyph glyph-name="R" unicode="R" horiz-adv-x="622" 
d="M146 393v258h197c46 0 80 -13 101 -35c21 -23 33 -55 33 -92c0 -25 -5 -48 -17 -71c-22 -41 -62 -60 -135 -60h-179zM77 0h69v325h98c22 0 37 -2 48 -4c37 -12 72 -52 135 -173c26 -49 52 -98 78 -148h88c-16 29 -37 69 -50 98v-1c-9 16 -19 33 -27 50
c-7 14 -15 26 -21 39c-21 38 -42 68 -66 97h1c-11 9 -32 26 -66 47c74 15 121 38 146 68c27 35 39 78 39 126c0 39 -7 75 -24 105c-16 34 -36 56 -63 67c-28 13 -68 20 -123 20h-262v-716z" />
    <glyph glyph-name="S" unicode="S" horiz-adv-x="577" 
d="M115 227l-66 -7c3 -47 15 -86 32 -120c42 -72 116 -112 220 -112c44 0 82 9 116 28c31 18 58 47 76 78c16 32 27 68 27 105c0 74 -30 132 -99 171c-23 13 -73 29 -134 46c-63 18 -106 36 -123 54s-25 42 -25 72c0 32 12 60 37 83c23 23 58 34 109 34
c88 0 137 -48 150 -140c10 1 23 2 30 3c2 0 4 1 6 1l30 3c-3 38 -12 76 -28 101c-36 67 -106 102 -193 102c-41 0 -77 -8 -111 -24h1c-29 -17 -56 -40 -72 -73c-16 -29 -25 -62 -25 -97c0 -64 28 -117 82 -153c21 -13 60 -28 116 -44c56 -17 91 -27 108 -36v0
c51 -26 73 -63 74 -111c3 -72 -58 -134 -155 -132c-34 0 -65 7 -93 21c-54 28 -79 74 -90 147z" />
    <glyph glyph-name="T" unicode="T" horiz-adv-x="530" 
d="M230 0h71v646h199v70h-468v-70h198v-646z" />
    <glyph glyph-name="U" unicode="U" horiz-adv-x="622" 
d="M472 716v-413c0 -95 -13 -159 -39 -193c-27 -34 -69 -51 -128 -51c-37 0 -66 9 -91 25c-25 17 -41 43 -53 77c-8 28 -15 78 -15 142v413h-67v-415c0 -76 7 -137 22 -180v1c31 -82 102 -134 210 -134c58 0 105 12 139 38c33 27 59 60 71 103c14 43 22 100 22 172v415h-71z
" />
    <glyph glyph-name="V" unicode="V" horiz-adv-x="577" 
d="M248 0h74c31 96 66 203 101 310c40 123 79 245 114 354c4 9 8 22 12 34c3 9 3 11 5 18h-71c-52 -173 -107 -354 -161 -527c-8 -29 -23 -84 -31 -124h-9c-9 38 -21 81 -32 123c-47 159 -110 369 -158 528h-72c13 -40 27 -87 41 -131c14 -46 30 -95 43 -136
c17 -52 34 -105 50 -158c31 -95 63 -196 94 -291z" />
    <glyph glyph-name="W" unicode="W" horiz-adv-x="805" 
d="M178 0h74c20 90 43 187 64 278c10 43 20 86 30 130c12 48 23 96 34 145c3 13 7 32 10 51c2 11 5 23 6 33h9c2 -7 3 -10 8 -22c2 -15 6 -37 13 -62l125 -553h70c21 92 43 191 65 286c7 29 15 65 22 92c19 89 42 190 63 284c4 19 8 35 13 54h-71c-6 -33 -14 -70 -21 -106
c-8 -44 -16 -87 -25 -128c-16 -74 -32 -156 -46 -231c-9 -39 -16 -76 -22 -111c-3 -15 -7 -32 -10 -45h-9c-11 82 -27 171 -46 256c-28 119 -58 245 -87 365h-87c-25 -103 -51 -218 -75 -321c-7 -29 -13 -56 -19 -84c-7 -28 -12 -53 -18 -80c-5 -12 -9 -37 -17 -74
c-2 -12 -3 -21 -6 -35c-1 -2 -2 -6 -2 -8v1c-1 -7 -4 -15 -6 -22l-9 1c-1 8 -3 16 -4 24c-6 38 -13 85 -20 125l-93 473h-70c17 -74 37 -165 54 -239c3 -16 7 -31 10 -47c28 -129 57 -264 85 -397c2 -12 5 -21 8 -33z" />
    <glyph glyph-name="X" unicode="X" horiz-adv-x="577" 
d="M23 0h81c48 83 100 169 150 252v-1c4 7 22 43 33 64c8 -17 22 -43 30 -57c48 -84 102 -175 151 -258h85c-71 118 -157 263 -225 378l207 338h-72c-15 -24 -33 -52 -49 -79c-16 -25 -31 -50 -46 -73l-25 -39c-15 -24 -33 -56 -53 -92c-13 32 -27 55 -40 80
c-4 6 -8 13 -11 19v0c-24 39 -49 80 -71 121c-6 10 -13 21 -20 33c-6 10 -11 20 -17 30h-83c21 -35 50 -83 70 -116c46 -75 91 -154 133 -226z" />
    <glyph glyph-name="Y" unicode="Y" horiz-adv-x="577" 
d="M248 0h68v306l236 410h-80c-6 -10 -12 -21 -17 -32c-17 -29 -33 -61 -48 -90v0c-2 -4 -5 -8 -7 -11c-14 -27 -29 -54 -44 -80c-20 -39 -51 -101 -69 -138c-18 42 -44 92 -66 134c-11 21 -24 42 -34 63c-28 51 -56 104 -83 154h-84c34 -60 69 -124 104 -188
c41 -73 85 -153 124 -222v-306z" />
    <glyph glyph-name="Z" unicode="Z" horiz-adv-x="530" 
d="M31 0h464v70h-392l46 66c47 68 94 139 141 209c30 45 60 91 90 136c36 55 71 107 106 159v76h-422v-70h347c-30 -36 -49 -63 -66 -90v1c-3 -4 -6 -8 -8 -12l-306 -467v-78z" />
    <glyph glyph-name="bracketleft" unicode="[" horiz-adv-x="255" 
d="M72 -204h153v60h-90v801h90v59h-153v-920z" />
    <glyph glyph-name="backslash" unicode="\" horiz-adv-x="255" 
d="M190 -12h47c-22 94 -49 211 -71 310l-9 42c-10 40 -20 82 -30 123c-20 87 -42 180 -61 266h-49c18 -78 37 -162 55 -238c8 -32 15 -64 23 -96c30 -132 64 -275 95 -407z" />
    <glyph glyph-name="bracketright" unicode="]" horiz-adv-x="255" 
d="M185 -204v920h-152v-59h89v-801h-89v-60h152z" />
    <glyph glyph-name="asciicircum" unicode="^" horiz-adv-x="412" 
d="M103 345l103 307l104 -307h64c-22 56 -43 117 -64 176c-15 41 -31 83 -45 123v-1c-11 27 -22 58 -32 86h-54c-12 -37 -26 -72 -38 -108c-6 -17 -13 -35 -18 -50c-27 -72 -56 -149 -84 -226h64z" />
    <glyph glyph-name="underscore" unicode="_" 
d="M0 -204h482v50h-482v-50z" />
    <glyph glyph-name="grave" unicode="`" horiz-adv-x="301" 
d="M49 721h10s-1 1 -1 2v-1c-1 3 -3 4 -4 6zM192 595l-49 126h-84c9 -13 21 -32 27 -41c10 -16 22 -33 34 -51c8 -11 15 -22 24 -34h48z" />
    <glyph glyph-name="a" unicode="a" 
d="M347 270v-45c0 -39 -4 -71 -12 -94c-23 -54 -70 -89 -129 -89c-62 0 -93 39 -93 92c0 18 1 33 11 48c7 12 16 25 32 31h-1c14 7 35 13 67 19c46 8 88 20 125 38zM343 61l11 -4c1 -21 5 -40 12 -57h64c-7 21 -11 39 -13 55c-3 23 -5 77 -5 159v120c0 40 0 65 -4 81
c-3 22 -11 43 -21 59v-1c-21 30 -67 53 -139 53c-37 0 -70 -7 -97 -18c-47 -23 -79 -67 -93 -130c8 -2 20 -3 26 -4c7 -1 20 -3 31 -5c4 -1 2 0 5 -1c8 37 21 61 37 76c19 16 46 23 80 23c37 0 68 -11 88 -31c15 -17 23 -45 23 -84v-7c0 -3 -1 -6 -1 -9v-13
c-35 -15 -79 -24 -136 -34c-28 -4 -51 -7 -66 -13c-55 -16 -101 -68 -101 -144c0 -41 14 -76 37 -104c25 -24 62 -40 106 -40c28 0 56 6 81 16c23 12 51 32 75 57z" />
    <glyph glyph-name="b" unicode="b" 
d="M126 262c0 63 13 117 37 155c24 32 55 51 86 51c34 0 63 -18 87 -51c22 -36 37 -90 37 -160c0 -68 -15 -121 -39 -157c-23 -34 -55 -53 -87 -53c-40 0 -75 28 -99 72c-14 29 -22 80 -22 143zM126 0v80c42 -65 83 -92 128 -92c49 0 94 27 130 72c33 47 53 119 53 206
c0 73 -18 142 -49 188c-30 44 -79 72 -131 72c-41 0 -85 -30 -126 -81v271h-64v-716h59z" />
    <glyph glyph-name="c" unicode="c" horiz-adv-x="438" 
d="M416 168l-62 10c-15 -90 -59 -131 -115 -131c-37 0 -69 16 -91 51v0c-24 33 -36 87 -36 159c0 73 13 126 37 160c23 33 57 51 95 51c48 0 85 -35 102 -106c4 0 9 1 13 2c9 1 16 3 22 4c4 1 9 2 14 3c4 1 10 3 13 3c-21 99 -79 152 -167 152c-36 0 -73 -11 -103 -31v0
c-58 -42 -93 -131 -93 -241c0 -82 20 -151 53 -197c36 -44 87 -69 141 -69c48 0 87 16 119 50c26 29 47 71 58 130z" />
    <glyph glyph-name="d" unicode="d" 
d="M107 256c0 71 12 125 33 160c25 33 56 51 89 51c34 0 64 -17 87 -52v0c25 -37 37 -91 37 -165c0 -67 -12 -119 -35 -153c-23 -33 -53 -50 -85 -50c-33 0 -64 19 -88 52c-24 35 -38 88 -38 157zM353 0h59v716h-65v-276c-38 53 -82 86 -124 86c-36 0 -68 -10 -96 -33
c-29 -22 -50 -55 -64 -96c-13 -41 -21 -89 -21 -141c0 -53 7 -99 24 -140c15 -38 39 -71 65 -94c27 -22 61 -34 94 -34c44 0 87 32 128 93v-81z" />
    <glyph glyph-name="e" unicode="e" 
d="M370 301h-258c6 57 20 97 43 124v0c23 29 52 43 89 43c38 0 71 -18 94 -53c15 -24 26 -62 32 -114zM431 145l-66 10c-25 -77 -64 -108 -117 -108c-37 0 -70 17 -94 48c-23 29 -41 86 -44 147h327v15c0 87 -18 153 -55 200c-36 45 -81 69 -138 69c-60 0 -109 -24 -145 -71
c-37 -47 -55 -115 -55 -203c0 -79 22 -148 54 -194c36 -42 89 -70 150 -70c91 0 155 56 183 157z" />
    <glyph glyph-name="f" unicode="f" horiz-adv-x="255" 
d="M88 0h63v460h86v55h-86v56c0 35 6 58 17 72c12 13 26 19 51 19c10 0 23 0 39 -3c2 12 5 30 6 39c1 5 2 16 2 24c-23 5 -44 7 -61 7c-62 0 -96 -32 -110 -74c-6 -16 -7 -42 -7 -75v-65h-65v-55h65v-460z" />
    <glyph glyph-name="g" unicode="g" 
d="M106 267c0 65 13 114 35 150c24 33 55 50 88 50c36 0 65 -16 90 -51c25 -36 37 -85 37 -152c0 -72 -11 -123 -36 -157c-25 -32 -54 -48 -89 -48s-66 16 -90 50c-22 34 -35 87 -35 158zM117 -72l-61 12c3 -50 19 -90 43 -114c31 -24 77 -41 124 -41c43 0 80 9 108 28
c29 19 51 48 65 80c12 32 19 91 19 171v451h-57v-75c-46 56 -90 86 -133 86c-36 0 -72 -13 -99 -34c-27 -23 -49 -57 -64 -96c-14 -40 -21 -88 -21 -135c0 -73 16 -134 47 -185h-1c35 -50 79 -76 137 -76c41 0 82 26 127 80v-34c0 -49 -3 -84 -6 -102
c-14 -62 -51 -101 -122 -101c-32 0 -60 10 -81 28c-11 12 -20 30 -25 57z" />
    <glyph glyph-name="h" unicode="h" 
d="M68 0h65v282c0 43 3 76 12 101c11 26 24 47 43 60c20 14 42 21 66 21c61 0 97 -41 97 -136v-328h64v328c0 51 -6 89 -16 115c-20 50 -68 83 -130 83c-43 0 -91 -31 -136 -83v273h-65v-716z" />
    <glyph glyph-name="i" unicode="i" horiz-adv-x="208" 
d="M72 629h64v87h-64v-87zM72 0h64v515h-64v-515z" />
    <glyph glyph-name="j" unicode="j" horiz-adv-x="208" 
d="M72 628h64v88h-64v-88zM-8 -145l-12 -62c18 -4 39 -8 51 -8c39 0 68 19 86 47h-1c12 24 20 69 20 132v551h-64v-549c0 -50 -5 -82 -12 -98c-9 -12 -21 -20 -38 -20c-4 0 -16 2 -30 7z" />
    <glyph glyph-name="k" unicode="k" horiz-adv-x="438" 
d="M68 0h66v207c17 22 40 47 58 68l145 -275h78c-57 104 -123 225 -180 326l158 189h-79c-28 -36 -61 -76 -94 -118c-26 -33 -61 -77 -86 -107v426h-66v-716z" />
    <glyph glyph-name="l" unicode="l" horiz-adv-x="208" 
d="M69 0h64v716h-64v-716z" />
    <glyph glyph-name="m" unicode="m" horiz-adv-x="713" 
d="M66 0h64v268c0 48 4 86 13 113h-1c7 26 21 46 39 61c21 14 42 22 62 22c57 0 82 -43 82 -127v-337h64v300c0 57 10 98 31 125s50 39 81 39c18 0 33 -5 46 -15c15 -9 25 -28 32 -47c3 -13 6 -39 6 -76v-326h62v356c0 117 -45 170 -128 170c-51 0 -95 -31 -138 -98
c-24 58 -68 98 -122 98c-47 0 -96 -38 -136 -100v89h-57v-515z" />
    <glyph glyph-name="n" unicode="n" 
d="M68 0h65v282c0 70 12 118 35 144c23 23 54 38 86 38c19 0 38 -6 55 -18c14 -9 26 -27 32 -48c4 -18 8 -47 8 -84v-314h65v318c0 42 -2 72 -5 86c-3 24 -10 45 -21 62v0c-10 17 -27 32 -49 43c-21 12 -44 17 -70 17c-52 0 -98 -32 -144 -102v91h-57v-515z" />
    <glyph glyph-name="o" unicode="o" horiz-adv-x="493" 
d="M113 256c0 72 13 124 36 159c29 36 58 52 98 52c39 0 68 -16 95 -52c25 -35 38 -87 38 -154c0 -73 -13 -127 -38 -161c-25 -35 -57 -53 -95 -53c-40 0 -68 16 -98 52c-23 34 -36 87 -36 157zM46 256c0 -80 24 -153 55 -198c37 -43 88 -70 146 -70c38 0 71 11 103 32v0
c30 20 55 49 69 87c18 39 28 92 28 158c0 82 -20 146 -57 192c-36 45 -84 69 -143 69c-52 0 -100 -20 -134 -58c-43 -45 -67 -115 -67 -212z" />
    <glyph glyph-name="p" unicode="p" 
d="M125 253c0 72 11 125 38 163c25 37 55 55 86 55c33 0 64 -19 89 -54c20 -34 35 -88 35 -155c0 -73 -15 -127 -36 -162c-26 -34 -56 -53 -90 -53c-33 0 -62 18 -86 51c-24 34 -36 86 -36 155zM67 -204h66v271c37 -46 79 -79 118 -79c31 0 66 13 95 33c29 22 53 57 68 96
c15 42 23 91 23 145c0 47 -8 95 -20 134c-30 78 -89 130 -160 130c-48 0 -89 -32 -131 -94v83h-59v-719z" />
    <glyph glyph-name="q" unicode="q" 
d="M108 258c0 72 12 126 36 161c23 33 51 51 85 51c32 0 63 -19 87 -54c25 -37 39 -95 39 -166c0 -66 -13 -119 -36 -152c-24 -33 -52 -51 -84 -51c-35 0 -65 19 -89 53c-25 36 -38 89 -38 158zM347 -204h65v719h-57v-85c-43 64 -88 96 -132 96c-35 0 -67 -11 -95 -31
c-27 -20 -47 -53 -64 -94v1c-14 -41 -21 -88 -21 -139c0 -82 20 -153 54 -202c36 -44 84 -73 130 -73c23 0 44 7 65 18v0c15 10 33 30 55 65v-275z" />
    <glyph glyph-name="r" unicode="r" horiz-adv-x="301" 
d="M68 0h64v270c0 37 5 76 13 106c13 45 42 73 77 73c15 0 31 -4 51 -16v0c4 9 9 22 10 30c3 10 9 26 11 38c-25 18 -47 25 -68 25c-18 0 -33 -6 -47 -16c-12 -11 -28 -34 -44 -72l-9 2v75h-58v-515z" />
    <glyph glyph-name="s" unicode="s" horiz-adv-x="438" 
d="M104 156l-63 -13c20 -102 75 -155 181 -155c33 0 63 7 90 20c25 15 46 34 59 60c14 26 20 51 20 79c0 29 -6 54 -15 73c-11 19 -29 35 -46 46h1c-20 8 -60 23 -111 41c-14 5 -28 9 -37 12v0c-15 5 -24 7 -29 10c-13 8 -25 17 -32 26c-7 11 -9 22 -9 38c0 21 8 39 24 53v0
c15 14 43 22 76 22c57 0 88 -30 100 -86c3 0 8 1 12 2c3 0 6 1 8 1c6 1 15 3 24 4h1c7 1 10 2 17 3c-7 32 -15 55 -25 70c-24 38 -77 64 -143 64c-44 0 -86 -15 -108 -34c-29 -26 -47 -66 -47 -111c0 -24 6 -47 14 -67c10 -20 25 -35 47 -46c21 -13 60 -28 111 -44
c38 -12 66 -22 77 -31c17 -12 25 -31 25 -54c0 -25 -9 -47 -28 -66c-16 -18 -41 -26 -76 -26c-66 0 -106 37 -118 109z" />
    <glyph glyph-name="t" unicode="t" horiz-adv-x="255" 
d="M232 -1l-8 64c-13 -1 -22 -2 -28 -2c-12 0 -23 4 -29 8c-7 5 -11 12 -16 23c-2 8 -3 24 -3 51v317h75v55h-75v180h-1c-12 -9 -29 -23 -36 -27c-6 -3 -12 -7 -17 -11c-4 -3 -7 -6 -10 -8v-134h-53v-55h53v-313c0 -53 4 -87 9 -103c11 -30 37 -51 90 -51c11 0 29 2 49 6z
" />
    <glyph glyph-name="u" unicode="u" 
d="M355 0h57v515h-65v-276c0 -45 -4 -82 -14 -109c-8 -24 -22 -45 -42 -59c-21 -14 -41 -21 -65 -21c-46 0 -81 30 -91 81c-2 17 -4 50 -4 98v286h-65v-321c0 -37 2 -66 5 -83v0c4 -25 12 -45 23 -64c9 -15 28 -31 47 -42c21 -10 46 -17 71 -17c49 0 97 35 143 105v-93z" />
    <glyph glyph-name="v" unicode="v" horiz-adv-x="438" 
d="M188 0h63c13 40 26 83 39 124c40 128 82 262 122 391h-65c-16 -55 -33 -114 -51 -168c-7 -26 -16 -55 -23 -81c-7 -24 -14 -47 -21 -69c-8 -28 -21 -72 -29 -106h-9c-4 14 -8 33 -11 48c-6 22 -11 42 -17 63l-93 313h-67c38 -119 85 -270 122 -387c5 -15 10 -30 15 -47
c9 -27 18 -54 25 -81z" />
    <glyph glyph-name="w" unicode="w" horiz-adv-x="622" 
d="M146 0h71c16 79 35 168 54 248c5 24 11 51 16 75c6 26 12 53 18 78h8l18 -89c16 -82 35 -166 53 -244c2 -12 5 -27 9 -42c3 -10 4 -17 6 -26h70c6 23 11 45 17 68c15 61 31 122 46 179v0c21 86 44 177 67 268h-58c-13 -51 -27 -109 -39 -160l-9 -33
c-9 -35 -18 -74 -26 -110c-9 -33 -18 -69 -26 -103h-9c-11 44 -13 55 -20 92c0 4 -1 7 -2 12c-6 25 -11 51 -17 76c-16 76 -32 150 -47 226h-70c-6 -31 -14 -66 -21 -99c-5 -26 -11 -51 -16 -75c-10 -44 -20 -89 -30 -132c-5 -24 -12 -53 -17 -77c-2 -9 -3 -18 -4 -25
c-1 -3 -4 -8 -9 -16c-3 13 -8 35 -11 46c-6 26 -12 50 -18 77c-22 100 -46 201 -67 301h-67c22 -85 44 -171 66 -258c7 -28 14 -60 22 -88c14 -53 30 -115 42 -169z" />
    <glyph glyph-name="x" unicode="x" horiz-adv-x="438" 
d="M26 0h76c20 39 48 87 72 130v0c8 16 16 32 24 46c6 10 15 28 20 37l31 -50l87 -163h76c-26 43 -58 101 -83 145c-12 20 -25 42 -36 62c-12 22 -26 45 -39 66l146 242h-75c-4 -8 -9 -17 -13 -25c-6 -9 -13 -19 -17 -27c-1 -1 -2 -3 -3 -5l1 1c-12 -22 -25 -44 -39 -67v1
c-3 -6 -8 -14 -13 -22c-8 -14 -17 -29 -25 -45c-2 4 -8 17 -10 21l-23 46c-23 41 -46 81 -68 122h-78c23 -40 54 -93 78 -132c11 -20 22 -39 33 -59c10 -17 22 -39 32 -56z" />
    <glyph glyph-name="y" unicode="y" horiz-adv-x="438" 
d="M58 -138l8 -69c15 -4 29 -8 42 -8c42 0 78 33 102 82c10 24 24 67 42 120h-1c55 178 108 350 163 528h-62c-5 -15 -10 -32 -15 -49c-8 -26 -17 -54 -24 -78s-15 -49 -22 -73c-10 -34 -21 -71 -31 -106c-11 -36 -22 -77 -31 -118h-9c-10 43 -19 80 -32 120l-90 304h-67
c30 -98 61 -200 93 -301c23 -74 48 -152 70 -223l-4 -11c0 -1 -1 -3 -2 -4v-3c-1 -2 -1 -5 -1 -7c-9 -32 -19 -57 -24 -70c-15 -24 -34 -39 -69 -39c-7 0 -19 2 -36 5z" />
    <glyph glyph-name="z" unicode="z" horiz-adv-x="438" 
d="M32 0h374v62h-198c-22 0 -68 -3 -106 -7l55 77c74 103 164 230 236 334v49h-348v-57h174c20 0 68 1 97 3l-284 -399v-62z" />
    <glyph glyph-name="braceleft" unicode="{" horiz-adv-x="301" 
d="M38 290v-66c23 -4 40 -12 49 -22c15 -15 23 -36 30 -59c5 -24 7 -67 7 -127c0 -58 1 -100 5 -127c7 -48 30 -81 62 -97c12 -4 31 -7 58 -7h17v62h-8c-27 0 -44 6 -55 16v-1c-11 10 -16 29 -20 53v118c0 68 -7 117 -21 149c-11 27 -36 51 -75 73c34 23 57 41 68 59h-1
c10 17 21 48 25 78c2 25 4 80 4 164c0 44 6 75 17 92c11 11 29 17 58 17h8v64h-17c-24 0 -41 -1 -51 -4v0c-41 -17 -64 -47 -73 -126c-1 -17 -1 -53 -1 -109c0 -54 -4 -96 -7 -120c-10 -40 -38 -72 -79 -80z" />
    <glyph glyph-name="bar" unicode="|" horiz-adv-x="240" 
d="M94 -215h54v944h-54v-944z" />
    <glyph glyph-name="braceright" unicode="}" horiz-adv-x="301" 
d="M262 224v65c-19 4 -39 13 -49 23c-14 15 -23 34 -28 59c-5 24 -7 67 -7 126c0 58 -2 100 -8 127c-6 48 -29 83 -60 97c-13 6 -33 8 -57 8h-18v-64h7c27 0 45 -4 55 -13c11 -11 16 -28 20 -53v-21c1 -21 1 -57 1 -96c0 -69 7 -121 18 -149c11 -24 38 -51 79 -77
c-56 -33 -85 -77 -92 -141c-4 -22 -5 -75 -5 -157c0 -45 -5 -75 -15 -90c-12 -13 -31 -21 -61 -21h-7v-62h18c23 0 41 3 54 7h-1c39 15 61 45 69 124c1 17 3 55 3 107c0 55 2 96 7 120c7 43 36 74 77 81z" />
    <glyph glyph-name="asciitilde" unicode="~" horiz-adv-x="507" 
d="M208 416l2 9h-2l-1 -9h1zM47 370v-84c23 23 43 40 53 45c16 10 33 15 51 15c22 0 50 -9 81 -27h-1l7 -3c30 -14 53 -26 65 -30c14 -5 30 -7 47 -7c41 0 74 15 110 53v85c-19 -19 -33 -31 -42 -38c-20 -13 -42 -22 -60 -22c-10 0 -21 2 -29 6v-1c-11 3 -26 10 -44 20
c-33 17 -59 29 -78 34v0c-17 6 -34 9 -48 9c-44 0 -82 -21 -112 -55z" />
    <glyph glyph-name="Adieresis" unicode="&#xc4;" horiz-adv-x="577" 
d="M185 285l70 226c10 39 22 91 31 140h11c10 -43 26 -96 42 -152c17 -54 34 -110 51 -163c4 -15 11 -36 16 -51h-221zM27 0h72c6 20 13 40 19 61s13 43 20 64c6 23 14 50 21 75c2 6 5 16 7 22h261l68 -222h81c-8 25 -16 49 -25 74c-56 165 -115 334 -168 496h-1
c-11 35 -24 73 -36 109c-5 13 -9 24 -13 37h-79c-12 -37 -24 -74 -36 -112c-32 -101 -65 -204 -95 -300s-65 -205 -96 -304zM181 774h66v88h-66v-88zM333 774h67v88h-67v-88z" />
    <glyph glyph-name="Aring" unicode="&#xc5;" horiz-adv-x="577" 
d="M185 285l70 226c10 39 22 91 31 140h11c10 -43 26 -96 42 -152c17 -54 34 -110 51 -163c4 -15 11 -36 16 -51h-221zM27 0h72c6 20 13 40 19 61s13 43 20 64c6 23 14 50 21 75c2 6 5 16 7 22h261l68 -222h81c-8 25 -16 49 -25 74c-56 165 -115 334 -168 496h-1
c-11 35 -24 73 -36 109c-5 13 -9 24 -13 37h-79c-12 -37 -24 -74 -36 -112c-32 -101 -65 -204 -95 -300s-65 -205 -96 -304zM244 787c0 17 5 31 14 43c12 13 23 18 35 18c13 0 25 -5 36 -17c8 -12 13 -27 13 -45c0 -16 -5 -31 -13 -44c-11 -12 -22 -17 -36 -17
c-13 0 -23 6 -34 15c-9 14 -15 30 -15 47zM225 788c0 -25 5 -46 19 -62c12 -15 29 -23 49 -23c19 0 35 9 48 24c13 16 20 37 20 59c0 24 -7 43 -20 58c-14 17 -29 26 -48 26s-36 -10 -48 -26c-15 -15 -20 -33 -20 -56z" />
    <glyph glyph-name="Ccedilla" unicode="&#xc7;" horiz-adv-x="622" 
d="M587 218l-69 22c-26 -123 -92 -186 -179 -186c-37 0 -73 13 -105 37c-65 48 -96 147 -96 273c0 51 8 97 19 142c12 48 35 85 66 113c35 29 75 42 123 42c78 0 132 -46 164 -151c3 1 5 1 8 2c9 3 18 5 23 7c11 3 23 7 35 10c-18 62 -45 113 -80 145c-41 34 -91 55 -150 55
c-53 0 -101 -16 -145 -43v0c-43 -29 -77 -72 -98 -127c-25 -55 -35 -120 -35 -196c0 -69 10 -134 29 -193v0c43 -109 125 -182 249 -182c59 0 113 22 156 60c37 38 68 98 85 170zM298 -4l-17 -74c53 -4 60 -20 62 -38c0 -13 -4 -26 -14 -34c-12 -9 -32 -13 -55 -13h-5
c-7 0 -7 -1 -31 1c0 -5 0 -10 -1 -13v-5c0 -4 0 -8 -1 -13c0 -4 -1 -9 -1 -12c20 -4 36 -5 53 -5c39 0 68 8 87 27c18 17 26 37 26 60c0 28 -24 56 -71 66l13 53h-45z" />
    <glyph glyph-name="Eacute" unicode="&#xc9;" horiz-adv-x="577" 
d="M93 0h438v70h-370v266h333v70h-333v240h356v70h-424v-716zM260 772h50c4 6 7 12 11 19c8 11 15 23 21 32c5 7 11 16 17 25c12 18 21 32 32 50h-82c-2 -6 -6 -13 -8 -18c-3 -10 -8 -21 -10 -29c-3 -7 -7 -17 -11 -27c-6 -18 -14 -34 -20 -52z" />
    <glyph glyph-name="Ntilde" unicode="&#xd1;" horiz-adv-x="622" 
d="M89 0h65v572l8 2l319 -574h73v716h-66v-572l-8 -2l-318 574h-73v-716zM201 773h44c2 15 5 27 11 33c8 9 16 15 26 15c7 0 23 -6 43 -19c26 -18 49 -27 66 -27c39 0 68 32 75 98h-44c-6 -34 -17 -43 -34 -43c-11 0 -24 5 -41 15c-26 17 -51 27 -68 27
c-23 0 -41 -11 -56 -30c-13 -14 -19 -38 -22 -69z" />
    <glyph glyph-name="Odieresis" unicode="&#xd6;" horiz-adv-x="667" 
d="M137 347c0 109 24 193 63 242c40 46 92 72 148 72c40 0 78 -12 112 -37c65 -51 99 -144 99 -266c0 -94 -22 -172 -59 -224c-40 -52 -92 -80 -153 -80c-59 0 -109 27 -151 79c-39 53 -59 123 -59 214zM64 349c0 -64 11 -123 34 -180c22 -53 59 -100 100 -132
c42 -31 95 -49 149 -49c49 0 103 16 145 44c43 29 81 76 103 131c24 56 36 122 36 194s-12 139 -34 192c-22 55 -55 101 -100 133c-44 31 -93 47 -149 47c-85 0 -151 -34 -204 -101c-52 -66 -80 -161 -80 -279zM237 774h66v88h-66v-88zM389 774h67v88h-67v-88z" />
    <glyph glyph-name="Udieresis" unicode="&#xdc;" horiz-adv-x="622" 
d="M485 716v-413c0 -95 -13 -159 -39 -193c-27 -34 -69 -51 -128 -51c-37 0 -66 9 -91 25c-25 17 -41 43 -53 77c-8 28 -15 78 -15 142v413h-67v-415c0 -76 7 -137 22 -180v1c31 -82 102 -134 210 -134c58 0 105 12 139 38c33 27 59 60 71 103c14 43 22 100 22 172v415h-71z
M212 774h66v88h-66v-88zM364 774h67v88h-67v-88z" />
    <glyph glyph-name="aacute" unicode="&#xe1;" 
d="M360 270v-45c0 -39 -4 -71 -12 -94c-23 -54 -70 -89 -129 -89c-62 0 -93 39 -93 92c0 18 1 33 11 48c7 12 16 25 32 31h-1c14 7 35 13 67 19c46 8 88 20 125 38zM356 61l11 -4c1 -21 5 -40 12 -57h64c-7 21 -11 39 -13 55c-3 23 -5 77 -5 159v120c0 40 0 65 -4 81
c-3 22 -11 43 -21 59v-1c-21 30 -67 53 -139 53c-37 0 -70 -7 -97 -18c-47 -23 -79 -67 -93 -130c8 -2 20 -3 26 -4c7 -1 20 -3 31 -5c4 -1 2 0 5 -1c8 37 21 61 37 76c19 16 46 23 80 23c37 0 68 -11 88 -31c15 -17 23 -45 23 -84v-7c0 -3 -1 -6 -1 -9v-13
c-35 -15 -79 -24 -136 -34c-28 -4 -51 -7 -66 -13c-55 -16 -101 -68 -101 -144c0 -41 14 -76 37 -104c25 -24 62 -40 106 -40c28 0 56 6 81 16c23 12 51 32 75 57zM220 595h50c4 6 7 12 11 19c8 11 15 23 21 32c5 7 11 16 17 25c12 18 21 32 32 50h-82c-2 -6 -6 -13 -8 -18
c-3 -10 -8 -21 -10 -29c-3 -7 -7 -17 -11 -27c-6 -18 -14 -34 -20 -52z" />
    <glyph glyph-name="agrave" unicode="&#xe0;" 
d="M360 270v-45c0 -39 -4 -71 -12 -94c-23 -54 -70 -89 -129 -89c-62 0 -93 39 -93 92c0 18 1 33 11 48c7 12 16 25 32 31h-1c14 7 35 13 67 19c46 8 88 20 125 38zM356 61l11 -4c1 -21 5 -40 12 -57h64c-7 21 -11 39 -13 55c-3 23 -5 77 -5 159v120c0 40 0 65 -4 81
c-3 22 -11 43 -21 59v-1c-21 30 -67 53 -139 53c-37 0 -70 -7 -97 -18c-47 -23 -79 -67 -93 -130c8 -2 20 -3 26 -4c7 -1 20 -3 31 -5c4 -1 2 0 5 -1c8 37 21 61 37 76c19 16 46 23 80 23c37 0 68 -11 88 -31c15 -17 23 -45 23 -84v-7c0 -3 -1 -6 -1 -9v-13
c-35 -15 -79 -24 -136 -34c-28 -4 -51 -7 -66 -13c-55 -16 -101 -68 -101 -144c0 -41 14 -76 37 -104c25 -24 62 -40 106 -40c28 0 56 6 81 16c23 12 51 32 75 57zM163 721h10s-1 1 -1 2v-1c-1 3 -3 4 -4 6zM306 595l-49 126h-84c9 -13 21 -32 27 -41c10 -16 22 -33 34 -51
c8 -11 15 -22 24 -34h48z" />
    <glyph glyph-name="acircumflex" unicode="&#xe2;" 
d="M360 270v-45c0 -39 -4 -71 -12 -94c-23 -54 -70 -89 -129 -89c-62 0 -93 39 -93 92c0 18 1 33 11 48c7 12 16 25 32 31h-1c14 7 35 13 67 19c46 8 88 20 125 38zM356 61l11 -4c1 -21 5 -40 12 -57h64c-7 21 -11 39 -13 55c-3 23 -5 77 -5 159v120c0 40 0 65 -4 81
c-3 22 -11 43 -21 59v-1c-21 30 -67 53 -139 53c-37 0 -70 -7 -97 -18c-47 -23 -79 -67 -93 -130c8 -2 20 -3 26 -4c7 -1 20 -3 31 -5c4 -1 2 0 5 -1c8 37 21 61 37 76c19 16 46 23 80 23c37 0 68 -11 88 -31c15 -17 23 -45 23 -84v-7c0 -3 -1 -6 -1 -9v-13
c-35 -15 -79 -24 -136 -34c-28 -4 -51 -7 -66 -13c-55 -16 -101 -68 -101 -144c0 -41 14 -76 37 -104c25 -24 62 -40 106 -40c28 0 56 6 81 16c23 12 51 32 75 57zM254 686l47 -91h71c-11 18 -27 43 -37 55c-13 23 -29 46 -46 71h-75c-6 -11 -14 -22 -20 -31
c-7 -12 -14 -23 -20 -32c-7 -12 -19 -29 -29 -46v-1c-6 -8 -6 -8 -11 -16h71c13 23 36 66 49 91z" />
    <glyph glyph-name="adieresis" unicode="&#xe4;" 
d="M360 270v-45c0 -39 -4 -71 -12 -94c-23 -54 -70 -89 -129 -89c-62 0 -93 39 -93 92c0 18 1 33 11 48c7 12 16 25 32 31h-1c14 7 35 13 67 19c46 8 88 20 125 38zM356 61l11 -4c1 -21 5 -40 12 -57h64c-7 21 -11 39 -13 55c-3 23 -5 77 -5 159v120c0 40 0 65 -4 81
c-3 22 -11 43 -21 59v-1c-21 30 -67 53 -139 53c-37 0 -70 -7 -97 -18c-47 -23 -79 -67 -93 -130c8 -2 20 -3 26 -4c7 -1 20 -3 31 -5c4 -1 2 0 5 -1c8 37 21 61 37 76c19 16 46 23 80 23c37 0 68 -11 88 -31c15 -17 23 -45 23 -84v-7c0 -3 -1 -6 -1 -9v-13
c-35 -15 -79 -24 -136 -34c-28 -4 -51 -7 -66 -13c-55 -16 -101 -68 -101 -144c0 -41 14 -76 37 -104c25 -24 62 -40 106 -40c28 0 56 6 81 16c23 12 51 32 75 57zM144 634h66v88h-66v-88zM296 634h67v88h-67v-88z" />
    <glyph glyph-name="atilde" unicode="&#xe3;" 
d="M360 270v-45c0 -39 -4 -71 -12 -94c-23 -54 -70 -89 -129 -89c-62 0 -93 39 -93 92c0 18 1 33 11 48c7 12 16 25 32 31h-1c14 7 35 13 67 19c46 8 88 20 125 38zM356 61l11 -4c1 -21 5 -40 12 -57h64c-7 21 -11 39 -13 55c-3 23 -5 77 -5 159v120c0 40 0 65 -4 81
c-3 22 -11 43 -21 59v-1c-21 30 -67 53 -139 53c-37 0 -70 -7 -97 -18c-47 -23 -79 -67 -93 -130c8 -2 20 -3 26 -4c7 -1 20 -3 31 -5c4 -1 2 0 5 -1c8 37 21 61 37 76c19 16 46 23 80 23c37 0 68 -11 88 -31c15 -17 23 -45 23 -84v-7c0 -3 -1 -6 -1 -9v-13
c-35 -15 -79 -24 -136 -34c-28 -4 -51 -7 -66 -13c-55 -16 -101 -68 -101 -144c0 -41 14 -76 37 -104c25 -24 62 -40 106 -40c28 0 56 6 81 16c23 12 51 32 75 57zM121 608h44c2 15 5 27 11 33c8 9 16 15 26 15c7 0 23 -6 43 -19c26 -18 49 -27 66 -27c39 0 68 32 75 98h-44
c-6 -34 -17 -43 -34 -43c-11 0 -24 5 -41 15c-26 17 -51 27 -68 27c-23 0 -41 -11 -56 -30c-13 -14 -19 -38 -22 -69z" />
    <glyph glyph-name="aring" unicode="&#xe5;" 
d="M360 270v-45c0 -39 -4 -71 -12 -94c-23 -54 -70 -89 -129 -89c-62 0 -93 39 -93 92c0 18 1 33 11 48c7 12 16 25 32 31h-1c14 7 35 13 67 19c46 8 88 20 125 38zM356 61l11 -4c1 -21 5 -40 12 -57h64c-7 21 -11 39 -13 55c-3 23 -5 77 -5 159v120c0 40 0 65 -4 81
c-3 22 -11 43 -21 59v-1c-21 30 -67 53 -139 53c-37 0 -70 -7 -97 -18c-47 -23 -79 -67 -93 -130c8 -2 20 -3 26 -4c7 -1 20 -3 31 -5c4 -1 2 0 5 -1c8 37 21 61 37 76c19 16 46 23 80 23c37 0 68 -11 88 -31c15 -17 23 -45 23 -84v-7c0 -3 -1 -6 -1 -9v-13
c-35 -15 -79 -24 -136 -34c-28 -4 -51 -7 -66 -13c-55 -16 -101 -68 -101 -144c0 -41 14 -76 37 -104c25 -24 62 -40 106 -40c28 0 56 6 81 16c23 12 51 32 75 57zM204 659c0 17 5 31 14 43c12 13 23 18 35 18c13 0 25 -5 36 -17c8 -12 13 -27 13 -45c0 -16 -5 -31 -13 -44
c-11 -12 -22 -17 -36 -17c-13 0 -23 6 -34 15c-9 14 -15 30 -15 47zM185 660c0 -25 5 -46 19 -62c12 -15 29 -23 49 -23c19 0 35 9 48 24c13 16 20 37 20 59c0 24 -7 43 -20 58c-14 17 -29 26 -48 26s-36 -10 -48 -26c-15 -15 -20 -33 -20 -56z" />
    <glyph glyph-name="ccedilla" unicode="&#xe7;" horiz-adv-x="438" 
d="M429 168l-62 10c-15 -90 -59 -131 -115 -131c-37 0 -69 16 -91 51v0c-24 33 -36 87 -36 159c0 73 13 126 37 160c23 33 57 51 95 51c48 0 85 -35 102 -106c4 0 9 1 13 2c9 1 16 3 22 4c4 1 9 2 14 3c4 1 10 3 13 3c-21 99 -79 152 -167 152c-36 0 -73 -11 -103 -31v0
c-58 -42 -93 -131 -93 -241c0 -82 20 -151 53 -197c36 -44 87 -69 141 -69c48 0 87 16 119 50c26 29 47 71 58 130zM214 6l-17 -74c53 -4 60 -20 62 -38c0 -13 -4 -26 -14 -34c-12 -9 -32 -13 -55 -13h-5c-7 0 -7 -1 -31 1c0 -5 0 -10 -1 -13v-5c0 -4 0 -8 -1 -13
c0 -4 -1 -9 -1 -12c20 -4 36 -5 53 -5c39 0 68 8 87 27c18 17 26 37 26 60c0 28 -24 56 -71 66l13 53h-45z" />
    <glyph glyph-name="eacute" unicode="&#xe9;" 
d="M383 301h-258c6 57 20 97 43 124v0c23 29 52 43 89 43c38 0 71 -18 94 -53c15 -24 26 -62 32 -114zM444 145l-66 10c-25 -77 -64 -108 -117 -108c-37 0 -70 17 -94 48c-23 29 -41 86 -44 147h327v15c0 87 -18 153 -55 200c-36 45 -81 69 -138 69c-60 0 -109 -24 -145 -71
c-37 -47 -55 -115 -55 -203c0 -79 22 -148 54 -194c36 -42 89 -70 150 -70c91 0 155 56 183 157zM221 595h50c4 6 7 12 11 19c8 11 15 23 21 32c5 7 11 16 17 25c12 18 21 32 32 50h-82c-2 -6 -6 -13 -8 -18c-3 -10 -8 -21 -10 -29c-3 -7 -7 -17 -11 -27
c-6 -18 -14 -34 -20 -52z" />
    <glyph glyph-name="egrave" unicode="&#xe8;" 
d="M383 301h-258c6 57 20 97 43 124v0c23 29 52 43 89 43c38 0 71 -18 94 -53c15 -24 26 -62 32 -114zM444 145l-66 10c-25 -77 -64 -108 -117 -108c-37 0 -70 17 -94 48c-23 29 -41 86 -44 147h327v15c0 87 -18 153 -55 200c-36 45 -81 69 -138 69c-60 0 -109 -24 -145 -71
c-37 -47 -55 -115 -55 -203c0 -79 22 -148 54 -194c36 -42 89 -70 150 -70c91 0 155 56 183 157zM151 721h10s-1 1 -1 2v-1c-1 3 -3 4 -4 6zM294 595l-49 126h-84c9 -13 21 -32 27 -41c10 -16 22 -33 34 -51c8 -11 15 -22 24 -34h48z" />
    <glyph glyph-name="ecircumflex" unicode="&#xea;" 
d="M383 301h-258c6 57 20 97 43 124v0c23 29 52 43 89 43c38 0 71 -18 94 -53c15 -24 26 -62 32 -114zM444 145l-66 10c-25 -77 -64 -108 -117 -108c-37 0 -70 17 -94 48c-23 29 -41 86 -44 147h327v15c0 87 -18 153 -55 200c-36 45 -81 69 -138 69c-60 0 -109 -24 -145 -71
c-37 -47 -55 -115 -55 -203c0 -79 22 -148 54 -194c36 -42 89 -70 150 -70c91 0 155 56 183 157zM254 686l47 -91h71c-11 18 -27 43 -37 55c-13 23 -29 46 -46 71h-75c-6 -11 -14 -22 -20 -31c-7 -12 -14 -23 -20 -32c-7 -12 -19 -29 -29 -46v-1c-6 -8 -6 -8 -11 -16h71
c13 23 36 66 49 91z" />
    <glyph glyph-name="edieresis" unicode="&#xeb;" 
d="M383 301h-258c6 57 20 97 43 124v0c23 29 52 43 89 43c38 0 71 -18 94 -53c15 -24 26 -62 32 -114zM444 145l-66 10c-25 -77 -64 -108 -117 -108c-37 0 -70 17 -94 48c-23 29 -41 86 -44 147h327v15c0 87 -18 153 -55 200c-36 45 -81 69 -138 69c-60 0 -109 -24 -145 -71
c-37 -47 -55 -115 -55 -203c0 -79 22 -148 54 -194c36 -42 89 -70 150 -70c91 0 155 56 183 157zM144 634h66v88h-66v-88zM296 634h67v88h-67v-88z" />
    <glyph glyph-name="iacute" unicode="&#xed;" horiz-adv-x="255" 
d="M111 0h62v515h-62v-515zM110 595h50c4 6 7 12 11 19c8 11 15 23 21 32c5 7 11 16 17 25c12 18 21 32 32 50h-82c-2 -6 -6 -13 -8 -18c-3 -10 -8 -21 -10 -29c-3 -7 -7 -17 -11 -27c-6 -18 -14 -34 -20 -52z" />
    <glyph glyph-name="igrave" unicode="&#xec;" horiz-adv-x="255" 
d="M111 0h62v515h-62v-515zM40 721h10s-1 1 -1 2v-1c-1 3 -3 4 -4 6zM183 595l-49 126h-84c9 -13 21 -32 27 -41c10 -16 22 -33 34 -51c8 -11 15 -22 24 -34h48z" />
    <glyph glyph-name="icircumflex" unicode="&#xee;" horiz-adv-x="255" 
d="M111 0h62v515h-62v-515zM147 686l47 -91h71c-11 18 -27 43 -37 55c-13 23 -29 46 -46 71h-75c-6 -11 -14 -22 -20 -31c-7 -12 -14 -23 -20 -32c-7 -12 -19 -29 -29 -46v-1c-6 -8 -6 -8 -11 -16h71c13 23 36 66 49 91z" />
    <glyph glyph-name="idieresis" unicode="&#xef;" horiz-adv-x="255" 
d="M111 0h62v515h-62v-515zM33 634h66v88h-66v-88zM185 634h67v88h-67v-88z" />
    <glyph glyph-name="ntilde" unicode="&#xf1;" 
d="M81 0h65v282c0 70 12 118 35 144c23 23 54 38 86 38c19 0 38 -6 55 -18c14 -9 26 -27 32 -48c4 -18 8 -47 8 -84v-314h65v318c0 42 -2 72 -5 86c-3 24 -10 45 -21 62v0c-10 17 -27 32 -49 43c-21 12 -44 17 -70 17c-52 0 -98 -32 -144 -102v91h-57v-515zM134 608h44
c2 15 5 27 11 33c8 9 16 15 26 15c7 0 23 -6 43 -19c26 -18 49 -27 66 -27c39 0 68 32 75 98h-44c-6 -34 -17 -43 -34 -43c-11 0 -24 5 -41 15c-26 17 -51 27 -68 27c-23 0 -41 -11 -56 -30c-13 -14 -19 -38 -22 -69z" />
    <glyph glyph-name="oacute" unicode="&#xf3;" 
d="M126 256c0 72 13 124 36 159c29 36 58 52 98 52c39 0 68 -16 95 -52c25 -35 38 -87 38 -154c0 -73 -13 -127 -38 -161c-25 -35 -57 -53 -95 -53c-40 0 -68 16 -98 52c-23 34 -36 87 -36 157zM59 256c0 -80 24 -153 55 -198c37 -43 88 -70 146 -70c38 0 71 11 103 32v0
c30 20 55 49 69 87c18 39 28 92 28 158c0 82 -20 146 -57 192c-36 45 -84 69 -143 69c-52 0 -100 -20 -134 -58c-43 -45 -67 -115 -67 -212zM221 595h50c4 6 7 12 11 19c8 11 15 23 21 32c5 7 11 16 17 25c12 18 21 32 32 50h-82c-2 -6 -6 -13 -8 -18c-3 -10 -8 -21 -10 -29
c-3 -7 -7 -17 -11 -27c-6 -18 -14 -34 -20 -52z" />
    <glyph glyph-name="ograve" unicode="&#xf2;" 
d="M126 256c0 72 13 124 36 159c29 36 58 52 98 52c39 0 68 -16 95 -52c25 -35 38 -87 38 -154c0 -73 -13 -127 -38 -161c-25 -35 -57 -53 -95 -53c-40 0 -68 16 -98 52c-23 34 -36 87 -36 157zM59 256c0 -80 24 -153 55 -198c37 -43 88 -70 146 -70c38 0 71 11 103 32v0
c30 20 55 49 69 87c18 39 28 92 28 158c0 82 -20 146 -57 192c-36 45 -84 69 -143 69c-52 0 -100 -20 -134 -58c-43 -45 -67 -115 -67 -212zM152 721h10s-1 1 -1 2v-1c-1 3 -3 4 -4 6zM295 595l-49 126h-84c9 -13 21 -32 27 -41c10 -16 22 -33 34 -51c8 -11 15 -22 24 -34
h48z" />
    <glyph glyph-name="ocircumflex" unicode="&#xf4;" 
d="M126 256c0 72 13 124 36 159c29 36 58 52 98 52c39 0 68 -16 95 -52c25 -35 38 -87 38 -154c0 -73 -13 -127 -38 -161c-25 -35 -57 -53 -95 -53c-40 0 -68 16 -98 52c-23 34 -36 87 -36 157zM59 256c0 -80 24 -153 55 -198c37 -43 88 -70 146 -70c38 0 71 11 103 32v0
c30 20 55 49 69 87c18 39 28 92 28 158c0 82 -20 146 -57 192c-36 45 -84 69 -143 69c-52 0 -100 -20 -134 -58c-43 -45 -67 -115 -67 -212zM254 686l47 -91h71c-11 18 -27 43 -37 55c-13 23 -29 46 -46 71h-75c-6 -11 -14 -22 -20 -31c-7 -12 -14 -23 -20 -32
c-7 -12 -19 -29 -29 -46v-1c-6 -8 -6 -8 -11 -16h71c13 23 36 66 49 91z" />
    <glyph glyph-name="odieresis" unicode="&#xf6;" 
d="M126 256c0 72 13 124 36 159c29 36 58 52 98 52c39 0 68 -16 95 -52c25 -35 38 -87 38 -154c0 -73 -13 -127 -38 -161c-25 -35 -57 -53 -95 -53c-40 0 -68 16 -98 52c-23 34 -36 87 -36 157zM59 256c0 -80 24 -153 55 -198c37 -43 88 -70 146 -70c38 0 71 11 103 32v0
c30 20 55 49 69 87c18 39 28 92 28 158c0 82 -20 146 -57 192c-36 45 -84 69 -143 69c-52 0 -100 -20 -134 -58c-43 -45 -67 -115 -67 -212zM144 634h66v88h-66v-88zM296 634h67v88h-67v-88z" />
    <glyph glyph-name="otilde" unicode="&#xf5;" 
d="M126 256c0 72 13 124 36 159c29 36 58 52 98 52c39 0 68 -16 95 -52c25 -35 38 -87 38 -154c0 -73 -13 -127 -38 -161c-25 -35 -57 -53 -95 -53c-40 0 -68 16 -98 52c-23 34 -36 87 -36 157zM59 256c0 -80 24 -153 55 -198c37 -43 88 -70 146 -70c38 0 71 11 103 32v0
c30 20 55 49 69 87c18 39 28 92 28 158c0 82 -20 146 -57 192c-36 45 -84 69 -143 69c-52 0 -100 -20 -134 -58c-43 -45 -67 -115 -67 -212zM121 608h44c2 15 5 27 11 33c8 9 16 15 26 15c7 0 23 -6 43 -19c26 -18 49 -27 66 -27c39 0 68 32 75 98h-44
c-6 -34 -17 -43 -34 -43c-11 0 -24 5 -41 15c-26 17 -51 27 -68 27c-23 0 -41 -11 -56 -30c-13 -14 -19 -38 -22 -69z" />
    <glyph glyph-name="uacute" unicode="&#xfa;" 
d="M368 0h57v515h-65v-276c0 -45 -4 -82 -14 -109c-8 -24 -22 -45 -42 -59c-21 -14 -41 -21 -65 -21c-46 0 -81 30 -91 81c-2 17 -4 50 -4 98v286h-65v-321c0 -37 2 -66 5 -83v0c4 -25 12 -45 23 -64c9 -15 28 -31 47 -42c21 -10 46 -17 71 -17c49 0 97 35 143 105v-93z
M215 595h50c4 6 7 12 11 19c8 11 15 23 21 32c5 7 11 16 17 25c12 18 21 32 32 50h-82c-2 -6 -6 -13 -8 -18c-3 -10 -8 -21 -10 -29c-3 -7 -7 -17 -11 -27c-6 -18 -14 -34 -20 -52z" />
    <glyph glyph-name="ugrave" unicode="&#xf9;" 
d="M368 0h57v515h-65v-276c0 -45 -4 -82 -14 -109c-8 -24 -22 -45 -42 -59c-21 -14 -41 -21 -65 -21c-46 0 -81 30 -91 81c-2 17 -4 50 -4 98v286h-65v-321c0 -37 2 -66 5 -83v0c4 -25 12 -45 23 -64c9 -15 28 -31 47 -42c21 -10 46 -17 71 -17c49 0 97 35 143 105v-93z
M169 721h10s-1 1 -1 2v-1c-1 3 -3 4 -4 6zM312 595l-49 126h-84c9 -13 21 -32 27 -41c10 -16 22 -33 34 -51c8 -11 15 -22 24 -34h48z" />
    <glyph glyph-name="ucircumflex" unicode="&#xfb;" 
d="M368 0h57v515h-65v-276c0 -45 -4 -82 -14 -109c-8 -24 -22 -45 -42 -59c-21 -14 -41 -21 -65 -21c-46 0 -81 30 -91 81c-2 17 -4 50 -4 98v286h-65v-321c0 -37 2 -66 5 -83v0c4 -25 12 -45 23 -64c9 -15 28 -31 47 -42c21 -10 46 -17 71 -17c49 0 97 35 143 105v-93z
M253 686l47 -91h71c-11 18 -27 43 -37 55c-13 23 -29 46 -46 71h-75c-6 -11 -14 -22 -20 -31c-7 -12 -14 -23 -20 -32c-7 -12 -19 -29 -29 -46v-1c-6 -8 -6 -8 -11 -16h71c13 23 36 66 49 91z" />
    <glyph glyph-name="udieresis" unicode="&#xfc;" 
d="M368 0h57v515h-65v-276c0 -45 -4 -82 -14 -109c-8 -24 -22 -45 -42 -59c-21 -14 -41 -21 -65 -21c-46 0 -81 30 -91 81c-2 17 -4 50 -4 98v286h-65v-321c0 -37 2 -66 5 -83v0c4 -25 12 -45 23 -64c9 -15 28 -31 47 -42c21 -10 46 -17 71 -17c49 0 97 35 143 105v-93z
M143 634h66v88h-66v-88zM295 634h67v88h-67v-88z" />
    <glyph glyph-name="dagger" unicode="&#x2020;" 
d="M208 -172h62v604h167v64h-167v203h-62v-203h-165v-64h165v-604z" />
    <glyph glyph-name="degree" unicode="&#xb0;" horiz-adv-x="356" 
d="M102 599c0 25 6 46 20 64c16 18 35 28 54 28c21 0 36 -11 53 -28c14 -17 21 -38 21 -64c0 -28 -7 -49 -21 -66c-15 -18 -32 -27 -53 -27c-20 0 -38 10 -53 27c-14 17 -21 39 -21 66zM67 599c0 -37 12 -68 32 -94v0c22 -25 47 -38 76 -38c31 0 58 14 78 38
c21 27 33 57 33 94c0 34 -13 67 -32 91c-21 24 -48 39 -79 39c-29 0 -55 -14 -76 -39c-19 -24 -32 -57 -32 -91z" />
    <glyph glyph-name="cent" unicode="&#xa2;" 
d="M419 369l5 6c-1 0 -3 -1 -4 -1h-2c0 -2 0 -4 1 -5zM278 469l-96 -401c-37 45 -58 113 -58 190c0 46 3 83 12 115c22 67 68 97 113 97c5 0 13 0 29 -1zM215 51l96 399c23 -26 39 -56 46 -89c5 1 12 3 18 4s13 3 19 4c-1 0 16 3 24 5c-13 62 -42 106 -92 137l47 191
c-5 1 -11 4 -13 5c-6 1 -17 4 -23 7c-4 -20 -10 -41 -16 -64c-9 -41 -20 -84 -29 -120v-7c-21 2 -36 3 -46 3c-31 0 -63 -9 -98 -30h1c-61 -41 -91 -126 -91 -242c0 -60 9 -113 29 -155c18 -39 46 -71 80 -93l-48 -196c24 -8 31 -10 30 -13l7 -1c3 16 7 32 11 49
c11 48 26 107 36 150c19 -7 35 -9 46 -9c44 0 84 16 118 52c27 29 49 75 60 131c-4 0 -9 2 -12 2c-6 1 -12 2 -17 3c-9 2 -23 3 -34 4c-7 -41 -20 -74 -40 -97c-22 -24 -48 -37 -76 -37c-5 0 -17 2 -33 7z" />
    <glyph glyph-name="sterling" unicode="&#xa3;" 
d="M295 389h-128c-17 63 -26 113 -26 152c0 35 12 67 34 91h-1c20 26 49 38 80 38c29 0 55 -13 77 -36c16 -20 31 -52 37 -91c10 2 22 4 32 5c4 1 8 1 11 2c5 1 14 3 21 4c-11 59 -27 98 -57 126c-31 32 -70 49 -119 49c-47 0 -89 -18 -121 -46v1c-39 -38 -61 -91 -61 -157
c0 -14 1 -33 3 -48c3 -13 7 -32 12 -57c2 -8 4 -24 6 -33h-63v-59h77c8 -29 10 -52 10 -69c0 -50 -10 -92 -28 -125c-17 -29 -38 -55 -65 -75c4 -10 7 -20 10 -30v0c3 -9 5 -19 9 -28l5 -14c41 28 87 44 122 44c11 0 25 -2 35 -4c1 0 1 -1 2 -1c7 -1 28 -7 57 -20v0
c24 -9 44 -15 53 -17c11 -2 22 -3 35 -3s26 2 40 5h-1c14 4 30 11 53 22c-3 9 -6 21 -7 26c-2 6 -5 17 -8 27h1c-3 7 -5 9 -6 15c-33 -17 -57 -25 -76 -25c-17 0 -54 8 -96 20c-28 8 -54 13 -76 13c-14 0 -40 -6 -79 -18c62 87 87 156 87 205c0 11 -1 28 -11 52h120v59z" />
    <glyph glyph-name="section" unicode="&#xa7;" 
d="M119 266h9l-3 -8c-2 2 -4 5 -6 8zM310 107l-6 2c-29 25 -61 49 -94 72c-43 30 -76 61 -93 85h2c-11 19 -16 38 -16 58c0 37 19 70 68 105c25 -23 56 -47 86 -71c45 -34 79 -64 94 -85c14 -22 23 -44 23 -66c0 -35 -22 -72 -64 -100zM137 -38l-64 -11
c17 -102 78 -166 174 -166c30 0 56 7 82 21c25 12 43 31 56 57v-1c12 25 21 51 21 78c0 48 -24 95 -74 143c39 20 62 38 73 50c18 25 28 55 28 91c0 45 -21 88 -56 126c-15 14 -45 40 -86 69c-65 50 -111 88 -128 111c-8 16 -16 34 -16 53c0 23 11 44 27 62
c15 16 38 25 63 25c50 0 79 -26 95 -108c4 0 9 1 14 2c2 0 6 0 7 1c14 2 30 4 43 5c-14 104 -73 159 -166 159c-43 0 -79 -16 -106 -45v0c-25 -30 -38 -65 -38 -104c0 -40 15 -77 60 -129c-38 -16 -62 -34 -76 -56c-16 -23 -25 -52 -25 -82c0 -23 7 -45 16 -67
c11 -23 23 -42 38 -60v0c16 -18 44 -40 85 -70c73 -54 121 -98 140 -124c11 -16 17 -34 17 -53c0 -25 -9 -47 -25 -67c-19 -17 -42 -27 -69 -27c-31 0 -56 10 -71 28c-17 18 -30 48 -39 89z" />
    <glyph glyph-name="bullet" unicode="&#x2022;" horiz-adv-x="314" 
d="M60 351c0 -34 9 -62 27 -85v1c21 -24 45 -35 73 -35c26 0 50 13 69 35c16 22 29 52 29 84c0 31 -11 59 -29 83v0c-20 22 -42 35 -69 35c-28 0 -53 -13 -73 -35v0c-18 -23 -27 -51 -27 -83z" />
    <glyph glyph-name="paragraph" unicode="&#xb6;" horiz-adv-x="469" 
d="M179 -204h60v850h100v-850h59v850h61v70h-256c-63 0 -109 -19 -143 -56l1 1c-30 -36 -47 -86 -47 -147c0 -56 14 -101 43 -137c27 -33 68 -54 122 -59v-522z" />
    <glyph glyph-name="germandbls" unicode="&#xdf;" horiz-adv-x="530" 
d="M75 0h64v487c0 75 9 124 29 148s46 35 76 35c26 0 47 -8 62 -24c18 -19 25 -39 25 -62c0 -13 -1 -25 -7 -42v0c-4 -15 -16 -44 -28 -66c-12 -24 -22 -51 -25 -63v0c-3 -14 -6 -25 -6 -37c0 -18 6 -36 15 -54v0c11 -16 43 -48 83 -83h-1c24 -20 42 -35 49 -46v1
c9 -15 14 -32 14 -53c0 -26 -8 -47 -24 -67c-17 -19 -35 -28 -57 -28c-30 0 -55 19 -86 80c-4 -1 -8 -4 -12 -6c-16 -9 -31 -16 -43 -24c15 -33 33 -57 54 -76c24 -21 55 -32 89 -32c42 0 75 15 103 47s41 69 41 112c0 33 -9 63 -24 85c-14 18 -41 44 -74 71
c-27 22 -45 41 -50 51v0c-8 12 -12 24 -12 37c0 9 2 15 3 22c0 2 3 8 3 10c2 4 3 6 5 12c5 11 11 27 19 43c24 53 33 84 33 115c0 34 -13 66 -38 94c-26 26 -65 42 -108 42c-35 0 -68 -10 -96 -28h1c-26 -17 -48 -43 -59 -74s-18 -79 -18 -136v-491z" />
    <glyph glyph-name="registered" unicode="&#xae;" horiz-adv-x="634" 
d="M230 372v137h67c26 0 46 -3 57 -8c21 -10 33 -33 33 -60c0 -21 -6 -38 -20 -50v0c-12 -13 -34 -19 -66 -19h-71zM187 160h43v172h38c19 0 34 -5 46 -16c15 -13 36 -48 59 -97l27 -59h52c-3 6 -6 12 -10 19c-8 16 -18 35 -24 47v0c-20 35 -35 63 -48 80v-1
c-6 7 -16 14 -28 21v14c31 5 54 17 69 35c14 20 24 44 24 72c0 19 -6 38 -17 55c-7 18 -20 29 -36 34c-18 9 -48 13 -86 13h-109v-389zM319 681c41 0 87 -15 128 -41c41 -27 77 -72 99 -119c21 -47 36 -109 36 -162c0 -54 -12 -110 -34 -160c-24 -49 -57 -92 -99 -120
c-41 -26 -85 -41 -130 -41c-48 0 -91 15 -132 41c-42 29 -74 68 -100 120c-22 51 -34 105 -34 160c0 54 13 114 36 162c24 48 60 93 98 119c41 26 89 41 132 41zM319 729c-51 0 -104 -17 -152 -48v0c-48 -32 -87 -77 -113 -137c-27 -59 -41 -122 -41 -185s12 -123 41 -183
c26 -58 64 -105 112 -136h-1c49 -33 98 -49 154 -49c51 0 102 16 150 50c49 32 88 77 114 135c27 60 40 120 40 183s-14 125 -40 185c-27 60 -66 105 -114 137h1c-50 31 -101 48 -151 48z" />
    <glyph glyph-name="copyright" unicode="&#xa9;" horiz-adv-x="634" 
d="M461 275l-39 15c-8 -29 -24 -53 -39 -68c-19 -18 -43 -28 -67 -28c-32 0 -60 14 -79 42c-20 28 -30 68 -30 121c0 54 10 95 32 124c21 28 49 42 81 42c42 0 76 -26 96 -75c6 1 13 3 15 4h-1c7 2 14 5 26 7c-24 62 -72 104 -134 104c-95 2 -162 -77 -160 -205
c0 -66 13 -115 43 -151c28 -37 66 -56 114 -56c36 0 69 14 93 36c21 20 39 52 49 88zM319 681c41 0 87 -15 128 -41c41 -27 77 -72 99 -119c21 -47 36 -109 36 -162c0 -54 -12 -110 -34 -160c-24 -49 -57 -92 -99 -120c-41 -26 -85 -41 -130 -41c-48 0 -91 15 -132 41
c-42 29 -74 68 -100 120c-22 51 -34 105 -34 160c0 54 13 114 36 162c24 48 60 93 98 119c41 26 89 41 132 41zM319 729c-51 0 -104 -17 -152 -48v0c-48 -32 -87 -77 -113 -137c-27 -59 -41 -122 -41 -185s12 -123 41 -183c26 -58 64 -105 112 -136h-1
c49 -33 98 -49 154 -49c51 0 102 16 150 50c49 32 88 77 114 135c27 60 40 120 40 183s-14 125 -40 185c-27 60 -66 105 -114 137h1c-50 31 -101 48 -151 48z" />
    <glyph glyph-name="trademark" unicode="&#x2122;" horiz-adv-x="851" 
d="M210 325h46v346h111v45h-265v-45h108v-346zM414 325h41v339h11l88 -339h42c18 64 37 140 53 206c5 23 12 49 18 72c4 18 8 37 14 54l9 -1v-331h41v391h-69c-1 -5 -3 -10 -5 -16c-2 -7 -4 -14 -5 -18c-10 -40 -22 -86 -33 -130c-14 -54 -28 -110 -39 -159h-9l-84 323h-73
v-391z" />
    <glyph glyph-name="acute" unicode="&#xb4;" horiz-adv-x="301" 
d="M110 595h50c4 6 7 12 11 19c8 11 15 23 21 32c5 7 11 16 17 25c12 18 21 32 32 50h-82c-2 -6 -6 -13 -8 -18c-3 -10 -8 -21 -10 -29c-3 -7 -7 -17 -11 -27c-6 -18 -14 -34 -20 -52z" />
    <glyph glyph-name="dieresis" unicode="&#xa8;" horiz-adv-x="301" 
d="M41 634h66v88h-66v-88zM193 634h67v88h-67v-88z" />
    <glyph glyph-name="notequal" unicode="&#x2260;" horiz-adv-x="478" 
d="M208 208h225v68h-199c10 28 21 59 31 84c7 21 16 47 24 70h144v68h-119l80 223h-43c-13 -35 -30 -80 -43 -116v1c-6 -16 -11 -33 -17 -49c-7 -19 -14 -40 -20 -59h-226v-68h199c-13 -38 -27 -77 -40 -112c-4 -12 -11 -29 -16 -42h-143v-68h121l-82 -222h44
c13 37 30 84 45 122v0c5 16 11 32 17 48v-1c6 17 13 36 18 53z" />
    <glyph glyph-name="AE" unicode="&#xc6;" horiz-adv-x="851" 
d="M198 282l145 364h70v-364h-215zM14 0h73c14 36 31 80 46 116c8 19 16 40 23 59c5 12 10 26 13 36h244v-211h383v70h-315v265h283v70h-283v241h306v70h-490c-36 -93 -73 -189 -110 -280c-29 -74 -61 -154 -92 -231c-27 -70 -54 -136 -81 -205z" />
    <glyph glyph-name="Oslash" unicode="&#xd8;" horiz-adv-x="667" 
d="M191 122l316 429c24 -65 39 -131 39 -196c0 -95 -22 -169 -62 -221c-40 -53 -90 -80 -151 -80c-26 0 -55 7 -77 18c-16 8 -39 25 -65 50zM479 590l-317 -429l-6 17c-11 30 -21 57 -24 74c-7 31 -10 72 -10 106c0 100 19 175 60 227c41 50 91 76 152 76c27 0 49 -4 70 -13
c20 -10 44 -28 75 -58zM590 742l-69 -96c-34 31 -66 55 -91 64c-29 13 -61 19 -96 19c-54 0 -104 -17 -147 -45v0c-41 -29 -77 -76 -101 -130c-23 -56 -36 -124 -36 -198c0 -47 5 -88 13 -124v1c11 -34 30 -81 57 -131l-73 -96l15 -15c2 -3 8 -9 15 -15l3 -3
c10 14 26 36 38 50h-1c8 13 20 27 33 43c32 -28 61 -51 84 -60c30 -11 65 -18 101 -18c50 0 98 13 141 44c45 29 80 72 104 130c24 56 36 123 36 196c0 50 -4 95 -16 138c-8 30 -24 69 -51 114l74 98c-1 0 -1 1 -2 2l-11 12l-8 8z" />
    <glyph glyph-name="infinity" unicode="&#x221e;" horiz-adv-x="613" 
d="M266 356v-13c-35 -52 -64 -78 -94 -78c-14 0 -31 9 -43 23c-12 17 -18 38 -18 63c0 53 25 85 60 85c15 0 26 -7 39 -16c15 -9 33 -30 56 -64zM314 345v11c29 48 54 80 71 94c13 9 25 14 39 14c22 0 43 -10 58 -30s22 -50 22 -86s-6 -64 -22 -84c-15 -19 -35 -30 -57 -30
c-15 0 -29 5 -44 16c-19 17 -44 49 -67 95zM294 394h-9c-37 53 -75 82 -114 82c-26 0 -50 -13 -68 -38c-18 -22 -28 -52 -28 -88s10 -66 28 -91c18 -23 41 -35 68 -35c37 0 77 30 120 89c30 -48 56 -78 70 -92c19 -17 43 -27 65 -27c20 0 41 7 58 19c19 13 36 32 43 53
c10 20 13 48 13 87c0 55 -12 92 -36 116c-23 25 -48 36 -78 36c-22 0 -44 -8 -65 -27c-16 -14 -38 -41 -67 -84z" />
    <glyph glyph-name="plusminus" unicode="&#xb1;" horiz-adv-x="478" 
d="M433 0v68h-388v-68h388zM210 130h58v201h165v67h-165v201h-58v-201h-165v-67h165v-201z" />
    <glyph glyph-name="lessequal" unicode="&#x2264;" horiz-adv-x="478" 
d="M433 53v68h-388v-68h388zM45 378l390 -202v73c-71 36 -157 79 -235 118c-29 14 -68 33 -93 47l328 162v74c-111 -57 -228 -116 -336 -171c-17 -9 -37 -20 -54 -28v-73z" />
    <glyph glyph-name="greaterequal" unicode="&#x2265;" horiz-adv-x="478" 
d="M433 53v68h-388v-68h388zM435 378v73c-65 32 -132 67 -194 98c-61 32 -131 68 -196 101v-74c51 -26 109 -54 166 -82c53 -26 114 -56 162 -80l-328 -166v-72c91 48 197 102 292 152c34 17 66 33 98 50z" />
    <glyph glyph-name="yen" unicode="&#xa5;" 
d="M210 0h63v163h169v53h-169v87h169v58h-145l168 355h-76c-8 -18 -18 -42 -27 -60c-19 -42 -39 -87 -58 -130l-27 -60c-2 -5 -4 -9 -6 -14c-9 -22 -24 -56 -32 -78c-11 32 -24 63 -36 88l-117 254h-70c3 -8 9 -19 13 -23c47 -104 108 -232 156 -332h-146v-58h171v-87h-171
v-53h171v-163z" />
    <glyph glyph-name="mu" unicode="&#xb5;" horiz-adv-x="501" 
d="M420 515h-62v-219c0 -83 -3 -136 -10 -159c-7 -25 -21 -45 -39 -62c-18 -14 -38 -22 -61 -22c-22 0 -42 8 -58 22c-18 16 -30 37 -38 61c-6 27 -11 82 -11 161v218h-61v-719h61v269c24 -32 43 -57 51 -62c17 -10 36 -15 58 -15c25 0 47 7 65 19c10 8 28 33 51 68v-75h54
v515z" />
    <glyph glyph-name="partialdiff" unicode="&#x2202;" horiz-adv-x="434" 
d="M356 397l8 -10c-13 -157 -56 -266 -120 -318c-26 -18 -49 -29 -70 -29c-18 0 -36 11 -51 29c-15 21 -23 45 -23 74c0 43 11 87 32 129c20 41 50 73 79 90c31 18 80 30 145 35zM136 594l45 -24c13 42 30 68 45 84c16 16 34 26 51 26c18 0 36 -8 49 -26
c14 -15 25 -44 30 -71c6 -28 9 -81 11 -137c-119 -6 -218 -47 -268 -106c-39 -50 -62 -116 -62 -187c0 -53 11 -94 32 -122c23 -28 53 -43 90 -43s76 16 116 52c39 35 70 89 95 162h-1c22 73 35 158 35 253c0 88 -13 161 -37 212v0c-10 16 -20 30 -36 42
c-17 14 -35 20 -54 20c-24 0 -54 -16 -78 -34c-22 -20 -45 -52 -63 -101z" />
    <glyph glyph-name="summation" unicode="&#x2211;" horiz-adv-x="613" 
d="M69 729v-78c15 -24 31 -48 47 -73c26 -41 53 -82 79 -122c21 -32 43 -67 63 -100c19 -29 41 -64 60 -92l-256 -396v-83h510v64h-436l274 419c-48 71 -100 153 -149 230v-1c-35 53 -75 116 -107 165h413v67h-498z" />
    <glyph glyph-name="product" unicode="&#x220f;" horiz-adv-x="705" 
d="M77 729v-944h69v872h413v-872h67v944h-549z" />
    <glyph glyph-name="pi1" horiz-adv-x="478" 
d="M14 516v-64h64v-452h67v452h187v-452h66v452h66v64h-450z" />
    <glyph glyph-name="integral" unicode="&#x222b;" horiz-adv-x="251" 
d="M104 731l-5 -267c0 -155 5 -314 15 -413c3 -25 3 -46 3 -60c0 -28 -9 -38 -21 -38c-7 0 -15 7 -23 18l1 -1c-8 8 -17 14 -27 14c-18 0 -31 -16 -31 -41c0 -31 18 -52 44 -52c19 0 36 10 51 30l-1 -1c21 35 33 102 36 195c4 173 7 272 7 294c0 84 -5 194 -16 330
c-2 35 -3 59 -3 74c0 28 7 40 21 40c5 0 9 -4 16 -9c1 -1 2 -1 3 -2c12 -12 21 -17 29 -17c18 0 32 17 32 44c0 10 -3 20 -13 30c-9 10 -20 16 -34 16c-21 0 -49 -22 -64 -62l1 1c-10 -33 -18 -76 -21 -123z" />
    <glyph glyph-name="ordfeminine" unicode="&#xaa;" horiz-adv-x="332" 
d="M225 550l10 -8c0 -28 -2 -45 -5 -56v1c-5 -21 -17 -37 -31 -50v1c-14 -15 -34 -21 -56 -21c-36 0 -58 24 -58 57c0 15 4 28 13 38c8 9 28 16 52 21c8 2 16 4 23 5c21 4 40 9 52 12zM229 422l12 -6c1 -11 1 -22 7 -35h47c-9 27 -12 54 -12 83v152c0 37 -9 65 -25 84
s-48 29 -92 29c-37 0 -65 -11 -86 -29c-17 -15 -28 -35 -34 -61c6 -2 13 -4 20 -6c6 -2 12 -4 17 -5h-1c1 -1 7 -3 10 -4c10 43 31 62 73 62c18 0 31 -4 40 -10c10 -7 19 -16 23 -24c5 -8 7 -27 7 -55c-10 -6 -25 -9 -45 -13l-60 -11c-17 -4 -32 -7 -41 -11v0
c-36 -15 -55 -45 -55 -88c0 -29 9 -55 26 -73c17 -19 40 -28 70 -28c32 0 69 19 99 49z" />
    <glyph glyph-name="ordmasculine" unicode="&#xba;" horiz-adv-x="327" 
d="M163 677c46 0 79 -40 79 -125c0 -94 -32 -132 -79 -132s-79 40 -79 129c0 91 32 128 79 128zM163 729c-35 0 -71 -21 -95 -48c-21 -32 -35 -79 -35 -134c0 -56 13 -101 35 -131v1c25 -29 58 -48 95 -48s71 20 94 48c23 31 37 75 37 132c0 55 -14 100 -37 132
c-23 27 -56 48 -94 48z" />
    <glyph glyph-name="Omega" unicode="&#x2126;" horiz-adv-x="659" 
d="M231 64l-168 5v-69h227v76c-45 27 -79 66 -102 114v0c-27 53 -38 118 -38 191c0 94 19 168 60 226c30 42 72 61 127 61c38 0 75 -11 102 -37v1c30 -26 52 -64 65 -111c14 -45 20 -93 20 -142c0 -96 -41 -201 -94 -265c-11 -10 -28 -25 -49 -38v-76h227v67
c-12 -1 -26 0 -41 -1c-17 0 -33 0 -47 -1h-78c38 33 66 58 79 73c45 62 78 147 78 255c0 79 -22 159 -53 217c-48 77 -120 124 -208 124c-49 0 -100 -15 -141 -43c-37 -29 -74 -71 -93 -123c-22 -51 -32 -110 -32 -175c0 -98 30 -187 74 -250c14 -18 43 -45 85 -79z" />
    <glyph glyph-name="ae" unicode="&#xe6;" horiz-adv-x="758" 
d="M651 301h-255c7 56 20 98 41 125c24 26 52 41 88 41c69 0 115 -50 126 -166zM326 265l10 -11c0 -52 -1 -88 -6 -107v1c-7 -29 -24 -56 -49 -76c-23 -18 -52 -30 -84 -30c-29 0 -53 11 -67 27h1c-16 17 -25 40 -25 66c0 28 10 50 27 69c11 10 35 20 66 26
c51 9 102 24 127 35zM710 147l-65 11c-19 -72 -62 -111 -116 -111c-25 0 -47 7 -68 21c-21 15 -37 36 -47 58c-10 20 -16 60 -17 116h308v-20c7 9 11 13 22 25c-6 -1 -10 -3 -14 -4c4 14 4 20 4 22c0 41 -8 82 -22 124h1c-14 41 -34 73 -62 100c-29 26 -64 37 -108 37
c-56 0 -102 -27 -140 -74c-15 25 -30 43 -43 49c-27 17 -66 25 -109 25c-35 0 -67 -6 -93 -18c-25 -12 -46 -29 -58 -52c-11 -18 -22 -45 -31 -80c5 -1 12 -2 18 -3c8 -1 16 -2 21 -2c4 -1 12 -3 18 -4h1c3 -1 0 0 2 -1c6 28 13 49 21 59v-1c16 27 52 43 101 43
c36 0 61 -9 78 -26c16 -19 24 -50 24 -94v-27c-34 -11 -72 -19 -108 -26c-51 -8 -92 -20 -118 -31h1c-22 -14 -40 -32 -53 -55c-14 -25 -21 -49 -21 -76c0 -38 17 -75 37 -103c27 -26 64 -41 108 -41c63 0 120 33 181 102c48 -67 101 -102 163 -102c88 0 153 57 184 159z
" />
    <glyph glyph-name="oslash" unicode="&#xf8;" horiz-adv-x="530" 
d="M182 84l193 305c12 -32 19 -53 20 -63c3 -19 5 -44 5 -69c0 -70 -14 -122 -38 -157c-27 -37 -61 -53 -99 -53c-27 0 -52 10 -81 37zM353 427l-194 -307c-19 47 -27 95 -27 136c0 71 12 122 36 159c28 36 59 52 98 52c26 0 56 -12 87 -40zM427 546l-41 -65
c-48 32 -81 45 -122 45c-56 0 -101 -22 -141 -66c-38 -43 -57 -112 -57 -210c0 -43 4 -84 15 -121c6 -19 19 -44 38 -70l-44 -68c4 -3 9 -9 11 -12c4 -3 6 -3 19 -16c6 9 14 22 21 33h-1c3 5 7 10 9 13v0c1 2 4 5 6 8s6 10 8 12c39 -29 76 -41 116 -41c49 0 98 21 134 55
c40 45 66 122 66 213c0 42 -3 81 -12 115c-5 21 -17 47 -36 79l42 68h-1c-6 5 -15 13 -18 17l-3 3c-3 3 -3 3 -9 8z" />
    <glyph glyph-name="questiondown" unicode="&#xbf;" horiz-adv-x="530" 
d="M455 -19h2h4l-5 6c0 -2 0 -3 -1 -6zM305 515h-76v-87h76v87zM299 335h-59c-2 -36 -6 -58 -9 -73c-4 -18 -8 -32 -17 -46v1c-7 -13 -25 -34 -47 -59c-34 -37 -62 -72 -72 -96c-10 -25 -17 -54 -17 -84c0 -52 17 -99 49 -136c35 -36 82 -56 140 -56c102 0 170 70 188 195
c-9 2 -21 3 -25 4c-11 2 -26 5 -40 7c-18 -100 -62 -148 -124 -148c-33 0 -64 16 -87 42c-24 27 -36 60 -36 98c0 20 5 40 12 57c8 18 25 42 50 68c27 27 45 47 55 60h-1c12 19 22 39 28 58c7 24 13 55 13 89v4c0 1 0 8 -1 15z" />
    <glyph glyph-name="exclamdown" unicode="&#xa1;" horiz-adv-x="301" 
d="M189 515h-75v-87h75v87zM170 332h-39c-6 -127 -14 -254 -21 -381v-153h81v153l-4 79c-2 39 -5 82 -6 121c-3 58 -7 122 -11 181z" />
    <glyph glyph-name="logicalnot" unicode="&#xac;" horiz-adv-x="507" 
d="M448 211v287h-388v-68h327v-219h61z" />
    <glyph glyph-name="radical" unicode="&#x221a;" horiz-adv-x="478" 
d="M445 918l-108 -808l-7 -2l-167 408c-8 -5 -16 -11 -24 -16v0c-11 -6 -22 -14 -31 -20c-5 -2 -11 -6 -18 -11c-13 -8 -27 -16 -40 -24l1 -1v-3c2 -2 6 -9 7 -14c7 4 17 9 25 14c6 3 12 6 16 9v-1c13 8 25 15 41 23l192 -480c2 0 6 1 10 1c10 73 19 150 30 225
c7 57 15 114 22 168c10 80 21 163 32 246c12 97 25 189 38 286h-19z" />
    <glyph glyph-name="florin" unicode="&#x192;" 
d="M44 -142l-11 -62c33 -7 63 -11 85 -11c28 0 53 11 69 27c14 17 27 53 34 97v-1c20 149 42 296 64 444c5 33 11 75 16 108h84v5c0 5 1 12 1 14c2 6 4 18 5 29c0 2 0 5 1 7h-84c1 6 3 18 4 23c1 12 3 22 5 36c6 36 12 61 21 72s22 15 38 15c13 0 34 -3 61 -10
c0 5 1 12 2 17s2 9 2 11c1 4 2 10 2 10v0c2 9 5 15 6 22c-36 12 -64 18 -82 18c-50 0 -79 -23 -95 -62c-5 -11 -11 -44 -18 -81c-2 -22 -6 -47 -12 -71h-82c0 -5 -1 -11 -1 -15c-1 -4 -1 -8 -1 -10c0 -7 -2 -14 -4 -24c-1 -4 -1 -2 -2 -6h84c-8 -61 -18 -126 -27 -187
c-15 -110 -32 -231 -46 -342c-5 -32 -14 -57 -20 -67c-10 -9 -23 -16 -39 -16c-12 0 -32 4 -60 10z" />
    <glyph glyph-name="approxequal" unicode="&#x2248;" horiz-adv-x="478" 
d="M34 279v-83c24 24 41 39 51 45c16 9 34 14 51 14c23 0 50 -8 82 -25c34 -20 58 -31 72 -35c14 -5 30 -7 46 -7c41 0 74 17 109 53v84c-17 -16 -33 -31 -45 -38h1c-18 -12 -40 -20 -58 -20c-9 0 -20 2 -30 5c-6 3 -14 6 -23 10c-6 3 -15 7 -21 10c-31 17 -57 29 -76 34
c-17 5 -34 9 -50 9c-43 0 -80 -21 -109 -56zM34 459v-82c24 24 41 40 51 44v0c17 10 33 15 51 15c24 0 50 -9 82 -27c34 -18 59 -30 72 -33c14 -4 30 -7 46 -7c41 0 74 16 109 52v87c-19 -19 -32 -32 -45 -40h1c-18 -12 -40 -19 -58 -19c-9 0 -20 1 -29 4v0
c-11 3 -27 10 -43 20v0c-35 17 -62 29 -77 33c-17 7 -34 10 -51 10c-43 0 -80 -21 -109 -57z" />
    <glyph glyph-name="Delta" unicode="&#x2206;" horiz-adv-x="530" 
d="M423 26h-361c36 99 73 197 107 290c25 66 55 145 81 216c45 -128 88 -256 129 -377c14 -40 29 -87 44 -129zM503 0l-227 668c-42 -114 -92 -250 -133 -358c-15 -38 -29 -77 -44 -117c-24 -65 -48 -130 -73 -193h477z" />
    <glyph glyph-name="guillemotleft" unicode="&#xab;" 
d="M141 255l103 221h-47c-11 -20 -23 -41 -35 -62c-18 -31 -36 -62 -53 -91c-5 -9 -13 -23 -19 -33c-7 -12 -13 -22 -20 -35c3 -5 8 -12 12 -19s8 -16 12 -22c7 -11 15 -26 22 -37c28 -47 54 -93 81 -140h47c-32 67 -71 152 -103 218zM301 255l104 221h-50
c-14 -26 -31 -55 -45 -82c-9 -15 -17 -29 -24 -42s-15 -26 -22 -39c-12 -20 -22 -38 -33 -58c42 -72 84 -146 125 -218h50c-16 32 -36 76 -52 108c-7 15 -15 30 -21 44c-12 22 -23 46 -32 66z" />
    <glyph glyph-name="guillemotright" unicode="&#xbb;" 
d="M340 255l-103 -218h46c8 12 15 24 23 37c13 24 29 51 41 72c6 10 12 21 19 32c15 27 30 51 45 77c-7 12 -14 22 -20 34c-23 40 -47 82 -70 122c-11 19 -27 45 -38 65h-46c32 -68 72 -154 103 -221zM181 255l-105 -218h48c43 72 84 145 126 218c-20 36 -41 73 -61 106
c-5 11 -11 20 -17 30c-16 29 -32 57 -48 85h-48c11 -26 28 -61 41 -88c2 -5 6 -11 8 -14c6 -15 13 -29 20 -42c12 -25 25 -52 36 -77z" />
    <glyph glyph-name="ellipsis" unicode="&#x2026;" horiz-adv-x="851" 
d="M108 0h73v88h-73v-88zM389 0h73v88h-73v-88zM670 0h74v88h-74v-88z" />
    <glyph glyph-name="Agrave" unicode="&#xc0;" horiz-adv-x="577" 
d="M185 285l70 226c10 39 22 91 31 140h11c10 -43 26 -96 42 -152c17 -54 34 -110 51 -163c4 -15 11 -36 16 -51h-221zM27 0h72c6 20 13 40 19 61s13 43 20 64c6 23 14 50 21 75c2 6 5 16 7 22h261l68 -222h81c-8 25 -16 49 -25 74c-56 165 -115 334 -168 496h-1
c-11 35 -24 73 -36 109c-5 13 -9 24 -13 37h-79c-12 -37 -24 -74 -36 -112c-32 -101 -65 -204 -95 -300s-65 -205 -96 -304zM206 898h10s-1 1 -1 2v-1c-1 3 -3 4 -4 6zM349 772l-49 126h-84c9 -13 21 -32 27 -41c10 -16 22 -33 34 -51c8 -11 15 -22 24 -34h48z" />
    <glyph glyph-name="Atilde" unicode="&#xc3;" horiz-adv-x="577" 
d="M185 285l70 226c10 39 22 91 31 140h11c10 -43 26 -96 42 -152c17 -54 34 -110 51 -163c4 -15 11 -36 16 -51h-221zM27 0h72c6 20 13 40 19 61s13 43 20 64c6 23 14 50 21 75c2 6 5 16 7 22h261l68 -222h81c-8 25 -16 49 -25 74c-56 165 -115 334 -168 496h-1
c-11 35 -24 73 -36 109c-5 13 -9 24 -13 37h-79c-12 -37 -24 -74 -36 -112c-32 -101 -65 -204 -95 -300s-65 -205 -96 -304zM169 773h44c2 15 5 27 11 33c8 9 16 15 26 15c7 0 23 -6 43 -19c26 -18 49 -27 66 -27c39 0 68 32 75 98h-44c-6 -34 -17 -43 -34 -43
c-11 0 -24 5 -41 15c-26 17 -51 27 -68 27c-23 0 -41 -11 -56 -30c-13 -14 -19 -38 -22 -69z" />
    <glyph glyph-name="Otilde" unicode="&#xd5;" horiz-adv-x="667" 
d="M137 347c0 109 24 193 63 242c40 46 92 72 148 72c40 0 78 -12 112 -37c65 -51 99 -144 99 -266c0 -94 -22 -172 -59 -224c-40 -52 -92 -80 -153 -80c-59 0 -109 27 -151 79c-39 53 -59 123 -59 214zM64 349c0 -64 11 -123 34 -180c22 -53 59 -100 100 -132
c42 -31 95 -49 149 -49c49 0 103 16 145 44c43 29 81 76 103 131c24 56 36 122 36 194s-12 139 -34 192c-22 55 -55 101 -100 133c-44 31 -93 47 -149 47c-85 0 -151 -34 -204 -101c-52 -66 -80 -161 -80 -279zM215 773h44c2 15 5 27 11 33c8 9 16 15 26 15
c7 0 23 -6 43 -19c26 -18 49 -27 66 -27c39 0 68 32 75 98h-44c-6 -34 -17 -43 -34 -43c-11 0 -24 5 -41 15c-26 17 -51 27 -68 27c-23 0 -41 -11 -56 -30c-13 -14 -19 -38 -22 -69z" />
    <glyph glyph-name="OE" unicode="&#x152;" horiz-adv-x="851" 
d="M299 665c42 0 84 -30 116 -73c32 -49 51 -127 51 -228c0 -112 -17 -192 -49 -241c-34 -49 -72 -73 -118 -73s-82 25 -116 73c-33 49 -50 126 -50 229c0 73 8 133 21 178c14 43 35 80 63 103c26 21 55 32 82 32zM814 70h-279v266h245v71h-245v239h266v70h-332v-114
c-51 85 -105 127 -169 127c-83 0 -142 -35 -180 -105c-39 -72 -58 -161 -58 -265c0 -102 21 -193 55 -259c43 -70 106 -112 183 -112c70 0 122 37 161 114l8 -2v-100h345v70z" />
    <glyph glyph-name="oe" unicode="&#x153;" horiz-adv-x="805" 
d="M697 300h-253c3 56 17 99 39 125c25 29 55 43 89 43c33 0 62 -15 83 -41s35 -70 42 -127zM110 257c0 41 4 78 14 110c23 66 68 101 117 101c38 0 71 -17 96 -53c25 -37 39 -88 39 -157c0 -68 -14 -119 -39 -156c-26 -37 -60 -55 -96 -55c-40 0 -76 24 -103 65
c-19 33 -28 84 -28 145zM400 82h12c34 -61 91 -94 164 -94c88 0 151 56 179 157c-12 2 -28 6 -35 7c-3 1 -8 1 -12 2h1c-5 1 -11 2 -16 3c-22 -74 -65 -110 -117 -110c-37 0 -71 19 -95 50c-23 30 -37 83 -42 143h325c-2 95 -21 168 -53 214c-37 44 -87 72 -144 72
c-61 0 -119 -40 -159 -106c-21 38 -43 62 -67 78c-28 20 -59 28 -96 28c-39 0 -76 -11 -107 -32c-33 -20 -55 -54 -73 -97v1c-15 -43 -22 -92 -22 -148c0 -77 23 -147 56 -192c35 -42 87 -70 144 -70c63 0 117 34 157 94z" />
    <glyph glyph-name="endash" unicode="&#x2013;" 
d="M11 229h459v56h-459v-56z" />
    <glyph glyph-name="emdash" unicode="&#x2014;" horiz-adv-x="851" 
d="M8 229h834v56h-834v-56z" />
    <glyph glyph-name="quotedblleft" unicode="&#x201c;" horiz-adv-x="301" 
d="M246 594h-39c3 59 14 92 42 111c-2 3 -4 9 -7 14c-1 4 -1 3 -3 8c-24 -17 -40 -35 -49 -56c-8 -18 -13 -47 -13 -91v-75h69v89zM118 594h-40c4 59 14 92 43 112c-3 4 -6 11 -10 19c0 0 -1 1 -2 3c-22 -16 -38 -36 -48 -57c-6 -18 -12 -50 -12 -91v-75h69v89z" />
    <glyph glyph-name="quotedblright" unicode="&#x201d;" horiz-adv-x="301" 
d="M179 635h38c-3 -55 -16 -91 -41 -111c3 -6 8 -16 11 -23c22 17 38 36 48 56v0c7 17 11 51 11 92v76h-67v-90zM51 635h37c-1 -57 -13 -92 -41 -112c3 -4 8 -15 12 -22c1 -1 0 1 1 0c23 16 37 35 47 56c7 17 13 52 13 92v76h-69v-90z" />
    <glyph glyph-name="quoteleft" unicode="&#x2018;" horiz-adv-x="208" 
d="M137 594h-38c3 56 15 92 43 112c-4 5 -8 13 -11 22c-25 -17 -42 -37 -50 -59c-9 -16 -13 -46 -13 -89v-75h69v89z" />
    <glyph glyph-name="quoteright" unicode="&#x2019;" horiz-adv-x="208" 
d="M68 635h37c-1 -56 -16 -91 -44 -111c0 0 7 -7 7 -10c2 -2 5 -9 6 -13c26 17 41 34 50 56c8 17 12 50 12 92v76h-68v-90z" />
    <glyph glyph-name="divide" unicode="&#xf7;" horiz-adv-x="478" 
d="M201 460h75v87h-75v-87zM201 160h75v86h-75v-86zM433 318v70h-388v-70h388z" />
    <glyph glyph-name="lozenge" unicode="&#x25ca;" horiz-adv-x="434" 
d="M212 667l155 -321c-49 -103 -104 -217 -154 -320c-8 18 -21 46 -29 64c-40 86 -78 165 -118 256c35 77 72 157 107 236c12 25 28 60 39 85zM231 694h-40c-9 -22 -20 -45 -30 -68c-21 -46 -44 -96 -63 -139c-21 -46 -43 -93 -64 -141c8 -16 16 -34 23 -51
c6 -12 12 -25 17 -38c39 -86 77 -170 117 -257h41c26 53 51 105 78 160c30 63 59 124 89 187c-11 24 -24 49 -36 74s-23 48 -34 70c-16 32 -33 69 -49 102c-17 34 -32 67 -49 101z" />
    <glyph glyph-name="ydieresis" unicode="&#xff;" horiz-adv-x="438" 
d="M71 -138l8 -69c15 -4 29 -8 42 -8c42 0 78 33 102 82c10 24 24 67 42 120h-1c55 178 108 350 163 528h-62c-5 -15 -10 -32 -15 -49c-8 -26 -17 -54 -24 -78s-15 -49 -22 -73c-10 -34 -21 -71 -31 -106c-11 -36 -22 -77 -31 -118h-9c-10 43 -19 80 -32 120l-90 304h-67
c30 -98 61 -200 93 -301c23 -74 48 -152 70 -223l-4 -11c0 -1 -1 -3 -2 -4v-3c-1 -2 -1 -5 -1 -7c-9 -32 -19 -57 -24 -70c-15 -24 -34 -39 -69 -39c-7 0 -19 2 -36 5zM126 634h66v88h-66v-88zM278 634h67v88h-67v-88z" />
    <glyph glyph-name="Ydieresis" unicode="&#x178;" horiz-adv-x="577" 
d="M261 0h68v306l236 410h-80c-6 -10 -12 -21 -17 -32c-17 -29 -33 -61 -48 -90v0c-2 -4 -5 -8 -7 -11c-14 -27 -29 -54 -44 -80c-20 -39 -51 -101 -69 -138c-18 42 -44 92 -66 134c-11 21 -24 42 -34 63c-28 51 -56 104 -83 154h-84c34 -60 69 -124 104 -188
c41 -73 85 -153 124 -222v-306zM188 774h66v88h-66v-88zM340 774h67v88h-67v-88z" />
    <glyph glyph-name="uni2215" unicode="&#x2044;" horiz-adv-x="164" 
d="M-165 -28h52c16 26 30 52 46 78c51 88 105 180 154 265c24 40 48 81 73 123c58 98 113 193 170 291h-51c-84 -144 -169 -290 -252 -429c-31 -54 -69 -119 -103 -176c-30 -53 -60 -102 -89 -152z" />
    <glyph glyph-name="uni2215" unicode="&#x2215;" horiz-adv-x="164" 
d="M-165 -28h52c16 26 30 52 46 78c51 88 105 180 154 265c24 40 48 81 73 123c58 98 113 193 170 291h-51c-84 -144 -169 -290 -252 -429c-31 -54 -69 -119 -103 -176c-30 -53 -60 -102 -89 -152z" />
    <glyph glyph-name="Euro" unicode="&#x20ac;" 
d="M333 661c36 0 74 -16 110 -45c5 22 11 54 14 76c-36 24 -76 37 -123 37c-52 0 -100 -15 -145 -43h1c-68 -46 -110 -123 -130 -234h-48c-1 -6 -2 -14 -3 -19c0 -2 -1 -6 -1 -7c-1 -3 -2 -9 -3 -15c-1 -4 -1 -8 -2 -12h55c-2 -13 -2 -22 -2 -26c0 -15 0 -40 1 -54h-45
c-2 -7 -2 -15 -3 -22c0 -1 -1 -2 -1 -3c-2 -5 -4 -18 -5 -27h60c7 -38 16 -73 24 -97c43 -113 129 -182 246 -182c38 0 74 8 108 26v82c-35 -28 -72 -42 -114 -42c-37 0 -72 13 -105 37c-42 31 -73 90 -88 176h248c2 9 4 22 7 35c1 8 1 11 3 17h-266v80h279c0 2 1 4 1 6
c0 4 1 8 1 10c1 8 3 24 7 37h-281c4 35 15 70 29 100c17 28 33 52 53 68h-1c32 28 73 41 119 41z" />
    <glyph glyph-name="guilsinglleft" unicode="&#x2039;" horiz-adv-x="301" 
d="M122 254l108 222h-50c-29 -50 -64 -112 -93 -164c-3 -5 -6 -10 -9 -16c-8 -14 -16 -27 -23 -41c10 -17 22 -37 32 -56c12 -20 25 -43 36 -60c10 -19 21 -39 32 -59c10 -16 17 -29 25 -43h49c-17 32 -38 77 -52 109v0c-19 36 -38 74 -55 108z" />
    <glyph glyph-name="guilsinglright" unicode="&#x203a;" horiz-adv-x="301" 
d="M165 256l-106 -219h47c10 17 19 33 29 51c13 25 26 49 39 72c16 31 36 67 54 100c-5 10 -11 20 -17 30c-15 26 -31 53 -44 78c-11 18 -22 38 -33 58c-9 17 -18 32 -28 50h-48c16 -33 37 -79 52 -111c11 -21 22 -44 33 -65c6 -13 15 -30 22 -44z" />
    <glyph glyph-name="uniF001" unicode="&#xf001;" horiz-adv-x="438" 
d="M304 629h64v87h-64v-87zM304 0h64v515h-64v-515zM89 0h64v460h85v55h-85v42c0 42 5 70 15 84c12 14 30 20 57 20c6 0 20 -1 35 -3c0 6 2 11 3 17c1 5 1 10 2 13c1 8 3 21 5 31c-26 7 -48 10 -69 10c-78 0 -112 -55 -112 -156v-58h-66v-55h66v-460z" />
    <glyph glyph-name="uniF001" unicode="&#xfb01;" horiz-adv-x="438" 
d="M304 629h64v87h-64v-87zM304 0h64v515h-64v-515zM89 0h64v460h85v55h-85v42c0 42 5 70 15 84c12 14 30 20 57 20c6 0 20 -1 35 -3c0 6 2 11 3 17c1 5 1 10 2 13c1 8 3 21 5 31c-26 7 -48 10 -69 10c-78 0 -112 -55 -112 -156v-58h-66v-55h66v-460z" />
    <glyph glyph-name="uniF002" unicode="&#xf002;" horiz-adv-x="438" 
d="M303 0h64v716h-64v-716zM89 0h64v460h85v55h-85v42c0 42 5 70 15 84c12 14 30 20 57 20c7 0 19 0 36 -3c1 8 2 18 4 27v0c2 13 3 23 5 34c-26 7 -48 10 -69 10c-78 0 -112 -55 -112 -156v-58h-66v-55h66v-460z" />
    <glyph glyph-name="uniF002" unicode="&#xfb02;" horiz-adv-x="438" 
d="M303 0h64v716h-64v-716zM89 0h64v460h85v55h-85v42c0 42 5 70 15 84c12 14 30 20 57 20c7 0 19 0 36 -3c1 8 2 18 4 27v0c2 13 3 23 5 34c-26 7 -48 10 -69 10c-78 0 -112 -55 -112 -156v-58h-66v-55h66v-460z" />
    <glyph glyph-name="daggerdbl" unicode="&#x2021;" 
d="M209 -172h64v184h166v64h-166v379h166v64h-166v187h-64v-187h-166v-64h166v-379h-166v-64h166v-184z" />
    <glyph glyph-name="periodcentered" unicode="&#xb7;" horiz-adv-x="255" 
d="M91 310h74v86h-74v-86z" />
    <glyph glyph-name="periodcentered" unicode="&#x2219;" horiz-adv-x="255" 
d="M91 310h74v86h-74v-86z" />
    <glyph glyph-name="quotesinglbase" unicode="&#x201a;" horiz-adv-x="208" 
d="M68 0h37c-1 -58 -16 -92 -41 -110c2 -5 3 -9 4 -11l-1 2s1 -3 3 -6v0c2 -4 4 -6 5 -8c23 16 41 34 50 56c8 17 11 49 11 91v75h-68v-89z" />
    <glyph glyph-name="quotedblbase" unicode="&#x201e;" horiz-adv-x="301" 
d="M179 0h38c-3 -56 -16 -91 -42 -111c2 -3 5 -9 6 -13c1 -3 4 -6 6 -9c21 16 38 35 48 55v0c7 17 11 50 11 92v75h-67v-89zM51 0h37c-1 -58 -13 -92 -41 -111c2 -4 5 -9 6 -13c3 -4 4 -4 7 -10c23 16 37 35 47 56c7 17 13 51 13 92v75h-69v-89z" />
    <glyph glyph-name="perthousand" unicode="&#x2030;" horiz-adv-x="851" 
d="M374 156c0 54 7 93 20 115c10 15 23 24 43 24c16 0 30 -8 42 -25c12 -21 19 -61 19 -112c0 -53 -7 -92 -19 -114c-11 -16 -24 -24 -41 -24c-19 0 -35 11 -46 28c-11 19 -18 55 -18 108zM650 156c0 53 8 94 20 115c10 15 26 24 44 24c17 0 32 -9 41 -25v0
c15 -23 20 -61 20 -112c0 -53 -6 -91 -19 -113c-8 -16 -24 -25 -42 -25c-16 0 -34 11 -46 28c-11 19 -18 55 -18 108zM75 537c0 52 7 92 20 114c9 15 24 25 43 25c17 0 30 -9 42 -26c12 -24 20 -61 20 -112c0 -54 -7 -92 -19 -113c-11 -16 -23 -26 -42 -26
c-20 0 -35 13 -49 32c-9 17 -15 53 -15 106zM145 -26h42c6 19 13 39 20 60c19 61 40 127 57 181c37 115 76 235 113 353c18 57 33 105 50 161h-40c-19 -62 -42 -131 -63 -195c-5 -16 -11 -34 -15 -49c-40 -123 -82 -251 -122 -379c-15 -44 -28 -87 -42 -132zM24 541
c0 -63 12 -115 31 -144v0c22 -27 49 -43 83 -43c75 0 112 64 112 189c0 62 -10 108 -32 137c-20 28 -49 44 -82 44c-32 0 -60 -16 -81 -44c-20 -29 -31 -76 -31 -139zM601 161c0 -66 10 -117 31 -145c20 -26 49 -42 82 -42c77 0 113 64 113 189c0 62 -12 107 -33 135
c-20 29 -47 44 -81 44s-62 -16 -82 -44c-21 -28 -30 -74 -30 -137zM322 161c0 -66 12 -117 32 -145c21 -26 48 -42 83 -42c76 0 112 64 112 189c0 61 -10 106 -31 135c-23 29 -49 44 -83 44c-33 0 -60 -15 -82 -44v1c-19 -28 -31 -74 -31 -138z" />
    <glyph glyph-name="Acircumflex" unicode="&#xc2;" horiz-adv-x="577" 
d="M185 285l70 226c10 39 22 91 31 140h11c10 -43 26 -96 42 -152c17 -54 34 -110 51 -163c4 -15 11 -36 16 -51h-221zM27 0h72c6 20 13 40 19 61s13 43 20 64c6 23 14 50 21 75c2 6 5 16 7 22h261l68 -222h81c-8 25 -16 49 -25 74c-56 165 -115 334 -168 496h-1
c-11 35 -24 73 -36 109c-5 13 -9 24 -13 37h-79c-12 -37 -24 -74 -36 -112c-32 -101 -65 -204 -95 -300s-65 -205 -96 -304zM293 863l47 -91h71c-11 18 -27 43 -37 55c-13 23 -29 46 -46 71h-75c-6 -11 -14 -22 -20 -31c-7 -12 -14 -23 -20 -32c-7 -12 -19 -29 -29 -46v-1
c-6 -8 -6 -8 -11 -16h71c13 23 36 66 49 91z" />
    <glyph glyph-name="Ecircumflex" unicode="&#xca;" horiz-adv-x="577" 
d="M93 0h438v70h-370v266h333v70h-333v240h356v70h-424v-716zM311 863l47 -91h71c-11 18 -27 43 -37 55c-13 23 -29 46 -46 71h-75c-6 -11 -14 -22 -20 -31c-7 -12 -14 -23 -20 -32c-7 -12 -19 -29 -29 -46v-1c-6 -8 -6 -8 -11 -16h71c13 23 36 66 49 91z" />
    <glyph glyph-name="Aacute" unicode="&#xc1;" horiz-adv-x="577" 
d="M185 285l70 226c10 39 22 91 31 140h11c10 -43 26 -96 42 -152c17 -54 34 -110 51 -163c4 -15 11 -36 16 -51h-221zM27 0h72c6 20 13 40 19 61s13 43 20 64c6 23 14 50 21 75c2 6 5 16 7 22h261l68 -222h81c-8 25 -16 49 -25 74c-56 165 -115 334 -168 496h-1
c-11 35 -24 73 -36 109c-5 13 -9 24 -13 37h-79c-12 -37 -24 -74 -36 -112c-32 -101 -65 -204 -95 -300s-65 -205 -96 -304zM252 772h50c4 6 7 12 11 19c8 11 15 23 21 32c5 7 11 16 17 25c12 18 21 32 32 50h-82c-2 -6 -6 -13 -8 -18c-3 -10 -8 -21 -10 -29
c-3 -7 -7 -17 -11 -27c-6 -18 -14 -34 -20 -52z" />
    <glyph glyph-name="Edieresis" unicode="&#xcb;" horiz-adv-x="577" 
d="M93 0h438v70h-370v266h333v70h-333v240h356v70h-424v-716zM201 774h66v88h-66v-88zM353 774h67v88h-67v-88z" />
    <glyph glyph-name="Egrave" unicode="&#xc8;" horiz-adv-x="577" 
d="M93 0h438v70h-370v266h333v70h-333v240h356v70h-424v-716zM216 898h10s-1 1 -1 2v-1c-1 3 -3 4 -4 6zM359 772l-49 126h-84c9 -13 21 -32 27 -41c10 -16 22 -33 34 -51c8 -11 15 -22 24 -34h48z" />
    <glyph glyph-name="Iacute" unicode="&#xcd;" horiz-adv-x="255" 
d="M107 0h68v716h-68v-716zM91 772h50c4 6 7 12 11 19c8 11 15 23 21 32c5 7 11 16 17 25c12 18 21 32 32 50h-82c-2 -6 -6 -13 -8 -18c-3 -10 -8 -21 -10 -29c-3 -7 -7 -17 -11 -27c-6 -18 -14 -34 -20 -52z" />
    <glyph glyph-name="Icircumflex" unicode="&#xce;" horiz-adv-x="255" 
d="M107 0h68v716h-68v-716zM141 863l47 -91h71c-11 18 -27 43 -37 55c-13 23 -29 46 -46 71h-75c-6 -11 -14 -22 -20 -31c-7 -12 -14 -23 -20 -32c-7 -12 -19 -29 -29 -46v-1c-6 -8 -6 -8 -11 -16h71c13 23 36 66 49 91z" />
    <glyph glyph-name="Idieresis" unicode="&#xcf;" horiz-adv-x="255" 
d="M107 0h68v716h-68v-716zM31 774h66v88h-66v-88zM183 774h67v88h-67v-88z" />
    <glyph glyph-name="Igrave" unicode="&#xcc;" horiz-adv-x="255" 
d="M107 0h68v716h-68v-716zM49 898h10s-1 1 -1 2v-1c-1 3 -3 4 -4 6zM192 772l-49 126h-84c9 -13 21 -32 27 -41c10 -16 22 -33 34 -51c8 -11 15 -22 24 -34h48z" />
    <glyph glyph-name="Oacute" unicode="&#xd3;" horiz-adv-x="667" 
d="M137 347c0 109 24 193 63 242c40 46 92 72 148 72c40 0 78 -12 112 -37c65 -51 99 -144 99 -266c0 -94 -22 -172 -59 -224c-40 -52 -92 -80 -153 -80c-59 0 -109 27 -151 79c-39 53 -59 123 -59 214zM64 349c0 -64 11 -123 34 -180c22 -53 59 -100 100 -132
c42 -31 95 -49 149 -49c49 0 103 16 145 44c43 29 81 76 103 131c24 56 36 122 36 194s-12 139 -34 192c-22 55 -55 101 -100 133c-44 31 -93 47 -149 47c-85 0 -151 -34 -204 -101c-52 -66 -80 -161 -80 -279zM306 772h50c4 6 7 12 11 19c8 11 15 23 21 32c5 7 11 16 17 25
c12 18 21 32 32 50h-82c-2 -6 -6 -13 -8 -18c-3 -10 -8 -21 -10 -29c-3 -7 -7 -17 -11 -27c-6 -18 -14 -34 -20 -52z" />
    <glyph glyph-name="Ocircumflex" unicode="&#xd4;" horiz-adv-x="667" 
d="M137 347c0 109 24 193 63 242c40 46 92 72 148 72c40 0 78 -12 112 -37c65 -51 99 -144 99 -266c0 -94 -22 -172 -59 -224c-40 -52 -92 -80 -153 -80c-59 0 -109 27 -151 79c-39 53 -59 123 -59 214zM64 349c0 -64 11 -123 34 -180c22 -53 59 -100 100 -132
c42 -31 95 -49 149 -49c49 0 103 16 145 44c43 29 81 76 103 131c24 56 36 122 36 194s-12 139 -34 192c-22 55 -55 101 -100 133c-44 31 -93 47 -149 47c-85 0 -151 -34 -204 -101c-52 -66 -80 -161 -80 -279zM346 863l47 -91h71c-11 18 -27 43 -37 55
c-13 23 -29 46 -46 71h-75c-6 -11 -14 -22 -20 -31c-7 -12 -14 -23 -20 -32c-7 -12 -19 -29 -29 -46v-1c-6 -8 -6 -8 -11 -16h71c13 23 36 66 49 91z" />
    <glyph glyph-name="Ograve" unicode="&#xd2;" horiz-adv-x="667" 
d="M137 347c0 109 24 193 63 242c40 46 92 72 148 72c40 0 78 -12 112 -37c65 -51 99 -144 99 -266c0 -94 -22 -172 -59 -224c-40 -52 -92 -80 -153 -80c-59 0 -109 27 -151 79c-39 53 -59 123 -59 214zM64 349c0 -64 11 -123 34 -180c22 -53 59 -100 100 -132
c42 -31 95 -49 149 -49c49 0 103 16 145 44c43 29 81 76 103 131c24 56 36 122 36 194s-12 139 -34 192c-22 55 -55 101 -100 133c-44 31 -93 47 -149 47c-85 0 -151 -34 -204 -101c-52 -66 -80 -161 -80 -279zM244 898h10s-1 1 -1 2v-1c-1 3 -3 4 -4 6zM387 772l-49 126
h-84c9 -13 21 -32 27 -41c10 -16 22 -33 34 -51c8 -11 15 -22 24 -34h48z" />
    <glyph glyph-name="Uacute" unicode="&#xda;" horiz-adv-x="622" 
d="M485 716v-413c0 -95 -13 -159 -39 -193c-27 -34 -69 -51 -128 -51c-37 0 -66 9 -91 25c-25 17 -41 43 -53 77c-8 28 -15 78 -15 142v413h-67v-415c0 -76 7 -137 22 -180v1c31 -82 102 -134 210 -134c58 0 105 12 139 38c33 27 59 60 71 103c14 43 22 100 22 172v415h-71z
M281 772h50c4 6 7 12 11 19c8 11 15 23 21 32c5 7 11 16 17 25c12 18 21 32 32 50h-82c-2 -6 -6 -13 -8 -18c-3 -10 -8 -21 -10 -29c-3 -7 -7 -17 -11 -27c-6 -18 -14 -34 -20 -52z" />
    <glyph glyph-name="Ucircumflex" unicode="&#xdb;" horiz-adv-x="622" 
d="M485 716v-413c0 -95 -13 -159 -39 -193c-27 -34 -69 -51 -128 -51c-37 0 -66 9 -91 25c-25 17 -41 43 -53 77c-8 28 -15 78 -15 142v413h-67v-415c0 -76 7 -137 22 -180v1c31 -82 102 -134 210 -134c58 0 105 12 139 38c33 27 59 60 71 103c14 43 22 100 22 172v415h-71z
M322 863l47 -91h71c-11 18 -27 43 -37 55c-13 23 -29 46 -46 71h-75c-6 -11 -14 -22 -20 -31c-7 -12 -14 -23 -20 -32c-7 -12 -19 -29 -29 -46v-1c-6 -8 -6 -8 -11 -16h71c13 23 36 66 49 91z" />
    <glyph glyph-name="Ugrave" unicode="&#xd9;" horiz-adv-x="622" 
d="M485 716v-413c0 -95 -13 -159 -39 -193c-27 -34 -69 -51 -128 -51c-37 0 -66 9 -91 25c-25 17 -41 43 -53 77c-8 28 -15 78 -15 142v413h-67v-415c0 -76 7 -137 22 -180v1c31 -82 102 -134 210 -134c58 0 105 12 139 38c33 27 59 60 71 103c14 43 22 100 22 172v415h-71z
M218 898h10s-1 1 -1 2v-1c-1 3 -3 4 -4 6zM361 772l-49 126h-84c9 -13 21 -32 27 -41c10 -16 22 -33 34 -51c8 -11 15 -22 24 -34h48z" />
    <glyph glyph-name="dotlessi" unicode="&#x131;" horiz-adv-x="255" 
d="M98 0h62v515h-62v-515z" />
    <glyph glyph-name="circumflex" unicode="&#x2c6;" horiz-adv-x="301" 
d="M151 686l47 -91h71c-11 18 -27 43 -37 55c-13 23 -29 46 -46 71h-75c-6 -11 -14 -22 -20 -31c-7 -12 -14 -23 -20 -32c-7 -12 -19 -29 -29 -46v-1c-6 -8 -6 -8 -11 -16h71c13 23 36 66 49 91z" />
    <glyph glyph-name="tilde" unicode="&#x2dc;" horiz-adv-x="301" 
d="M18 608h44c2 15 5 27 11 33c8 9 16 15 26 15c7 0 23 -6 43 -19c26 -18 49 -27 66 -27c39 0 68 32 75 98h-44c-6 -34 -17 -43 -34 -43c-11 0 -24 5 -41 15c-26 17 -51 27 -68 27c-23 0 -41 -11 -56 -30c-13 -14 -19 -38 -22 -69z" />
    <glyph glyph-name="uni02C9" unicode="&#x2c9;" horiz-adv-x="301" 
d="M26 613h247v57h-247v-57z" />
    <glyph glyph-name="breve" unicode="&#x2d8;" horiz-adv-x="301" 
d="M265 715h-40c-12 -45 -34 -68 -78 -68c-36 0 -61 23 -72 68h-39c11 -76 51 -114 115 -114c59 0 100 43 114 114z" />
    <glyph glyph-name="dotaccent" unicode="&#x2d9;" horiz-adv-x="301" 
d="M110 595h80v97h-80v-97z" />
    <glyph glyph-name="ring" unicode="&#x2da;" horiz-adv-x="301" 
d="M102 659c0 17 5 31 14 43c12 13 23 18 35 18c13 0 25 -5 36 -17c8 -12 13 -27 13 -45c0 -16 -5 -31 -13 -44c-11 -12 -22 -17 -36 -17c-13 0 -23 6 -34 15c-9 14 -15 30 -15 47zM83 660c0 -25 5 -46 19 -62c12 -15 29 -23 49 -23c19 0 35 9 48 24c13 16 20 37 20 59
c0 24 -7 43 -20 58c-14 17 -29 26 -48 26s-36 -10 -48 -26c-15 -15 -20 -33 -20 -56z" />
    <glyph glyph-name="cedilla" unicode="&#xb8;" horiz-adv-x="301" 
d="M123 -4l-17 -74c53 -4 60 -20 62 -38c0 -13 -4 -26 -14 -34c-12 -9 -32 -13 -55 -13h-5c-7 0 -7 -1 -31 1c0 -5 0 -10 -1 -13v-5c0 -4 0 -8 -1 -13c0 -4 -1 -9 -1 -12c20 -4 36 -5 53 -5c39 0 68 8 87 27c18 17 26 37 26 60c0 28 -24 56 -71 66l13 53h-45z" />
    <glyph glyph-name="hungarumlaut" unicode="&#x2dd;" horiz-adv-x="301" 
d="M42 595h48c16 28 34 56 52 84v0c9 16 15 25 25 42h-80c-7 -21 -16 -45 -23 -60h1c-3 -9 -7 -22 -13 -35c-4 -12 -7 -20 -10 -31zM184 595h52c16 25 29 49 40 68c9 15 24 38 36 58h-80c-10 -28 -22 -56 -31 -81v1c-5 -13 -12 -32 -17 -46z" />
    <glyph glyph-name="ogonek" unicode="&#x2db;" horiz-adv-x="301" 
d="M144 -4h-38c-11 -46 -17 -81 -17 -106c0 -30 9 -57 24 -75c15 -19 34 -27 61 -27c22 0 56 10 86 26v44c-27 -13 -48 -19 -65 -19c-36 0 -64 33 -64 83c0 20 4 44 13 74z" />
    <glyph glyph-name="caron" unicode="&#x2c7;" horiz-adv-x="301" 
d="M157 631l-48 90h-71c22 -35 52 -81 72 -114l6 -12h77c2 4 4 8 7 11h-1c3 5 6 9 8 12c8 11 17 25 25 38c15 22 26 41 43 65h-69c-6 -10 -12 -22 -18 -33c-8 -17 -22 -43 -31 -57z" />
    <glyph glyph-name="Lslash" unicode="&#x141;" 
d="M74 286v-286h367v70h-299v290l137 141v66c-19 -21 -50 -51 -68 -69c-8 -9 -19 -20 -27 -29c-12 -12 -32 -33 -42 -44v291h-68v-361l-60 -63v-64c10 12 27 27 36 37c4 6 12 12 24 21z" />
    <glyph glyph-name="lslash" unicode="&#x142;" horiz-adv-x="208" 
d="M70 298v-298h65v358l55 58v60c-16 -16 -43 -44 -55 -57v297h-65v-362l-52 -54v-63c4 5 10 11 16 16c4 5 10 12 12 14c1 1 1 2 2 3c0 -1 -80 -118 22 28z" />
    <glyph glyph-name="Scaron" unicode="&#x160;" horiz-adv-x="577" 
d="M128 227l-66 -7c3 -47 15 -86 32 -120c42 -72 116 -112 220 -112c44 0 82 9 116 28c31 18 58 47 76 78c16 32 27 68 27 105c0 74 -30 132 -99 171c-23 13 -73 29 -134 46c-63 18 -106 36 -123 54s-25 42 -25 72c0 32 12 60 37 83c23 23 58 34 109 34
c88 0 137 -48 150 -140c10 1 23 2 30 3c2 0 4 1 6 1l30 3c-3 38 -12 76 -28 101c-36 67 -106 102 -193 102c-41 0 -77 -8 -111 -24h1c-29 -17 -56 -40 -72 -73c-16 -29 -25 -62 -25 -97c0 -64 28 -117 82 -153c21 -13 60 -28 116 -44c56 -17 91 -27 108 -36v0
c51 -26 73 -63 74 -111c3 -72 -58 -134 -155 -132c-34 0 -65 7 -93 21c-54 28 -79 74 -90 147zM290 805l-48 90h-71c22 -35 52 -81 72 -114l6 -12h77c2 4 4 8 7 11h-1c3 5 6 9 8 12c8 11 17 25 25 38c15 22 26 41 43 65h-69c-6 -10 -12 -22 -18 -33c-8 -17 -22 -43 -31 -57z
" />
    <glyph glyph-name="scaron" unicode="&#x161;" horiz-adv-x="438" 
d="M117 156l-63 -13c20 -102 75 -155 181 -155c33 0 63 7 90 20c25 15 46 34 59 60c14 26 20 51 20 79c0 29 -6 54 -15 73c-11 19 -29 35 -46 46h1c-20 8 -60 23 -111 41c-14 5 -28 9 -37 12v0c-15 5 -24 7 -29 10c-13 8 -25 17 -32 26c-7 11 -9 22 -9 38c0 21 8 39 24 53v0
c15 14 43 22 76 22c57 0 88 -30 100 -86c3 0 8 1 12 2c3 0 6 1 8 1c6 1 15 3 24 4h1c7 1 10 2 17 3c-7 32 -15 55 -25 70c-24 38 -77 64 -143 64c-44 0 -86 -15 -108 -34c-29 -26 -47 -66 -47 -111c0 -24 6 -47 14 -67c10 -20 25 -35 47 -46c21 -13 60 -28 111 -44
c38 -12 66 -22 77 -31c17 -12 25 -31 25 -54c0 -25 -9 -47 -28 -66c-16 -18 -41 -26 -76 -26c-66 0 -106 37 -118 109zM229 631l-48 90h-71c22 -35 52 -81 72 -114l6 -12h77c2 4 4 8 7 11h-1c3 5 6 9 8 12c8 11 17 25 25 38c15 22 26 41 43 65h-69c-6 -10 -12 -22 -18 -33
c-8 -17 -22 -43 -31 -57z" />
    <glyph glyph-name="Zcaron" unicode="&#x17d;" horiz-adv-x="530" 
d="M44 0h464v70h-392l46 66c47 68 94 139 141 209c30 45 60 91 90 136c36 55 71 107 106 159v76h-422v-70h347c-30 -36 -49 -63 -66 -90v1c-3 -4 -6 -8 -8 -12l-306 -467v-78zM282 805l-48 90h-71c22 -35 52 -81 72 -114l6 -12h77c2 4 4 8 7 11h-1c3 5 6 9 8 12
c8 11 17 25 25 38c15 22 26 41 43 65h-69c-6 -10 -12 -22 -18 -33c-8 -17 -22 -43 -31 -57z" />
    <glyph glyph-name="zcaron" unicode="&#x17e;" horiz-adv-x="438" 
d="M45 0h374v62h-198c-22 0 -68 -3 -106 -7l55 77c74 103 164 230 236 334v49h-348v-57h174c20 0 68 1 97 3l-284 -399v-62zM244 631l-48 90h-71c22 -35 52 -81 72 -114l6 -12h77c2 4 4 8 7 11h-1c3 5 6 9 8 12c8 11 17 25 25 38c15 22 26 41 43 65h-69
c-6 -10 -12 -22 -18 -33c-8 -17 -22 -43 -31 -57z" />
    <glyph glyph-name="brokenbar" unicode="&#xa6;" horiz-adv-x="240" 
d="M148 729h-54v-379h54v379zM148 164h-54v-379h54v379z" />
    <glyph glyph-name="Eth" unicode="&#xd0;" horiz-adv-x="622" 
d="M147 70v263h165v51h-165v262h132c42 0 74 -5 97 -13c22 -8 42 -24 59 -44c16 -22 33 -51 43 -86c9 -34 16 -83 16 -140c0 -112 -25 -193 -63 -239c-14 -17 -32 -30 -55 -40v0c-23 -9 -56 -14 -96 -14h-133zM78 0h213c36 0 67 3 85 9c33 11 67 28 94 51h-1
c26 22 49 62 68 112v0c19 52 28 119 28 190c0 127 -30 229 -92 293c-23 25 -53 41 -86 51v0c-25 6 -61 10 -107 10h-202v-332h-68v-51h68v-333z" />
    <glyph glyph-name="eth" unicode="&#xf0;" 
d="M372 255c0 -68 -14 -120 -40 -156v0c-24 -36 -58 -53 -93 -53c-36 0 -69 16 -93 50c-25 34 -38 85 -38 153c0 69 13 125 37 159c24 33 55 53 92 53c36 0 70 -19 95 -53s40 -88 40 -153zM223 716h-68c25 -24 53 -51 75 -76l-102 -57c2 -5 5 -14 8 -22s5 -10 7 -15
c20 11 48 26 67 38c16 8 28 15 42 24c17 -20 30 -40 38 -54c3 -6 8 -18 14 -33c4 -9 14 -33 19 -44c-30 19 -49 28 -58 32h1c-12 4 -25 6 -42 6c-51 0 -96 -23 -129 -70c-35 -46 -52 -110 -52 -195c0 -68 14 -127 38 -168h-1c39 -60 93 -94 159 -94c56 0 106 27 143 71
c36 46 56 112 56 192c0 126 -46 253 -136 383l72 44c-1 2 -2 4 -2 7c-2 6 -5 13 -6 16c0 2 -2 7 -4 11l-1 1v1c-16 -9 -41 -24 -58 -35v1l-4 -3c-4 -2 -7 -4 -10 -5c-3 -2 -14 -7 -14 -7c-18 19 -34 36 -52 51z" />
    <glyph glyph-name="Yacute" unicode="&#xdd;" horiz-adv-x="577" 
d="M261 0h68v306l236 410h-80c-6 -10 -12 -21 -17 -32c-17 -29 -33 -61 -48 -90v0c-2 -4 -5 -8 -7 -11c-14 -27 -29 -54 -44 -80c-20 -39 -51 -101 -69 -138c-18 42 -44 92 -66 134c-11 21 -24 42 -34 63c-28 51 -56 104 -83 154h-84c34 -60 69 -124 104 -188
c41 -73 85 -153 124 -222v-306zM256 772h50c4 6 7 12 11 19c8 11 15 23 21 32c5 7 11 16 17 25c12 18 21 32 32 50h-82c-2 -6 -6 -13 -8 -18c-3 -10 -8 -21 -10 -29c-3 -7 -7 -17 -11 -27c-6 -18 -14 -34 -20 -52z" />
    <glyph glyph-name="yacute" unicode="&#xfd;" horiz-adv-x="438" 
d="M71 -138l8 -69c15 -4 29 -8 42 -8c42 0 78 33 102 82c10 24 24 67 42 120h-1c55 178 108 350 163 528h-62c-5 -15 -10 -32 -15 -49c-8 -26 -17 -54 -24 -78s-15 -49 -22 -73c-10 -34 -21 -71 -31 -106c-11 -36 -22 -77 -31 -118h-9c-10 43 -19 80 -32 120l-90 304h-67
c30 -98 61 -200 93 -301c23 -74 48 -152 70 -223l-4 -11c0 -1 -1 -3 -2 -4v-3c-1 -2 -1 -5 -1 -7c-9 -32 -19 -57 -24 -70c-15 -24 -34 -39 -69 -39c-7 0 -19 2 -36 5zM201 595h50c4 6 7 12 11 19c8 11 15 23 21 32c5 7 11 16 17 25c12 18 21 32 32 50h-82
c-2 -6 -6 -13 -8 -18c-3 -10 -8 -21 -10 -29c-3 -7 -7 -17 -11 -27c-6 -18 -14 -34 -20 -52z" />
    <glyph glyph-name="Thorn" unicode="&#xde;" horiz-adv-x="577" 
d="M147 219v278h158c37 0 61 -3 76 -9v1c45 -13 75 -65 75 -129c0 -44 -12 -79 -32 -102c-26 -25 -64 -39 -116 -39h-161zM78 0h69v149h158c82 0 143 24 175 62c28 40 46 96 46 152c0 34 -5 68 -16 95c-23 55 -67 89 -119 102c-24 5 -54 7 -92 7h-152v149h-69v-716z" />
    <glyph glyph-name="thorn" unicode="&#xfe;" 
d="M125 253c0 72 11 125 38 163c25 37 55 55 86 55c33 0 64 -19 89 -54c20 -34 35 -88 35 -155c0 -73 -15 -127 -36 -162c-26 -34 -56 -53 -90 -53c-33 0 -62 18 -86 51c-24 34 -36 86 -36 155zM67 -204h66v268c27 -33 46 -53 57 -60c19 -10 41 -16 61 -16c31 0 66 13 95 33
c29 22 53 57 68 96c15 42 23 91 23 145c0 47 -8 95 -20 134c-30 78 -89 130 -160 130c-25 0 -48 -5 -67 -16l1 1c-10 -8 -31 -28 -58 -61v266h-66v-920z" />
    <glyph glyph-name="minus" unicode="&#x2212;" horiz-adv-x="507" 
d="M448 318v70h-388v-70h388z" />
    <glyph glyph-name="multiply" unicode="&#xd7;" horiz-adv-x="507" 
d="M83 197l41 -51c17 20 35 42 53 64c25 30 53 65 77 93l128 -156c14 18 28 33 43 51c-3 4 -7 8 -9 11c-37 44 -87 103 -122 145l129 156c-2 4 -6 8 -8 11v0c-3 3 -6 7 -8 9c-7 9 -17 21 -24 30c-14 -16 -29 -33 -44 -51c-27 -33 -59 -73 -85 -105l-130 157
c-15 -18 -26 -33 -41 -51c23 -27 46 -56 70 -86c19 -23 40 -48 59 -70z" />
    <glyph glyph-name="uni00B9" unicode="&#xb9;" horiz-adv-x="301" 
d="M151 366h51v360h-38c-15 -21 -35 -43 -50 -58c-18 -12 -39 -26 -54 -35v-45c29 13 61 34 91 62v-284z" />
    <glyph glyph-name="uni00B2" unicode="&#xb2;" horiz-adv-x="301" 
d="M27 366h243v45h-166c22 25 43 48 59 63v-1c40 35 70 67 84 85v-1c16 25 22 49 22 74c0 27 -8 48 -26 66c-19 18 -49 29 -88 29c-66 0 -100 -29 -119 -94c7 -1 19 -2 23 -2c3 -1 6 -1 10 -2c7 -1 13 -2 18 -3c8 22 15 37 23 43c9 9 26 13 44 13c40 0 61 -26 61 -61
c0 -16 -6 -34 -17 -49c-8 -10 -32 -34 -71 -68c-38 -34 -67 -68 -84 -94c-7 -11 -12 -27 -16 -43z" />
    <glyph glyph-name="uni00B3" unicode="&#xb3;" horiz-adv-x="301" 
d="M80 455l-49 -6c17 -55 55 -92 120 -92c38 0 69 11 91 33c19 22 28 46 28 74c0 40 -20 72 -68 89v14c32 15 54 42 54 73c0 24 -10 44 -25 60c-17 16 -44 26 -84 26c-31 0 -56 -8 -72 -21h1c-14 -11 -28 -34 -38 -59c13 -4 35 -9 48 -12c17 37 34 52 61 52
c38 0 54 -24 54 -53s-22 -54 -64 -59c-2 -8 -2 -14 -2 -20c-3 -2 -3 -5 -3 -9h-17c8 -11 12 -18 22 -31c1 7 3 16 6 22c54 0 74 -24 74 -62c0 -22 -6 -39 -21 -54h1c-11 -12 -30 -21 -51 -21c-18 0 -32 7 -44 16c-7 5 -15 20 -22 40z" />
    <glyph glyph-name="onehalf" unicode="&#xbd;" horiz-adv-x="713" 
d="M146 366h49v360h-35c-16 -21 -35 -42 -52 -58c-16 -13 -37 -26 -53 -36v-44c28 13 61 34 91 62v-284zM442 -15h246v45h-170l18 17l43 45c45 37 71 67 85 84h-1c15 24 23 49 23 74c0 26 -9 48 -26 66c-19 18 -46 28 -89 28c-63 0 -99 -29 -119 -94c10 -1 25 -2 34 -3h-1
c1 0 5 0 8 -1h10c6 20 16 33 23 41c12 7 26 13 44 13c41 0 61 -26 61 -63c0 -16 -6 -32 -17 -48c-8 -9 -31 -32 -70 -67c-38 -33 -67 -66 -83 -94c-8 -12 -13 -24 -19 -43zM110 -28h51c97 164 192 326 285 486c50 85 108 183 160 271h-52c-43 -74 -86 -147 -129 -221
c-24 -41 -49 -83 -72 -123c-19 -31 -38 -63 -56 -95c-63 -107 -125 -212 -187 -318z" />
    <glyph glyph-name="onequarter" unicode="&#xbc;" horiz-adv-x="713" 
d="M600 100h-116c21 28 44 60 62 84c15 20 39 53 54 73v-157zM146 366h49v360h-35c-16 -20 -35 -42 -52 -58c-16 -13 -37 -26 -53 -36v-44c28 13 61 34 91 62v-284zM120 -28h50c38 62 73 125 110 187c30 51 63 107 92 156c23 38 46 79 70 119c58 99 115 195 174 295h-52
c-8 -15 -17 -29 -25 -43c-12 -20 -23 -40 -34 -59c-21 -36 -42 -72 -64 -109c-107 -183 -212 -362 -321 -546zM600 -15h47v77h43v38h-43v244h-43c-42 -61 -87 -124 -130 -185c-11 -16 -23 -32 -34 -47v-50h160v-77z" />
    <glyph glyph-name="threequarters" unicode="&#xbe;" horiz-adv-x="713" 
d="M600 100h-114c21 31 47 66 67 92c12 17 34 47 47 65v-157zM76 455l-51 -6c17 -60 55 -92 121 -92c38 0 69 11 90 33c19 22 29 46 29 74c0 40 -20 72 -68 89v14c33 15 54 42 54 73c0 23 -8 44 -23 60c-17 16 -47 26 -85 26c-31 0 -56 -9 -73 -21c-12 -12 -26 -33 -37 -59
c13 -4 36 -9 49 -12c15 36 32 52 61 52c37 0 54 -24 54 -53s-21 -54 -63 -59v-1c-2 -4 -2 -8 -2 -9c-3 -7 -4 -13 -5 -21c0 -3 0 -3 -1 -7h11h5c50 0 69 -24 69 -62c0 -22 -5 -39 -19 -54c-11 -12 -29 -21 -50 -21c-17 0 -33 7 -45 16c-7 6 -14 20 -21 40zM120 -28h51
c49 85 99 168 148 251c46 79 93 157 138 235c18 31 37 64 56 97c35 59 69 117 102 174h-51c-28 -48 -58 -99 -87 -148c-18 -32 -38 -66 -55 -96c-55 -93 -111 -190 -169 -287c-46 -78 -87 -150 -133 -226zM600 -15h47v77h43v38h-43v244h-43c-42 -61 -86 -124 -130 -185
c-11 -16 -22 -32 -34 -47v-50h160v-77z" />
    <glyph glyph-name="franc" unicode="&#x20a3;" 
d="M83 123v-123h70v123h129v58h-129v152h232v71h-232v242h277v70h-347v-535h-69v-58h69z" />
    <glyph glyph-name="Gbreve" unicode="&#x11e;" horiz-adv-x="667" 
d="M371 287h178v-148c-20 -20 -46 -38 -79 -56c-33 -16 -68 -24 -103 -24c-38 0 -80 12 -114 33c-70 45 -112 138 -112 268c0 53 9 106 23 151c28 79 92 150 202 150c30 0 60 -8 85 -20s44 -31 60 -52c12 -21 25 -50 33 -85c19 6 39 13 54 19c3 0 6 1 8 2
c-10 49 -22 80 -42 108c-19 29 -49 54 -81 71v0c-35 17 -74 25 -117 25c-60 0 -114 -17 -158 -44h1c-41 -28 -80 -80 -104 -135c-21 -57 -36 -129 -36 -196c0 -69 13 -134 36 -190s63 -102 106 -131v0c49 -29 102 -45 161 -45c84 0 167 37 245 111v258h-246v-70zM490 886
h-40c-12 -45 -34 -68 -78 -68c-36 0 -61 23 -72 68h-39c11 -76 51 -114 115 -114c59 0 100 43 114 114z" />
    <glyph glyph-name="gbreve" unicode="&#x11f;" 
d="M119 267c0 65 13 114 35 150c24 33 55 50 88 50c36 0 65 -16 90 -51c25 -36 37 -85 37 -152c0 -72 -11 -123 -36 -157c-25 -32 -54 -48 -89 -48s-66 16 -90 50c-22 34 -35 87 -35 158zM130 -72l-61 12c3 -50 19 -90 43 -114c31 -24 77 -41 124 -41c43 0 80 9 108 28
c29 19 51 48 65 80c12 32 19 91 19 171v451h-57v-75c-46 56 -90 86 -133 86c-36 0 -72 -13 -99 -34c-27 -23 -49 -57 -64 -96c-14 -40 -21 -88 -21 -135c0 -73 16 -134 47 -185h-1c35 -50 79 -76 137 -76c41 0 82 26 127 80v-34c0 -49 -3 -84 -6 -102
c-14 -62 -51 -101 -122 -101c-32 0 -60 10 -81 28c-11 12 -20 30 -25 57zM370 715h-40c-12 -45 -34 -68 -78 -68c-36 0 -61 23 -72 68h-39c11 -76 51 -114 115 -114c59 0 100 43 114 114z" />
    <glyph glyph-name="Idotaccent" unicode="&#x130;" horiz-adv-x="255" 
d="M107 0h68v716h-68v-716zM102 772h80v97h-80v-97z" />
    <glyph glyph-name="Scedilla" unicode="&#x15e;" horiz-adv-x="577" 
d="M128 227l-66 -7c3 -47 15 -86 32 -120c42 -72 116 -112 220 -112c44 0 82 9 116 28c31 18 58 47 76 78c16 32 27 68 27 105c0 74 -30 132 -99 171c-23 13 -73 29 -134 46c-63 18 -106 36 -123 54s-25 42 -25 72c0 32 12 60 37 83c23 23 58 34 109 34
c88 0 137 -48 150 -140c10 1 23 2 30 3c2 0 4 1 6 1l30 3c-3 38 -12 76 -28 101c-36 67 -106 102 -193 102c-41 0 -77 -8 -111 -24h1c-29 -17 -56 -40 -72 -73c-16 -29 -25 -62 -25 -97c0 -64 28 -117 82 -153c21 -13 60 -28 116 -44c56 -17 91 -27 108 -36v0
c51 -26 73 -63 74 -111c3 -72 -58 -134 -155 -132c-34 0 -65 7 -93 21c-54 28 -79 74 -90 147zM271 1l-17 -74c53 -4 60 -20 62 -38c0 -13 -4 -26 -14 -34c-12 -9 -32 -13 -55 -13h-5c-7 0 -7 -1 -31 1c0 -5 0 -10 -1 -13v-5c0 -4 0 -8 -1 -13c0 -4 -1 -9 -1 -12
c20 -4 36 -5 53 -5c39 0 68 8 87 27c18 17 26 37 26 60c0 28 -24 56 -71 66l13 53h-45z" />
    <glyph glyph-name="scedilla" unicode="&#x15f;" horiz-adv-x="438" 
d="M117 156l-63 -13c20 -102 75 -155 181 -155c33 0 63 7 90 20c25 15 46 34 59 60c14 26 20 51 20 79c0 29 -6 54 -15 73c-11 19 -29 35 -46 46h1c-20 8 -60 23 -111 41c-14 5 -28 9 -37 12v0c-15 5 -24 7 -29 10c-13 8 -25 17 -32 26c-7 11 -9 22 -9 38c0 21 8 39 24 53v0
c15 14 43 22 76 22c57 0 88 -30 100 -86c3 0 8 1 12 2c3 0 6 1 8 1c6 1 15 3 24 4h1c7 1 10 2 17 3c-7 32 -15 55 -25 70c-24 38 -77 64 -143 64c-44 0 -86 -15 -108 -34c-29 -26 -47 -66 -47 -111c0 -24 6 -47 14 -67c10 -20 25 -35 47 -46c21 -13 60 -28 111 -44
c38 -12 66 -22 77 -31c17 -12 25 -31 25 -54c0 -25 -9 -47 -28 -66c-16 -18 -41 -26 -76 -26c-66 0 -106 37 -118 109zM201 6l-17 -74c53 -4 60 -20 62 -38c0 -13 -4 -26 -14 -34c-12 -9 -32 -13 -55 -13h-5c-7 0 -7 -1 -31 1c0 -5 0 -10 -1 -13v-5c0 -4 0 -8 -1 -13
c0 -4 -1 -9 -1 -12c20 -4 36 -5 53 -5c39 0 68 8 87 27c18 17 26 37 26 60c0 28 -24 56 -71 66l13 53h-45z" />
    <glyph glyph-name="Cacute" unicode="&#x106;" horiz-adv-x="622" 
d="M587 218l-69 22c-26 -123 -92 -186 -179 -186c-37 0 -73 13 -105 37c-65 48 -96 147 -96 273c0 51 8 97 19 142c12 48 35 85 66 113c35 29 75 42 123 42c78 0 132 -46 164 -151c3 1 5 1 8 2c9 3 18 5 23 7c11 3 23 7 35 10c-18 62 -45 113 -80 145c-41 34 -91 55 -150 55
c-53 0 -101 -16 -145 -43v0c-43 -29 -77 -72 -98 -127c-25 -55 -35 -120 -35 -196c0 -69 10 -134 29 -193v0c43 -109 125 -182 249 -182c59 0 113 22 156 60c37 38 68 98 85 170zM300 772h50c4 6 7 12 11 19c8 11 15 23 21 32c5 7 11 16 17 25c12 18 21 32 32 50h-82
c-2 -6 -6 -13 -8 -18c-3 -10 -8 -21 -10 -29c-3 -7 -7 -17 -11 -27c-6 -18 -14 -34 -20 -52z" />
    <glyph glyph-name="cacute" unicode="&#x107;" horiz-adv-x="438" 
d="M429 168l-62 10c-15 -90 -59 -131 -115 -131c-37 0 -69 16 -91 51v0c-24 33 -36 87 -36 159c0 73 13 126 37 160c23 33 57 51 95 51c48 0 85 -35 102 -106c4 0 9 1 13 2c9 1 16 3 22 4c4 1 9 2 14 3c4 1 10 3 13 3c-21 99 -79 152 -167 152c-36 0 -73 -11 -103 -31v0
c-58 -42 -93 -131 -93 -241c0 -82 20 -151 53 -197c36 -44 87 -69 141 -69c48 0 87 16 119 50c26 29 47 71 58 130zM204 595h50c4 6 7 12 11 19c8 11 15 23 21 32c5 7 11 16 17 25c12 18 21 32 32 50h-82c-2 -6 -6 -13 -8 -18c-3 -10 -8 -21 -10 -29c-3 -7 -7 -17 -11 -27
c-6 -18 -14 -34 -20 -52z" />
    <glyph glyph-name="Ccaron" unicode="&#x10c;" horiz-adv-x="622" 
d="M587 218l-69 22c-26 -123 -92 -186 -179 -186c-37 0 -73 13 -105 37c-65 48 -96 147 -96 273c0 51 8 97 19 142c12 48 35 85 66 113c35 29 75 42 123 42c78 0 132 -46 164 -151c3 1 5 1 8 2c9 3 18 5 23 7c11 3 23 7 35 10c-18 62 -45 113 -80 145c-41 34 -91 55 -150 55
c-53 0 -101 -16 -145 -43v0c-43 -29 -77 -72 -98 -127c-25 -55 -35 -120 -35 -196c0 -69 10 -134 29 -193v0c43 -109 125 -182 249 -182c59 0 113 22 156 60c37 38 68 98 85 170zM344 805l-48 90h-71c22 -35 52 -81 72 -114l6 -12h77c2 4 4 8 7 11h-1c3 5 6 9 8 12
c8 11 17 25 25 38c15 22 26 41 43 65h-69c-6 -10 -12 -22 -18 -33c-8 -17 -22 -43 -31 -57z" />
    <glyph glyph-name="ccaron" unicode="&#x10d;" horiz-adv-x="438" 
d="M429 168l-62 10c-15 -90 -59 -131 -115 -131c-37 0 -69 16 -91 51v0c-24 33 -36 87 -36 159c0 73 13 126 37 160c23 33 57 51 95 51c48 0 85 -35 102 -106c4 0 9 1 13 2c9 1 16 3 22 4c4 1 9 2 14 3c4 1 10 3 13 3c-21 99 -79 152 -167 152c-36 0 -73 -11 -103 -31v0
c-58 -42 -93 -131 -93 -241c0 -82 20 -151 53 -197c36 -44 87 -69 141 -69c48 0 87 16 119 50c26 29 47 71 58 130zM251 631l-48 90h-71c22 -35 52 -81 72 -114l6 -12h77c2 4 4 8 7 11h-1c3 5 6 9 8 12c8 11 17 25 25 38c15 22 26 41 43 65h-69c-6 -10 -12 -22 -18 -33
c-8 -17 -22 -43 -31 -57z" />
    <glyph glyph-name="dcroat" unicode="&#x111;" 
d="M108 256c0 70 11 125 34 161c23 32 51 50 87 50c35 0 64 -17 87 -52v0c25 -37 37 -91 37 -165c0 -66 -13 -119 -36 -153s-51 -50 -86 -50c-31 0 -63 18 -86 52c-25 35 -37 88 -37 157zM347 608v-168c-38 53 -82 86 -125 86c-36 0 -68 -11 -97 -33
c-28 -22 -48 -55 -63 -96v0c-13 -43 -20 -88 -20 -141c0 -50 8 -100 24 -139c15 -39 37 -73 65 -95c29 -22 60 -34 94 -34c43 0 87 31 128 93v-81h57v608h59v51h-59v57h-63v-57h-141v-51h141z" />
    <glyph glyph-name="macron" unicode="&#xaf;" horiz-adv-x="482" 
d="M0 782h482v49h-482v-49z" />
    <glyph glyph-name="middot" horiz-adv-x="301" 
d="M218 317h73v88h-73v-88z" />
    <glyph glyph-name="Abreve" unicode="&#x102;" horiz-adv-x="577" 
d="M185 285l70 226c10 39 22 91 31 140h11c10 -43 26 -96 42 -152c17 -54 34 -110 51 -163c4 -15 11 -36 16 -51h-221zM27 0h72c6 20 13 40 19 61s13 43 20 64c6 23 14 50 21 75c2 6 5 16 7 22h261l68 -222h81c-8 25 -16 49 -25 74c-56 165 -115 334 -168 496h-1
c-11 35 -24 73 -36 109c-5 13 -9 24 -13 37h-79c-12 -37 -24 -74 -36 -112c-32 -101 -65 -204 -95 -300s-65 -205 -96 -304zM413 886h-40c-12 -45 -34 -68 -78 -68c-36 0 -61 23 -72 68h-39c11 -76 51 -114 115 -114c59 0 100 43 114 114z" />
    <glyph glyph-name="abreve" unicode="&#x103;" 
d="M360 270v-45c0 -39 -4 -71 -12 -94c-23 -54 -70 -89 -129 -89c-62 0 -93 39 -93 92c0 18 1 33 11 48c7 12 16 25 32 31h-1c14 7 35 13 67 19c46 8 88 20 125 38zM356 61l11 -4c1 -21 5 -40 12 -57h64c-7 21 -11 39 -13 55c-3 23 -5 77 -5 159v120c0 40 0 65 -4 81
c-3 22 -11 43 -21 59v-1c-21 30 -67 53 -139 53c-37 0 -70 -7 -97 -18c-47 -23 -79 -67 -93 -130c8 -2 20 -3 26 -4c7 -1 20 -3 31 -5c4 -1 2 0 5 -1c8 37 21 61 37 76c19 16 46 23 80 23c37 0 68 -11 88 -31c15 -17 23 -45 23 -84v-7c0 -3 -1 -6 -1 -9v-13
c-35 -15 -79 -24 -136 -34c-28 -4 -51 -7 -66 -13c-55 -16 -101 -68 -101 -144c0 -41 14 -76 37 -104c25 -24 62 -40 106 -40c28 0 56 6 81 16c23 12 51 32 75 57zM377 715h-40c-12 -45 -34 -68 -78 -68c-36 0 -61 23 -72 68h-39c11 -76 51 -114 115 -114
c59 0 100 43 114 114z" />
    <glyph glyph-name="Aogonek" unicode="&#x104;" horiz-adv-x="577" 
d="M185 285l70 226c10 39 22 91 31 140h11c10 -43 26 -96 42 -152c17 -54 34 -110 51 -163c4 -15 11 -36 16 -51h-221zM27 0h72c6 20 13 40 19 61s13 43 20 64c6 23 14 50 21 75c2 6 5 16 7 22h261l68 -222h81c-8 25 -16 49 -25 74c-56 165 -115 334 -168 496h-1
c-11 35 -24 73 -36 109c-5 13 -9 24 -13 37h-79c-12 -37 -24 -74 -36 -112c-32 -101 -65 -204 -95 -300s-65 -205 -96 -304zM531 1h-38c-11 -46 -17 -81 -17 -106c0 -30 9 -57 24 -75c15 -19 34 -27 61 -27c22 0 56 10 86 26v44c-27 -13 -48 -19 -65 -19
c-36 0 -64 33 -64 83c0 20 4 44 13 74z" />
    <glyph glyph-name="aogonek" unicode="&#x105;" 
d="M360 270v-45c0 -39 -4 -71 -12 -94c-23 -54 -70 -89 -129 -89c-62 0 -93 39 -93 92c0 18 1 33 11 48c7 12 16 25 32 31h-1c14 7 35 13 67 19c46 8 88 20 125 38zM356 61l11 -4c1 -21 5 -40 12 -57h64c-7 21 -11 39 -13 55c-3 23 -5 77 -5 159v120c0 40 0 65 -4 81
c-3 22 -11 43 -21 59v-1c-21 30 -67 53 -139 53c-37 0 -70 -7 -97 -18c-47 -23 -79 -67 -93 -130c8 -2 20 -3 26 -4c7 -1 20 -3 31 -5c4 -1 2 0 5 -1c8 37 21 61 37 76c19 16 46 23 80 23c37 0 68 -11 88 -31c15 -17 23 -45 23 -84v-7c0 -3 -1 -6 -1 -9v-13
c-35 -15 -79 -24 -136 -34c-28 -4 -51 -7 -66 -13c-55 -16 -101 -68 -101 -144c0 -41 14 -76 37 -104c25 -24 62 -40 106 -40c28 0 56 6 81 16c23 12 51 32 75 57zM417 8h-38c-11 -46 -17 -81 -17 -106c0 -30 9 -57 24 -75c15 -19 34 -27 61 -27c22 0 56 10 86 26v44
c-27 -13 -48 -19 -65 -19c-36 0 -64 33 -64 83c0 20 4 44 13 74z" />
    <glyph glyph-name="Dcaron" unicode="&#x10e;" horiz-adv-x="622" 
d="M159 70v576h131c49 0 84 -6 106 -16c30 -14 56 -44 77 -86c22 -43 33 -105 33 -181c0 -112 -25 -192 -63 -239c-12 -17 -34 -30 -54 -40c-24 -9 -57 -14 -97 -14h-133zM90 0h212c71 0 128 17 166 47c55 49 109 152 109 315c0 123 -35 228 -92 293c-22 21 -54 41 -86 51h1
c-25 6 -62 10 -109 10h-201v-716zM267 805l-48 90h-71c22 -35 52 -81 72 -114l6 -12h77c2 4 4 8 7 11h-1c3 5 6 9 8 12c8 11 17 25 25 38c15 22 26 41 43 65h-69c-6 -10 -12 -22 -18 -33c-8 -17 -22 -43 -31 -57z" />
    <glyph glyph-name="dcaron" unicode="&#x10f;" horiz-adv-x="533" 
d="M457 639h37c-2 -54 -16 -87 -38 -107c0 -1 1 -2 1 -3s0 -1 2 -5c1 -2 3 -6 5 -9s2 -2 3 -4c38 25 55 63 55 120v85h-65v-77zM106 256c0 71 12 125 33 160c25 33 55 51 89 51c33 0 65 -19 89 -52c23 -38 35 -94 35 -165c0 -67 -12 -119 -35 -153c-23 -33 -53 -50 -85 -50
s-64 18 -88 52c-25 35 -38 87 -38 157zM352 0h58v716h-64v-276c-37 53 -81 86 -124 86c-36 0 -68 -11 -96 -33c-29 -22 -49 -55 -64 -96v0c-14 -43 -20 -88 -20 -141c0 -51 7 -100 22 -139c16 -39 41 -73 67 -95c28 -22 60 -34 93 -34c44 0 88 32 128 93v-81z" />
    <glyph glyph-name="Dcroat" unicode="&#x110;" horiz-adv-x="622" 
d="M147 70v263h165v51h-165v262h132c42 0 74 -5 97 -13c22 -8 42 -24 59 -44c16 -22 33 -51 43 -86c9 -34 16 -83 16 -140c0 -112 -25 -193 -63 -239c-14 -17 -32 -30 -55 -40v0c-23 -9 -56 -14 -96 -14h-133zM78 0h213c36 0 67 3 85 9c33 11 67 28 94 51h-1
c26 22 49 62 68 112v0c19 52 28 119 28 190c0 127 -30 229 -92 293c-23 25 -53 41 -86 51v0c-25 6 -61 10 -107 10h-202v-332h-68v-51h68v-333z" />
    <glyph glyph-name="Eogonek" unicode="&#x118;" horiz-adv-x="577" 
d="M93 0h438v70h-370v266h333v70h-333v240h356v70h-424v-716zM412 -4h-38c-11 -46 -17 -81 -17 -106c0 -30 9 -57 24 -75c15 -19 34 -27 61 -27c22 0 56 10 86 26v44c-27 -13 -48 -19 -65 -19c-36 0 -64 33 -64 83c0 20 4 44 13 74z" />
    <glyph glyph-name="eogonek" unicode="&#x119;" 
d="M383 301h-258c6 57 20 97 43 124v0c23 29 52 43 89 43c38 0 71 -18 94 -53c15 -24 26 -62 32 -114zM444 145l-66 10c-25 -77 -64 -108 -117 -108c-37 0 -70 17 -94 48c-23 29 -41 86 -44 147h327v15c0 87 -18 153 -55 200c-36 45 -81 69 -138 69c-60 0 -109 -24 -145 -71
c-37 -47 -55 -115 -55 -203c0 -79 22 -148 54 -194c36 -42 89 -70 150 -70c91 0 155 56 183 157zM284 -4h-38c-11 -46 -17 -81 -17 -106c0 -30 9 -57 24 -75c15 -19 34 -27 61 -27c22 0 56 10 86 26v44c-27 -13 -48 -19 -65 -19c-36 0 -64 33 -64 83c0 20 4 44 13 74z" />
    <glyph glyph-name="Ecaron" unicode="&#x11a;" horiz-adv-x="577" 
d="M93 0h438v70h-370v266h333v70h-333v240h356v70h-424v-716zM294 805l-48 90h-71c22 -35 52 -81 72 -114l6 -12h77c2 4 4 8 7 11h-1c3 5 6 9 8 12c8 11 17 25 25 38c15 22 26 41 43 65h-69c-6 -10 -12 -22 -18 -33c-8 -17 -22 -43 -31 -57z" />
    <glyph glyph-name="ecaron" unicode="&#x11b;" 
d="M383 301h-258c6 57 20 97 43 124v0c23 29 52 43 89 43c38 0 71 -18 94 -53c15 -24 26 -62 32 -114zM444 145l-66 10c-25 -77 -64 -108 -117 -108c-37 0 -70 17 -94 48c-23 29 -41 86 -44 147h327v15c0 87 -18 153 -55 200c-36 45 -81 69 -138 69c-60 0 -109 -24 -145 -71
c-37 -47 -55 -115 -55 -203c0 -79 22 -148 54 -194c36 -42 89 -70 150 -70c91 0 155 56 183 157zM260 631l-48 90h-71c22 -35 52 -81 72 -114l6 -12h77c2 4 4 8 7 11h-1c3 5 6 9 8 12c8 11 17 25 25 38c15 22 26 41 43 65h-69c-6 -10 -12 -22 -18 -33
c-8 -17 -22 -43 -31 -57z" />
    <glyph glyph-name="Lacute" unicode="&#x139;" 
d="M87 0h367v70h-297v646h-70v-716zM155 772h50c4 6 7 12 11 19c8 11 15 23 21 32c5 7 11 16 17 25c12 18 21 32 32 50h-82c-2 -6 -6 -13 -8 -18c-3 -10 -8 -21 -10 -29c-3 -7 -7 -17 -11 -27c-6 -18 -14 -34 -20 -52z" />
    <glyph glyph-name="lacute" unicode="&#x13a;" horiz-adv-x="208" 
d="M82 0h64v716h-64v-716zM60 764h50c4 6 7 12 11 19c8 11 15 23 21 32c5 7 11 16 17 25c12 18 21 32 32 50h-82c-2 -6 -6 -13 -8 -18c-3 -10 -8 -21 -10 -29c-3 -7 -7 -17 -11 -27c-6 -18 -14 -34 -20 -52z" />
    <glyph glyph-name="Lcaron" unicode="&#x13d;" 
d="M305 630h42c-2 -61 -15 -97 -43 -117c3 -8 9 -20 13 -27c43 29 63 72 63 136v94h-75v-86zM74 0h367v70h-297v646h-70v-716z" />
    <glyph glyph-name="lcaron" unicode="&#x13e;" horiz-adv-x="267" 
d="M186 639h36c-2 -53 -14 -87 -38 -107c4 -6 5 -8 6 -11c0 -2 0 -2 5 -10c38 25 55 63 55 120v85h-64v-77zM71 0h64v716h-64v-716z" />
    <glyph glyph-name="Ldot" unicode="&#x13f;" 
d="M87 0h367v70h-297v646h-70v-716zM323 317h73v88h-73v-88z" />
    <glyph glyph-name="ldot" unicode="&#x140;" horiz-adv-x="301" 
d="M82 0h64v716h-64v-716zM220 317h73v88h-73v-88z" />
    <glyph glyph-name="Nacute" unicode="&#x143;" horiz-adv-x="622" 
d="M89 0h65v572l8 2l319 -574h73v716h-66v-572l-8 -2l-318 574h-73v-716zM264 772h50c4 6 7 12 11 19c8 11 15 23 21 32c5 7 11 16 17 25c12 18 21 32 32 50h-82c-2 -6 -6 -13 -8 -18c-3 -10 -8 -21 -10 -29c-3 -7 -7 -17 -11 -27c-6 -18 -14 -34 -20 -52z" />
    <glyph glyph-name="nacute" unicode="&#x144;" 
d="M81 0h65v282c0 70 12 118 35 144c23 23 54 38 86 38c19 0 38 -6 55 -18c14 -9 26 -27 32 -48c4 -18 8 -47 8 -84v-314h65v318c0 42 -2 72 -5 86c-3 24 -10 45 -21 62v0c-10 17 -27 32 -49 43c-21 12 -44 17 -70 17c-52 0 -98 -32 -144 -102v91h-57v-515zM214 595h50
c4 6 7 12 11 19c8 11 15 23 21 32c5 7 11 16 17 25c12 18 21 32 32 50h-82c-2 -6 -6 -13 -8 -18c-3 -10 -8 -21 -10 -29c-3 -7 -7 -17 -11 -27c-6 -18 -14 -34 -20 -52z" />
    <glyph glyph-name="Ncaron" unicode="&#x147;" horiz-adv-x="622" 
d="M89 0h65v572l8 2l319 -574h73v716h-66v-572l-8 -2l-318 574h-73v-716zM320 808l-48 90h-71c22 -35 52 -81 72 -114l6 -12h77c2 4 4 8 7 11h-1c3 5 6 9 8 12c8 11 17 25 25 38c15 22 26 41 43 65h-69c-6 -10 -12 -22 -18 -33c-8 -17 -22 -43 -31 -57z" />
    <glyph glyph-name="ncaron" unicode="&#x148;" 
d="M81 0h65v282c0 70 12 118 35 144c23 23 54 38 86 38c19 0 38 -6 55 -18c14 -9 26 -27 32 -48c4 -18 8 -47 8 -84v-314h65v318c0 42 -2 72 -5 86c-3 24 -10 45 -21 62v0c-10 17 -27 32 -49 43c-21 12 -44 17 -70 17c-52 0 -98 -32 -144 -102v91h-57v-515zM261 631l-48 90
h-71c22 -35 52 -81 72 -114l6 -12h77c2 4 4 8 7 11h-1c3 5 6 9 8 12c8 11 17 25 25 38c15 22 26 41 43 65h-69c-6 -10 -12 -22 -18 -33c-8 -17 -22 -43 -31 -57z" />
    <glyph glyph-name="Ohungarumlaut" unicode="&#x150;" horiz-adv-x="667" 
d="M137 347c0 109 24 193 63 242c40 46 92 72 148 72c40 0 78 -12 112 -37c65 -51 99 -144 99 -266c0 -94 -22 -172 -59 -224c-40 -52 -92 -80 -153 -80c-59 0 -109 27 -151 79c-39 53 -59 123 -59 214zM64 349c0 -64 11 -123 34 -180c22 -53 59 -100 100 -132
c42 -31 95 -49 149 -49c49 0 103 16 145 44c43 29 81 76 103 131c24 56 36 122 36 194s-12 139 -34 192c-22 55 -55 101 -100 133c-44 31 -93 47 -149 47c-85 0 -151 -34 -204 -101c-52 -66 -80 -161 -80 -279zM223 772h48c16 28 34 56 52 84v0c9 16 15 25 25 42h-80
c-7 -21 -16 -45 -23 -60h1c-3 -9 -7 -22 -13 -35c-4 -12 -7 -20 -10 -31zM365 772h52c16 25 29 49 40 68c9 15 24 38 36 58h-80c-10 -28 -22 -56 -31 -81v1c-5 -13 -12 -32 -17 -46z" />
    <glyph glyph-name="ohungarumlaut" unicode="&#x151;" 
d="M126 256c0 72 13 124 36 159c29 36 58 52 98 52c39 0 68 -16 95 -52c25 -35 38 -87 38 -154c0 -73 -13 -127 -38 -161c-25 -35 -57 -53 -95 -53c-40 0 -68 16 -98 52c-23 34 -36 87 -36 157zM59 256c0 -80 24 -153 55 -198c37 -43 88 -70 146 -70c38 0 71 11 103 32v0
c30 20 55 49 69 87c18 39 28 92 28 158c0 82 -20 146 -57 192c-36 45 -84 69 -143 69c-52 0 -100 -20 -134 -58c-43 -45 -67 -115 -67 -212zM146 595h48c16 28 34 56 52 84v0c9 16 15 25 25 42h-80c-7 -21 -16 -45 -23 -60h1c-3 -9 -7 -22 -13 -35c-4 -12 -7 -20 -10 -31z
M288 595h52c16 25 29 49 40 68c9 15 24 38 36 58h-80c-10 -28 -22 -56 -31 -81v1c-5 -13 -12 -32 -17 -46z" />
    <glyph glyph-name="Racute" unicode="&#x154;" horiz-adv-x="622" 
d="M159 393v258h197c46 0 80 -13 101 -35c21 -23 33 -55 33 -92c0 -25 -5 -48 -17 -71c-22 -41 -62 -60 -135 -60h-179zM90 0h69v325h98c22 0 37 -2 48 -4c37 -12 72 -52 135 -173c26 -49 52 -98 78 -148h88c-16 29 -37 69 -50 98v-1c-9 16 -19 33 -27 50
c-7 14 -15 26 -21 39c-21 38 -42 68 -66 97h1c-11 9 -32 26 -66 47c74 15 121 38 146 68c27 35 39 78 39 126c0 39 -7 75 -24 105c-16 34 -36 56 -63 67c-28 13 -68 20 -123 20h-262v-716zM235 772h50c4 6 7 12 11 19c8 11 15 23 21 32c5 7 11 16 17 25c12 18 21 32 32 50
h-82c-2 -6 -6 -13 -8 -18c-3 -10 -8 -21 -10 -29c-3 -7 -7 -17 -11 -27c-6 -18 -14 -34 -20 -52z" />
    <glyph glyph-name="racute" unicode="&#x155;" horiz-adv-x="301" 
d="M81 0h64v270c0 37 5 76 13 106c13 45 42 73 77 73c15 0 31 -4 51 -16v0c4 9 9 22 10 30c3 10 9 26 11 38c-25 18 -47 25 -68 25c-18 0 -33 -6 -47 -16c-12 -11 -28 -34 -44 -72l-9 2v75h-58v-515zM131 595h50c4 6 7 12 11 19c8 11 15 23 21 32c5 7 11 16 17 25
c12 18 21 32 32 50h-82c-2 -6 -6 -13 -8 -18c-3 -10 -8 -21 -10 -29c-3 -7 -7 -17 -11 -27c-6 -18 -14 -34 -20 -52z" />
    <glyph glyph-name="Rcaron" unicode="&#x158;" horiz-adv-x="622" 
d="M159 393v258h197c46 0 80 -13 101 -35c21 -23 33 -55 33 -92c0 -25 -5 -48 -17 -71c-22 -41 -62 -60 -135 -60h-179zM90 0h69v325h98c22 0 37 -2 48 -4c37 -12 72 -52 135 -173c26 -49 52 -98 78 -148h88c-16 29 -37 69 -50 98v-1c-9 16 -19 33 -27 50
c-7 14 -15 26 -21 39c-21 38 -42 68 -66 97h1c-11 9 -32 26 -66 47c74 15 121 38 146 68c27 35 39 78 39 126c0 39 -7 75 -24 105c-16 34 -36 56 -63 67c-28 13 -68 20 -123 20h-262v-716zM287 805l-48 90h-71c22 -35 52 -81 72 -114l6 -12h77c2 4 4 8 7 11h-1c3 5 6 9 8 12
c8 11 17 25 25 38c15 22 26 41 43 65h-69c-6 -10 -12 -22 -18 -33c-8 -17 -22 -43 -31 -57z" />
    <glyph glyph-name="rcaron" unicode="&#x159;" horiz-adv-x="301" 
d="M81 0h64v270c0 37 5 76 13 106c13 45 42 73 77 73c15 0 31 -4 51 -16v0c4 9 9 22 10 30c3 10 9 26 11 38c-25 18 -47 25 -68 25c-18 0 -33 -6 -47 -16c-12 -11 -28 -34 -44 -72l-9 2v75h-58v-515zM178 631l-48 90h-71c22 -35 52 -81 72 -114l6 -12h77c2 4 4 8 7 11h-1
c3 5 6 9 8 12c8 11 17 25 25 38c15 22 26 41 43 65h-69c-6 -10 -12 -22 -18 -33c-8 -17 -22 -43 -31 -57z" />
    <glyph glyph-name="Sacute" unicode="&#x15a;" horiz-adv-x="577" 
d="M128 227l-66 -7c3 -47 15 -86 32 -120c42 -72 116 -112 220 -112c44 0 82 9 116 28c31 18 58 47 76 78c16 32 27 68 27 105c0 74 -30 132 -99 171c-23 13 -73 29 -134 46c-63 18 -106 36 -123 54s-25 42 -25 72c0 32 12 60 37 83c23 23 58 34 109 34
c88 0 137 -48 150 -140c10 1 23 2 30 3c2 0 4 1 6 1l30 3c-3 38 -12 76 -28 101c-36 67 -106 102 -193 102c-41 0 -77 -8 -111 -24h1c-29 -17 -56 -40 -72 -73c-16 -29 -25 -62 -25 -97c0 -64 28 -117 82 -153c21 -13 60 -28 116 -44c56 -17 91 -27 108 -36v0
c51 -26 73 -63 74 -111c3 -72 -58 -134 -155 -132c-34 0 -65 7 -93 21c-54 28 -79 74 -90 147zM231 772h50c4 6 7 12 11 19c8 11 15 23 21 32c5 7 11 16 17 25c12 18 21 32 32 50h-82c-2 -6 -6 -13 -8 -18c-3 -10 -8 -21 -10 -29c-3 -7 -7 -17 -11 -27
c-6 -18 -14 -34 -20 -52z" />
    <glyph glyph-name="sacute" unicode="&#x15b;" horiz-adv-x="438" 
d="M117 156l-63 -13c20 -102 75 -155 181 -155c33 0 63 7 90 20c25 15 46 34 59 60c14 26 20 51 20 79c0 29 -6 54 -15 73c-11 19 -29 35 -46 46h1c-20 8 -60 23 -111 41c-14 5 -28 9 -37 12v0c-15 5 -24 7 -29 10c-13 8 -25 17 -32 26c-7 11 -9 22 -9 38c0 21 8 39 24 53v0
c15 14 43 22 76 22c57 0 88 -30 100 -86c3 0 8 1 12 2c3 0 6 1 8 1c6 1 15 3 24 4h1c7 1 10 2 17 3c-7 32 -15 55 -25 70c-24 38 -77 64 -143 64c-44 0 -86 -15 -108 -34c-29 -26 -47 -66 -47 -111c0 -24 6 -47 14 -67c10 -20 25 -35 47 -46c21 -13 60 -28 111 -44
c38 -12 66 -22 77 -31c17 -12 25 -31 25 -54c0 -25 -9 -47 -28 -66c-16 -18 -41 -26 -76 -26c-66 0 -106 37 -118 109zM193 595h50c4 6 7 12 11 19c8 11 15 23 21 32c5 7 11 16 17 25c12 18 21 32 32 50h-82c-2 -6 -6 -13 -8 -18c-3 -10 -8 -21 -10 -29
c-3 -7 -7 -17 -11 -27c-6 -18 -14 -34 -20 -52z" />
    <glyph glyph-name="Tcommaaccent" unicode="&#x162;" horiz-adv-x="530" 
d="M227 -164h44c-2 -30 -8 -51 -12 -63c-6 -12 -18 -24 -32 -36c0 -1 1 -3 2 -5s1 -4 2 -5l9 -16c39 29 62 69 62 118v95h-75v-88zM230 0h71v646h199v70h-468v-70h198v-646z" />
    <glyph glyph-name="tcommaaccent" unicode="&#x163;" horiz-adv-x="255" 
d="M128 -152h39c-3 -42 -19 -73 -40 -91c0 -1 1 -3 2 -4c1 -2 2 -4 3 -5c2 -2 6 -8 9 -12c38 27 53 65 53 104v84h-66v-76zM232 -1l-8 64c-13 -1 -22 -2 -28 -2c-12 0 -23 4 -29 8c-7 5 -11 12 -16 23c-2 8 -3 24 -3 51v317h75v55h-75v180h-1c-12 -9 -29 -23 -36 -27
c-6 -3 -12 -7 -17 -11c-4 -3 -7 -6 -10 -8v-134h-53v-55h53v-313c0 -53 4 -87 9 -103c11 -30 37 -51 90 -51c11 0 29 2 49 6z" />
    <glyph glyph-name="Tcaron" unicode="&#x164;" horiz-adv-x="530" 
d="M243 0h71v646h199v70h-468v-70h198v-646zM279 805l-48 90h-71c22 -35 52 -81 72 -114l6 -12h77c2 4 4 8 7 11h-1c3 5 6 9 8 12c8 11 17 25 25 38c15 22 26 41 43 65h-69c-6 -10 -12 -22 -18 -33c-8 -17 -22 -43 -31 -57z" />
    <glyph glyph-name="tcaron" unicode="&#x165;" horiz-adv-x="335" 
d="M254 639h37c-1 -55 -15 -87 -39 -107c0 -1 0 -1 1 -2c1 -2 3 -5 4 -6c2 -2 4 -4 5 -7l3 -6c38 25 54 63 54 120v85h-65v-77zM232 -1l-11 64c-13 -1 -21 -2 -27 -2c-12 0 -22 4 -29 8c-5 5 -9 11 -15 22c-2 8 -4 24 -4 52v317h75v55h-75v179c-12 -9 -29 -22 -37 -26v0
c-4 -2 -8 -5 -13 -9s-9 -7 -14 -10v-134h-53v-55h53v-313c0 -53 4 -87 10 -103c10 -30 37 -51 90 -51c12 0 30 2 50 6z" />
    <glyph glyph-name="Uring" unicode="&#x16e;" horiz-adv-x="622" 
d="M485 716v-413c0 -95 -13 -159 -39 -193c-27 -34 -69 -51 -128 -51c-37 0 -66 9 -91 25c-25 17 -41 43 -53 77c-8 28 -15 78 -15 142v413h-67v-415c0 -76 7 -137 22 -180v1c31 -82 102 -134 210 -134c58 0 105 12 139 38c33 27 59 60 71 103c14 43 22 100 22 172v415h-71z
M274 814c0 17 5 31 14 43c12 13 23 18 35 18c13 0 25 -5 36 -17c8 -12 13 -27 13 -45c0 -16 -5 -31 -13 -44c-11 -12 -22 -17 -36 -17c-13 0 -23 6 -34 15c-9 14 -15 30 -15 47zM255 815c0 -25 5 -46 19 -62c12 -15 29 -23 49 -23c19 0 35 9 48 24c13 16 20 37 20 59
c0 24 -7 43 -20 58c-14 17 -29 26 -48 26s-36 -10 -48 -26c-15 -15 -20 -33 -20 -56z" />
    <glyph glyph-name="uring" unicode="&#x16f;" 
d="M368 0h57v515h-65v-276c0 -45 -4 -82 -14 -109c-8 -24 -22 -45 -42 -59c-21 -14 -41 -21 -65 -21c-46 0 -81 30 -91 81c-2 17 -4 50 -4 98v286h-65v-321c0 -37 2 -66 5 -83v0c4 -25 12 -45 23 -64c9 -15 28 -31 47 -42c21 -10 46 -17 71 -17c49 0 97 35 143 105v-93z
M204 659c0 17 5 31 14 43c12 13 23 18 35 18c13 0 25 -5 36 -17c8 -12 13 -27 13 -45c0 -16 -5 -31 -13 -44c-11 -12 -22 -17 -36 -17c-13 0 -23 6 -34 15c-9 14 -15 30 -15 47zM185 660c0 -25 5 -46 19 -62c12 -15 29 -23 49 -23c19 0 35 9 48 24c13 16 20 37 20 59
c0 24 -7 43 -20 58c-14 17 -29 26 -48 26s-36 -10 -48 -26c-15 -15 -20 -33 -20 -56z" />
    <glyph glyph-name="Uhungarumlaut" unicode="&#x170;" horiz-adv-x="622" 
d="M485 716v-413c0 -95 -13 -159 -39 -193c-27 -34 -69 -51 -128 -51c-37 0 -66 9 -91 25c-25 17 -41 43 -53 77c-8 28 -15 78 -15 142v413h-67v-415c0 -76 7 -137 22 -180v1c31 -82 102 -134 210 -134c58 0 105 12 139 38c33 27 59 60 71 103c14 43 22 100 22 172v415h-71z
M218 772h48c16 28 34 56 52 84v0c9 16 15 25 25 42h-80c-7 -21 -16 -45 -23 -60h1c-3 -9 -7 -22 -13 -35c-4 -12 -7 -20 -10 -31zM360 772h52c16 25 29 49 40 68c9 15 24 38 36 58h-80c-10 -28 -22 -56 -31 -81v1c-5 -13 -12 -32 -17 -46z" />
    <glyph glyph-name="uhungarumlaut" unicode="&#x171;" 
d="M368 0h57v515h-65v-276c0 -45 -4 -82 -14 -109c-8 -24 -22 -45 -42 -59c-21 -14 -41 -21 -65 -21c-46 0 -81 30 -91 81c-2 17 -4 50 -4 98v286h-65v-321c0 -37 2 -66 5 -83v0c4 -25 12 -45 23 -64c9 -15 28 -31 47 -42c21 -10 46 -17 71 -17c49 0 97 35 143 105v-93z
M126 595h48c16 28 34 56 52 84v0c9 16 15 25 25 42h-80c-7 -21 -16 -45 -23 -60h1c-3 -9 -7 -22 -13 -35c-4 -12 -7 -20 -10 -31zM268 595h52c16 25 29 49 40 68c9 15 24 38 36 58h-80c-10 -28 -22 -56 -31 -81v1c-5 -13 -12 -32 -17 -46z" />
    <glyph glyph-name="Zacute" unicode="&#x179;" horiz-adv-x="530" 
d="M44 0h464v70h-392l46 66c47 68 94 139 141 209c30 45 60 91 90 136c36 55 71 107 106 159v76h-422v-70h347c-30 -36 -49 -63 -66 -90v1c-3 -4 -6 -8 -8 -12l-306 -467v-78zM224 772h50c4 6 7 12 11 19c8 11 15 23 21 32c5 7 11 16 17 25c12 18 21 32 32 50h-82
c-2 -6 -6 -13 -8 -18c-3 -10 -8 -21 -10 -29c-3 -7 -7 -17 -11 -27c-6 -18 -14 -34 -20 -52z" />
    <glyph glyph-name="zacute" unicode="&#x17a;" horiz-adv-x="438" 
d="M45 0h374v62h-198c-22 0 -68 -3 -106 -7l55 77c74 103 164 230 236 334v49h-348v-57h174c20 0 68 1 97 3l-284 -399v-62zM191 595h50c4 6 7 12 11 19c8 11 15 23 21 32c5 7 11 16 17 25c12 18 21 32 32 50h-82c-2 -6 -6 -13 -8 -18c-3 -10 -8 -21 -10 -29
c-3 -7 -7 -17 -11 -27c-6 -18 -14 -34 -20 -52z" />
    <glyph glyph-name="Zdotaccent" unicode="&#x17b;" horiz-adv-x="530" 
d="M44 0h464v70h-392l46 66c47 68 94 139 141 209c30 45 60 91 90 136c36 55 71 107 106 159v76h-422v-70h347c-30 -36 -49 -63 -66 -90v1c-3 -4 -6 -8 -8 -12l-306 -467v-78zM246 772h80v97h-80v-97z" />
    <glyph glyph-name="zdotaccent" unicode="&#x17c;" horiz-adv-x="438" 
d="M45 0h374v62h-198c-22 0 -68 -3 -106 -7l55 77c74 103 164 230 236 334v49h-348v-57h174c20 0 68 1 97 3l-284 -399v-62zM191 595h80v97h-80v-97z" />
    <glyph glyph-name="Gamma" unicode="&#x393;" horiz-adv-x="480" 
d="M80 716v-716h69v646h298v70h-367z" />
    <glyph glyph-name="Theta" unicode="&#x398;" horiz-adv-x="667" 
d="M220 322h227v71h-227v-71zM123 347c0 109 20 188 60 239c42 50 92 75 151 75c62 0 113 -27 153 -79c37 -55 59 -128 59 -224c0 -95 -21 -170 -59 -223c-40 -54 -91 -81 -154 -81c-65 0 -115 28 -153 82c-39 55 -57 127 -57 211zM51 349c0 -57 9 -114 29 -169v1
c20 -54 54 -105 95 -139c46 -35 100 -54 159 -54c83 0 151 33 205 101c52 67 78 158 78 268c0 111 -25 202 -78 269c-53 68 -122 103 -205 103c-84 0 -151 -34 -205 -101c-52 -66 -78 -161 -78 -279z" />
    <glyph glyph-name="Phi" unicode="&#x3a6;" horiz-adv-x="683" 
d="M307 580v-434c-57 4 -104 24 -135 57c-36 38 -54 90 -54 159c0 136 69 210 189 218zM376 146v433c63 -3 114 -25 143 -59c31 -40 47 -94 47 -157c0 -67 -16 -119 -48 -157c-32 -36 -78 -55 -142 -60zM307 738v-91c-66 -3 -113 -18 -146 -43c-36 -22 -64 -57 -85 -100
c-20 -43 -31 -89 -31 -143c0 -76 27 -146 71 -197h-1c46 -51 110 -80 192 -84v-106h69v106c82 4 145 33 191 82c48 48 71 117 71 204c0 76 -23 142 -65 194c-43 48 -111 81 -197 88v90h-69z" />
    <glyph glyph-name="alpha" unicode="&#x3b1;" horiz-adv-x="503" 
d="M234 467c36 0 63 -17 86 -52v0c24 -36 34 -85 34 -152c0 -70 -13 -122 -35 -160c-25 -38 -54 -56 -90 -56s-66 18 -85 56c-20 38 -31 90 -31 154c0 137 46 210 121 210zM455 515h-63c-10 -36 -18 -69 -23 -100c-24 41 -50 75 -66 87c-20 16 -48 24 -81 24
c-55 0 -100 -26 -131 -69c-31 -47 -48 -113 -48 -200c0 -83 17 -149 48 -196c31 -49 76 -73 130 -73c61 0 110 42 142 123c12 -47 22 -89 30 -111h62c-17 58 -35 141 -50 257c13 99 31 183 50 258z" />
    <glyph glyph-name="delta" unicode="&#x3b4;" 
d="M108 249c0 57 11 105 34 144c26 40 58 60 102 60c37 0 69 -16 94 -54c25 -36 38 -85 38 -149c0 -69 -13 -122 -39 -155s-58 -48 -93 -48c-39 0 -71 19 -97 57v0c-26 38 -39 86 -39 145zM85 716v-52c59 -64 109 -115 153 -155c-60 -9 -113 -35 -145 -71v0
c-30 -42 -50 -109 -50 -188c0 -72 15 -134 49 -186v1c34 -51 82 -77 149 -77c60 0 109 23 145 69c37 46 55 111 55 194c0 62 -10 112 -29 148c-18 35 -58 78 -108 121c-49 42 -100 90 -141 139h242v57h-320z" />
    <glyph glyph-name="epsilon" unicode="&#x3b5;" horiz-adv-x="394" 
d="M297 420l44 43c-39 37 -88 63 -134 63c-49 0 -84 -15 -107 -45s-33 -64 -33 -101c0 -40 22 -79 67 -113c-49 -33 -79 -78 -79 -129c0 -39 11 -75 36 -104c23 -31 59 -46 111 -46c60 0 109 25 155 76c-5 6 -13 13 -16 16c-4 5 -19 21 -25 26l-3 4
c-38 -42 -74 -63 -109 -63c-22 0 -42 8 -58 25c-16 18 -26 40 -26 66s9 48 25 68c16 19 46 29 85 29h3h12v59h-16c-66 0 -102 38 -102 88c0 20 7 38 18 57c13 17 32 25 57 25c27 0 60 -15 95 -44z" />
    <glyph glyph-name="sigma" unicode="&#x3c3;" horiz-adv-x="535" 
d="M238 467c45 0 80 -21 102 -60c23 -38 35 -91 35 -151c0 -66 -13 -117 -38 -154v0c-24 -37 -57 -55 -98 -55c-38 0 -71 16 -96 53c-24 35 -38 87 -38 156s14 122 38 159c26 35 58 52 95 52zM503 515h-194c-26 7 -50 11 -70 11c-54 0 -102 -22 -141 -66
c-38 -43 -58 -110 -58 -204c0 -88 20 -155 57 -200s85 -68 142 -68s103 21 142 66c38 43 59 111 59 202c0 77 -23 144 -65 202h128v57z" />
    <glyph glyph-name="tau" unicode="&#x3c4;" horiz-adv-x="352" 
d="M212 458h105v57h-284v-57h115v-458h64v458z" />
    <glyph glyph-name="phi" unicode="&#x3c6;" horiz-adv-x="561" 
d="M314 52v309c0 44 4 72 12 85v0c8 14 19 21 35 21c23 0 43 -16 62 -43c18 -29 29 -74 29 -135c0 -66 -13 -120 -38 -162c-23 -36 -56 -61 -100 -75zM194 461l14 64c-47 -4 -84 -29 -115 -69c-32 -47 -51 -111 -51 -186c0 -83 21 -151 65 -203c40 -50 90 -76 145 -80v-191
h62v191c50 14 93 38 121 68c56 65 85 149 85 225c0 47 -9 91 -25 130c-34 81 -78 116 -155 116c-23 0 -43 -6 -56 -16c-12 -11 -23 -27 -26 -45c-5 -16 -6 -42 -6 -77v-339c-51 16 -89 44 -111 82c-23 41 -34 90 -34 143c0 97 30 159 87 187z" />
    <glyph glyph-name="underscoredbl" unicode="&#x2017;" horiz-adv-x="482" 
d="M0 -332h482v48h-482v-48zM0 -204h482v50h-482v-50z" />
    <glyph glyph-name="exclamdbl" unicode="&#x203c;" horiz-adv-x="438" 
d="M104 0h76v88h-76v-88zM123 182h39c3 62 6 124 10 188c3 65 7 130 10 192v154h-81v-154c1 -25 3 -55 5 -83c5 -77 10 -159 13 -229c0 -3 0 -7 1 -11c1 -20 3 -39 3 -57zM285 0h76v88h-76v-88zM304 182h39c3 62 6 124 10 188c3 65 7 130 10 192v154h-81v-154
c1 -25 3 -55 5 -83c5 -77 10 -159 13 -229c0 -3 0 -7 1 -11c1 -20 3 -39 3 -57z" />
    <glyph glyph-name="uni207F" unicode="&#x207f;" horiz-adv-x="327" 
d="M49 258h47v174c0 74 28 105 76 105c40 0 60 -21 60 -85v-194h46v197c0 34 -3 60 -8 74c-13 32 -45 54 -86 54c-29 0 -60 -20 -93 -50v42h-42v-317z" />
    <glyph glyph-name="peseta" unicode="&#x20a7;" horiz-adv-x="928" 
d="M570 89l-5 -1l5 5v-4zM99 647h89c36 0 65 -7 81 -16c37 -21 60 -66 60 -125c0 -30 -8 -58 -19 -81c-15 -22 -32 -35 -54 -45c-21 -8 -53 -12 -98 -12h-59v279zM570 89v-26c-10 -3 -15 -3 -16 -3c-29 0 -42 18 -42 48l1 16v334h77c-10 -29 -16 -55 -16 -78
c0 -47 24 -86 67 -114c12 -11 44 -22 89 -37v0c48 -16 78 -30 92 -45c9 -12 15 -27 15 -45c0 -21 -8 -40 -25 -59c-22 -21 -47 -32 -78 -32c-58 0 -96 38 -107 104h-29c-5 0 -12 1 -19 1h-15v-5c1 -14 1 -24 4 -33c1 -7 3 -15 7 -25zM29 716v-716h70v298h70
c50 0 91 4 112 11c58 22 97 72 115 149h51v-361c0 -33 7 -55 14 -69v0c17 -23 46 -36 85 -36c6 0 18 3 33 7v56s4 3 5 4c1 0 2 2 5 3c21 -28 43 -48 57 -57c22 -11 51 -18 83 -18c53 0 94 16 125 50c32 32 47 69 47 111c0 48 -22 94 -56 118c-18 13 -55 27 -92 40
c-40 11 -75 25 -91 37c-16 13 -26 32 -26 53c0 18 9 34 25 51c15 13 35 19 64 19c55 0 84 -27 91 -85h67c-5 41 -20 77 -37 99c-32 31 -75 50 -124 50c-24 0 -50 -6 -72 -14h-137v153h-30c-5 0 -12 1 -18 1h-18v-154h-46c-5 63 -19 108 -43 138c-33 38 -84 62 -144 62h-185z
" />
    <glyph glyph-name="arrowleft" unicode="&#x2190;" horiz-adv-x="851" 
d="M228 422h-20c-34 -46 -68 -85 -93 -109c-22 -22 -52 -42 -73 -55v-12c27 -19 54 -39 77 -61c25 -23 55 -60 89 -106h21c-22 57 -53 107 -85 153h664v35h-662c24 39 44 72 51 85c8 13 18 37 29 65c1 1 1 3 2 5z" />
    <glyph glyph-name="arrowup" unicode="&#x2191;" horiz-adv-x="438" 
d="M76 451v-25c27 17 47 32 60 41c11 9 32 28 69 62v-743h29v744c39 -42 79 -73 128 -103v23c-39 41 -67 77 -88 110v-1c-20 29 -34 58 -50 94h-13c-12 -29 -28 -62 -46 -90c-19 -28 -53 -72 -89 -112z" />
    <glyph glyph-name="arrowright" unicode="&#x2192;" horiz-adv-x="851" 
d="M642 422h-20c10 -26 24 -57 32 -70h-1c3 -4 6 -10 10 -16c8 -16 25 -44 40 -69h-661v-35h665c-34 -45 -63 -97 -86 -153h21c34 47 64 84 89 107c23 22 50 43 77 60v12c-23 13 -50 33 -71 54c-26 24 -60 64 -95 110z" />
    <glyph glyph-name="arrowdown" unicode="&#x2193;" horiz-adv-x="438" 
d="M76 11v-23c33 -37 70 -85 89 -114c19 -27 34 -60 46 -88h13c14 34 30 65 50 93v0c20 31 53 73 88 110v24c-47 -30 -88 -63 -128 -105v745h-29v-744c-34 32 -58 56 -68 61c-12 10 -33 24 -61 41z" />
    <glyph glyph-name="arrowboth" unicode="&#x2194;" horiz-adv-x="851" 
d="M808 245v10c-26 16 -50 37 -73 58c-24 22 -57 63 -91 110h-21c20 -51 47 -102 84 -156h-564c38 54 65 106 85 156h-22c-33 -46 -66 -86 -91 -110c-21 -21 -49 -43 -73 -58v-9c24 -16 52 -38 73 -59c25 -23 58 -62 91 -108h22c-20 51 -48 103 -85 155h565
c-38 -52 -65 -104 -85 -155h21c34 46 67 86 91 108c22 22 47 42 73 58z" />
    <glyph glyph-name="arrowupdn" unicode="&#x2195;" horiz-adv-x="438" 
d="M224 714h-12c-13 -28 -29 -64 -47 -90c-19 -29 -53 -70 -89 -108v-26c41 24 88 63 129 102v-684c-42 44 -89 80 -129 103v-24c35 -37 68 -79 89 -111c18 -26 33 -58 47 -89h12c15 33 32 67 47 89c21 31 52 70 91 111v24c-44 -24 -86 -57 -129 -103v685
c43 -44 88 -79 129 -103v26c-40 42 -71 79 -91 108c-15 22 -30 54 -47 90z" />
    <glyph glyph-name="arrowupdnbse" unicode="&#x21a8;" horiz-adv-x="438" 
d="M77 -277v-33h285v33h-285zM224 714h-12c-13 -28 -29 -64 -47 -90c-19 -29 -53 -70 -89 -108v-26c41 24 88 63 129 102v-684c-42 44 -89 80 -129 103v-24c35 -37 68 -79 89 -111c18 -26 33 -58 47 -89h12c15 33 32 67 47 89c21 31 52 70 91 111v24
c-44 -24 -86 -57 -129 -103v685c43 -44 88 -79 129 -103v26c-40 42 -71 79 -91 108c-15 22 -30 54 -47 90z" />
    <glyph glyph-name="orthogonal" unicode="&#x221f;" horiz-adv-x="833" 
d="M159 623v-623h516v35h-487v588h-29z" />
    <glyph glyph-name="intersection" unicode="&#x2229;" horiz-adv-x="618" 
d="M123 0v306c0 64 0 110 1 130c2 68 14 126 44 168c19 23 40 42 65 56c25 12 50 19 77 19c24 0 51 -7 74 -19c22 -12 44 -31 61 -51c15 -18 26 -43 34 -65c8 -23 13 -58 17 -93c1 -21 3 -72 3 -145v-306h44v303c0 82 0 132 -2 149c-3 44 -11 82 -19 110
c-8 26 -26 59 -45 82h1c-44 47 -106 85 -168 85c-32 0 -65 -7 -95 -24c-29 -16 -55 -38 -73 -62c-21 -25 -36 -52 -44 -77c-9 -24 -15 -60 -18 -101c-3 -23 -4 -79 -4 -162v-303h47z" />
    <glyph glyph-name="equivalence" unicode="&#x2261;" horiz-adv-x="507" 
d="M448 98v67h-388v-67h388zM448 542v66h-388v-66h388zM448 318v70h-388v-70h388z" />
    <glyph glyph-name="house" unicode="&#x2302;" horiz-adv-x="524" 
d="M99 25v269c41 55 78 106 116 158c14 18 33 44 46 64c12 -16 28 -37 39 -53c40 -54 81 -110 124 -169v-269h-325zM77 0h370v305c-23 32 -47 64 -71 96c-40 54 -76 102 -115 156c-7 -11 -16 -23 -24 -34c-28 -38 -60 -82 -86 -117c-23 -32 -50 -69 -74 -101v-305z" />
    <glyph glyph-name="revlogicalnot" unicode="&#x2310;" horiz-adv-x="507" 
d="M60 211h59v219h329v68h-388v-287z" />
    <glyph glyph-name="integraltp" unicode="&#x2320;" horiz-adv-x="524" 
d="M285 -256v975c0 35 1 60 3 73c2 7 4 12 7 16c7 4 12 7 16 7c8 0 17 -8 24 -21c6 -11 11 -17 15 -21c7 -3 15 -6 21 -6c17 0 31 16 31 37c0 26 -17 47 -50 47c-30 0 -58 -18 -81 -53c-24 -34 -34 -87 -34 -159v-895h48z" />
    <glyph glyph-name="integralbt" unicode="&#x2321;" horiz-adv-x="524" 
d="M238 851v-976c0 -32 0 -58 -3 -71c-1 -7 -3 -14 -6 -17v0c-3 -5 -13 -8 -17 -8c-6 0 -16 7 -23 21h1c-6 9 -11 17 -17 21v-1c-7 5 -14 8 -21 8c-17 0 -29 -16 -29 -39c0 -25 17 -45 50 -45c29 0 56 19 79 52v-1c23 36 35 90 35 160v896h-49z" />
    <glyph glyph-name="SF100000" unicode="&#x2500;" horiz-adv-x="611" 
d="M606 267v71h-604v-71h604z" />
    <glyph glyph-name="SF110000" unicode="&#x2502;" horiz-adv-x="541" 
d="M201 -311h62v1226h-62v-1226z" />
    <glyph glyph-name="SF010000" unicode="&#x250c;" horiz-adv-x="611" 
d="M604 338h-333v-649h62v578h271v71z" />
    <glyph glyph-name="SF030000" unicode="&#x2510;" horiz-adv-x="611" 
d="M276 267v-578h62v649h-334v-71h272z" />
    <glyph glyph-name="SF020000" unicode="&#x2514;" horiz-adv-x="611" 
d="M271 267h333v71h-271v577h-62v-648z" />
    <glyph glyph-name="SF040000" unicode="&#x2518;" horiz-adv-x="611" 
d="M338 267v648h-62v-577h-272v-71h334z" />
    <glyph glyph-name="SF080000" unicode="&#x251c;" horiz-adv-x="611" 
d="M271 -311h62v578h271v71h-271v577h-62v-1226z" />
    <glyph glyph-name="SF090000" unicode="&#x2524;" horiz-adv-x="611" 
d="M276 -311h62v1226h-62v-577h-272v-71h272v-578z" />
    <glyph glyph-name="SF060000" unicode="&#x252c;" horiz-adv-x="611" 
d="M274 267v-578h60v578h272v71h-604v-71h272z" />
    <glyph glyph-name="SF070000" unicode="&#x2534;" horiz-adv-x="611" 
d="M606 267v71h-272v577h-60v-577h-272v-71h604z" />
    <glyph glyph-name="SF050000" unicode="&#x253c;" horiz-adv-x="611" 
d="M274 267v-578h60v578h272v71h-272v577h-60v-577h-272v-71h272z" />
    <glyph glyph-name="SF430000" unicode="&#x2550;" horiz-adv-x="611" 
d="M606 361v72h-604v-72h604zM606 171v73h-604v-73h604z" />
    <glyph glyph-name="SF240000" unicode="&#x2551;" horiz-adv-x="611" 
d="M196 -311h61v1226h-61v-1226zM352 -311h63v1226h-63v-1226z" />
    <glyph glyph-name="SF510000" unicode="&#x2552;" horiz-adv-x="611" 
d="M271 -311h62v482h271v73h-271v117h271v72h-333v-744z" />
    <glyph glyph-name="SF520000" unicode="&#x2553;" horiz-adv-x="611" 
d="M194 -311h62v569h95v-569h61v578h193v71h-411v-649z" />
    <glyph glyph-name="SF390000" unicode="&#x2554;" horiz-adv-x="611" 
d="M412 171h193v73h-254v-555h61v482zM256 -311v672h349v72h-411v-744h62z" />
    <glyph glyph-name="SF220000" unicode="&#x2555;" horiz-adv-x="611" 
d="M276 171v-482h62v744h-334v-72h272v-117h-272v-73h272z" />
    <glyph glyph-name="SF210000" unicode="&#x2556;" horiz-adv-x="611" 
d="M199 -311h60v578h94v-578h63v649h-412v-71h195v-578z" />
    <glyph glyph-name="SF250000" unicode="&#x2557;" horiz-adv-x="611" 
d="M199 171v-482h60v555h-255v-73h195zM353 -311h63v744h-412v-72h349v-672z" />
    <glyph glyph-name="SF500000" unicode="&#x2558;" horiz-adv-x="611" 
d="M271 171h333v73h-271v117h271v72h-271v482h-62v-744z" />
    <glyph glyph-name="SF490000" unicode="&#x2559;" horiz-adv-x="611" 
d="M605 267v71h-193v577h-61v-577h-95v577h-62v-648h411z" />
    <glyph glyph-name="SF380000" unicode="&#x255a;" horiz-adv-x="611" 
d="M412 433v482h-61v-554h254v72h-193zM256 915h-62v-744h411v73h-349v671z" />
    <glyph glyph-name="SF280000" unicode="&#x255b;" horiz-adv-x="611" 
d="M338 171v744h-62v-482h-272v-72h272v-117h-272v-73h334z" />
    <glyph glyph-name="SF270000" unicode="&#x255c;" horiz-adv-x="611" 
d="M416 267v648h-63v-577h-94v577h-60v-577h-195v-71h412z" />
    <glyph glyph-name="SF260000" unicode="&#x255d;" horiz-adv-x="611" 
d="M199 433h-195v-72h255v554h-60v-482zM353 915v-671h-349v-73h412v744h-63z" />
    <glyph glyph-name="SF360000" unicode="&#x255e;" horiz-adv-x="611" 
d="M271 -311h62v482h271v73h-271v117h271v72h-271v482h-62v-1226z" />
    <glyph glyph-name="SF370000" unicode="&#x255f;" horiz-adv-x="611" 
d="M194 -311h62v1226h-62v-1226zM351 -311h61v578h193v71h-193v577h-61v-1226z" />
    <glyph glyph-name="SF420000" unicode="&#x2560;" horiz-adv-x="611" 
d="M351 361h254v72h-193v482h-61v-554zM351 -311h61v482h193v73h-254v-555zM194 -311h62v1226h-62v-1226z" />
    <glyph glyph-name="SF190000" unicode="&#x2561;" horiz-adv-x="611" 
d="M276 171v-482h62v1226h-62v-482h-272v-72h272v-117h-272v-73h272z" />
    <glyph glyph-name="SF200000" unicode="&#x2562;" horiz-adv-x="611" 
d="M353 -311h63v1226h-63v-1226zM199 -311h60v1226h-60v-577h-195v-71h195v-578z" />
    <glyph glyph-name="SF230000" unicode="&#x2563;" horiz-adv-x="611" 
d="M259 915h-60v-482h-195v-72h255v554zM199 171v-482h60v555h-255v-73h195zM353 -311h63v1226h-63v-1226z" />
    <glyph glyph-name="SF470000" unicode="&#x2564;" horiz-adv-x="611" 
d="M606 361v72h-604v-72h604zM274 171v-482h60v482h272v73h-604v-73h272z" />
    <glyph glyph-name="SF480000" unicode="&#x2565;" horiz-adv-x="611" 
d="M196 -311h61v569h95v-569h62v578h192v71h-604v-71h194v-578z" />
    <glyph glyph-name="SF410000" unicode="&#x2566;" horiz-adv-x="611" 
d="M606 361v72h-604v-72h604zM196 171v-482h61v555h-255v-73h194zM352 -311h62v482h192v73h-254v-555z" />
    <glyph glyph-name="SF450000" unicode="&#x2567;" horiz-adv-x="611" 
d="M606 171v73h-604v-73h604zM606 361v72h-272v482h-60v-482h-272v-72h604z" />
    <glyph glyph-name="SF460000" unicode="&#x2568;" horiz-adv-x="611" 
d="M606 267v71h-192v577h-62v-577h-95v577h-61v-577h-194v-71h604z" />
    <glyph glyph-name="SF400000" unicode="&#x2569;" horiz-adv-x="611" 
d="M606 171v73h-604v-73h604zM257 361v554h-61v-482h-194v-72h255zM606 361v72h-192v482h-62v-554h254z" />
    <glyph glyph-name="SF540000" unicode="&#x256a;" horiz-adv-x="611" 
d="M274 171v-482h60v482h272v73h-272v117h272v72h-272v482h-60v-482h-272v-72h272v-117h-272v-73h272z" />
    <glyph glyph-name="SF530000" unicode="&#x256b;" horiz-adv-x="611" 
d="M196 -311h61v578h95v-578h62v578h192v71h-192v577h-62v-577h-95v577h-61v-577h-194v-71h194v-578z" />
    <glyph glyph-name="SF440000" unicode="&#x256c;" horiz-adv-x="611" 
d="M196 433h-194v-72h255v554h-61v-482zM196 171v-482h61v555h-255v-73h194zM415 171h191v73h-254v-555h63v482zM415 433v482h-63v-554h254v72h-191z" />
    <glyph glyph-name="upblock" unicode="&#x2580;" horiz-adv-x="611" 
d="M606 311v604h-604v-604h604z" />
    <glyph glyph-name="dnblock" unicode="&#x2584;" horiz-adv-x="611" 
d="M606 -311v605h-604v-605h604z" />
    <glyph glyph-name="block" unicode="&#x2588;" horiz-adv-x="611" 
d="M2 -311h604v1226h-604v-1226z" />
    <glyph glyph-name="lfblock" unicode="&#x258c;" horiz-adv-x="611" 
d="M5 -311h297v1226h-297v-1226z" />
    <glyph glyph-name="rtblock" unicode="&#x2590;" horiz-adv-x="611" 
d="M307 -311h297v1226h-297v-1226z" />
    <glyph glyph-name="ltshade" unicode="&#x2591;" horiz-adv-x="611" 
d="M464 -81v-46h40v46h-40zM464 417v-46h40v46h-40zM464 168v-46h40v46h-40zM362 44v-46h40v46h-40zM156 44v-46h41v46h-41zM464 915v-47h40v47h-40zM464 667v-47h40v47h-40zM156 293v-46h41v46h-41zM362 293v-46h40v46h-40zM259 -81v-46h41v46h-41zM156 -205v-46h41v46h-41
zM362 542v-47h40v47h-40zM362 -205v-46h40v46h-40zM156 542v-47h41v47h-41zM259 168v-46h41v46h-41zM259 417v-46h41v46h-41zM53 -81v-46h42v46h-42zM259 915v-47h41v47h-41zM259 667v-47h41v47h-41zM53 417v-46h42v46h-42zM53 168v-46h42v46h-42zM566 44v-46h42v46h-42z
M362 792v-49h40v49h-40zM156 792v-49h41v49h-41zM53 915v-47h42v47h-42zM53 667v-47h42v47h-42zM566 293v-46h42v46h-42zM566 -205v-46h42v46h-42zM566 542v-47h42v47h-42zM566 792v-49h42v49h-42z" />
    <glyph glyph-name="shade" unicode="&#x2592;" horiz-adv-x="611" 
d="M55 -81v-46h39v46h-39zM567 -81v-46h39v46h-39zM567 417v-46h39v46h-39zM55 417v-46h39v46h-39zM567 168v-46h39v46h-39zM55 168v-46h39v46h-39zM55 915v-47h39v47h-39zM567 915v-47h39v47h-39zM567 667v-47h39v47h-39zM55 667v-47h39v47h-39zM464 -81v-46h40v46h-40z
M414 44v-46h40v46h-40zM260 -81v-46h40v46h-40zM414 293v-46h40v46h-40zM464 168v-46h40v46h-40zM260 168v-46h40v46h-40zM260 417v-46h40v46h-40zM464 417v-46h40v46h-40zM157 -81v-46h40v46h-40zM362 -81v-46h41v46h-41zM260 915v-47h40v47h-40zM464 667v-47h40v47h-40z
M260 667v-47h40v47h-40zM464 915v-47h40v47h-40zM414 542v-47h40v47h-40zM414 -205v-46h40v46h-40zM362 417v-46h41v46h-41zM157 417v-46h40v46h-40zM157 168v-46h40v46h-40zM362 168v-46h41v46h-41zM310 44v-46h41v46h-41zM516 44v-46h41v46h-41zM2 44v-46h42v46h-42z
M208 44v-46h41v46h-41zM157 667v-47h40v47h-40zM362 915v-47h41v47h-41zM362 667v-47h41v47h-41zM157 915v-47h40v47h-40zM208 293v-46h41v46h-41zM2 293v-46h42v46h-42zM310 293v-46h41v46h-41zM516 293v-46h41v46h-41zM105 44v-46h41v46h-41zM414 792v-49h40v49h-40z
M310 -205v-46h41v46h-41zM310 542v-47h41v47h-41zM208 -205v-46h41v46h-41zM516 -205v-46h41v46h-41zM208 542v-47h41v47h-41zM2 542v-47h42v47h-42zM557 495v47h-41v-47h41zM2 -205v-46h42v46h-42zM105 293v-46h41v46h-41zM105 -205v-46h41v46h-41zM105 542v-47h41v47h-41z
M310 792v-49h41v49h-41zM2 792v-49h42v49h-42zM208 792v-49h41v49h-41zM516 792v-49h41v49h-41zM105 792v-49h41v49h-41z" />
    <glyph glyph-name="dkshade" unicode="&#x2593;" horiz-adv-x="627" 
d="M258 -189h61v-78h-61v78zM574 -143h-60v78h60v-78zM574 681v-77h-60v77h60zM359 -189h61v-78h-61v78zM258 557h61v-78h-61v78zM258 60h61v-78h-61v78zM258 806h61v-77h-61v77zM462 -189h62v-78h-62v78zM514 433h60v-79h-60v79zM258 309h61v-79h-61v79zM359 60h61v-78h-61
v78zM359 806h61v-77h-61v77zM472 681v-77h-61v77h61zM165 -143h-61v78h61v-78zM472 -143h-61v78h61v-78zM359 557h61v-78h-61v78zM165 681v-77h-61v77h61zM371 -143h-62v78h62v-78zM371 681v-77h-62v77h62zM574 105h-60v80h60v-80zM52 -189h62v-78h-62v78zM359 309h61v-79
h-61v79zM462 806h62v-77h-62v77zM268 -143h-62v78h62v-78zM462 60h62v-78h-62v78zM462 557h62v-78h-62v78zM268 681v-77h-62v77h62zM154 -189h63v-78h-63v78zM309 433h62v-79h-62v79zM165 433v-79h-61v79h61zM411 433h61v-79h-61v79zM462 309h62v-79h-62v79zM52 60h62v-78
h-62v78zM52 557h62v-78h-62v78zM52 806h62v-77h-62v77zM165 105h-61v80h61v-80zM371 105h-62v80h62v-80zM472 105h-61v80h61v-80zM206 433h62v-79h-62v79zM52 309h62v-79h-62v79zM154 60h63v-78h-63v78zM154 557h63v-78h-63v78zM154 806h63v-77h-63v77zM268 105h-62v80h62
v-80zM217 230h-63v79h63v-79zM615 729h-51v77h51v109h-41v-63h-60v63h-42v-63h-61v63h-40v-63h-62v63h-41v-63h-62v63h-41v-63h-61v63h-41v-63h-52v-171h52v-77h-52v-171h52v-79h-52v-169h52v-80h-52v-170h52v-78h-52v-170h604v46h-51v78h51v171h-51v78h51v170h-51v79h51
v170h-51v78h51v172z" />
    <glyph glyph-name="filledbox" unicode="&#x25a0;" horiz-adv-x="524" 
d="M74 456v-456h376v456h-376z" />
    <glyph glyph-name="filledrect" unicode="&#x25ac;" horiz-adv-x="851" 
d="M8 336v-178h833v178h-833z" />
    <glyph glyph-name="triagup" unicode="&#x25b2;" horiz-adv-x="842" 
d="M137 0h568c-43 102 -91 217 -133 317c-6 14 -12 30 -18 44c-43 106 -90 221 -133 326c-33 -81 -71 -174 -105 -254c-4 -9 -7 -18 -11 -27c-54 -132 -110 -269 -168 -406z" />
    <glyph glyph-name="triagrt" unicode="&#x25ba;" horiz-adv-x="842" 
d="M126 688v-700c41 24 84 50 127 76c37 22 76 45 108 65l63 39c93 56 187 113 282 170c-16 9 -32 18 -48 29c-56 33 -117 72 -168 102c-26 16 -53 32 -79 49c-95 56 -190 113 -285 170z" />
    <glyph glyph-name="triagdn" unicode="&#x25bc;" horiz-adv-x="842" 
d="M705 676h-568c7 -17 14 -34 22 -51c36 -87 76 -183 111 -265c20 -48 42 -102 64 -155c31 -76 59 -143 87 -213c12 28 25 58 38 90c25 60 51 122 72 172c23 57 48 117 72 175c33 82 68 167 102 247z" />
    <glyph glyph-name="triaglf" unicode="&#x25c4;" horiz-adv-x="842" 
d="M714 688l-578 -350c22 -14 43 -27 66 -40c154 -93 309 -188 462 -281c7 -4 18 -10 29 -17c11 -6 14 -9 21 -13v701z" />
    <glyph glyph-name="circle" unicode="&#x25cb;" horiz-adv-x="524" 
d="M263 469c26 0 50 -7 75 -24v0c25 -16 46 -39 58 -69c14 -30 21 -63 21 -95c0 -52 -15 -98 -45 -136c-31 -37 -68 -54 -109 -54c-42 0 -79 19 -110 54c-31 37 -46 83 -46 136c0 33 6 65 19 95c14 30 35 53 60 69h-1c26 17 51 24 78 24zM261 493c-28 0 -58 -11 -86 -29
c-27 -17 -51 -45 -65 -77c-16 -34 -24 -71 -24 -106c0 -58 16 -109 50 -150c34 -42 78 -63 127 -63c47 0 89 22 124 63v0c33 40 51 91 51 150c0 35 -8 72 -23 106c-16 31 -40 60 -67 77c-27 18 -56 29 -87 29z" />
    <glyph glyph-name="invbullet" unicode="&#x25d8;" horiz-adv-x="524" 
d="M261 346c25 0 47 -11 63 -32s27 -47 27 -78c0 -28 -12 -55 -27 -75c-16 -22 -38 -33 -63 -33c-23 0 -45 11 -61 32c-18 21 -26 48 -26 76c0 31 8 57 25 78s37 32 62 32zM66 0h393v474h-393v-474z" />
    <glyph glyph-name="invcircle" unicode="&#x25d9;" horiz-adv-x="524" 
d="M263 455c-25 0 -49 -8 -73 -23c-21 -15 -42 -38 -54 -64c-11 -28 -18 -59 -18 -88c0 -47 12 -89 42 -122c27 -34 63 -52 103 -52c41 0 74 19 102 52c29 33 42 75 42 122c0 29 -8 60 -19 88c-13 27 -32 49 -55 64h1c-23 14 -48 23 -71 23zM263 508c29 0 61 -10 90 -28
c29 -21 54 -51 71 -85c16 -36 26 -76 26 -115c0 -63 -21 -117 -56 -161c-37 -44 -81 -66 -131 -66c-49 0 -96 24 -132 66c-37 44 -55 99 -55 161c0 39 8 79 25 115c15 35 41 64 68 84c30 19 63 29 94 29zM31 0h464v561h-464v-561z" />
    <glyph glyph-name="smileface" unicode="&#x263a;" horiz-adv-x="868" 
d="M361 316c0 19 -12 33 -28 33c-15 0 -29 -14 -29 -33c0 -17 14 -32 29 -32c16 0 28 15 28 32zM563 316c0 19 -13 33 -29 33c-15 0 -28 -14 -28 -33c0 -17 13 -32 28 -32c16 0 29 15 29 32zM337 155l-17 -9c30 -58 67 -87 115 -87c47 0 84 29 112 86c-2 1 -5 2 -6 3l-2 1
c-1 1 -1 1 -1 2c-2 1 -4 3 -7 5c-25 -49 -57 -68 -96 -68c-40 0 -71 19 -98 67zM664 250c0 -77 -21 -143 -67 -197c-45 -55 -99 -82 -162 -82s-119 29 -164 82c-42 54 -67 122 -67 197c0 79 24 145 67 199c45 55 100 81 164 81c63 0 117 -27 162 -82v1
c46 -54 67 -120 67 -199zM690 250c0 86 -23 160 -75 220c-49 61 -109 91 -180 91c-70 0 -134 -34 -185 -91c-45 -59 -74 -135 -74 -220c0 -84 26 -157 74 -218v0c52 -61 113 -92 185 -92c71 0 132 31 180 92c52 61 75 134 75 218z" />
    <glyph glyph-name="invsmileface" unicode="&#x263b;" horiz-adv-x="894" 
d="M586 316c0 -27 -17 -48 -39 -48c-21 0 -38 21 -38 48c0 28 17 48 38 48c22 0 39 -20 39 -48zM384 316c0 -27 -16 -48 -38 -48c-20 0 -39 21 -39 48c0 28 19 48 39 48c22 0 38 -20 38 -48zM318 151l34 26c27 -48 58 -74 95 -74s68 24 94 74c3 -3 11 -9 14 -10
c6 -4 11 -8 20 -16c-32 -70 -75 -109 -128 -109c-54 0 -96 39 -129 109zM704 250c0 86 -25 160 -76 220c-50 61 -110 91 -181 91c-72 0 -132 -30 -182 -91c-51 -60 -76 -134 -76 -220c0 -84 25 -157 76 -218c49 -61 110 -92 182 -92c71 0 132 31 181 92c51 61 76 134 76 218
z" />
    <glyph glyph-name="sun" unicode="&#x263c;" horiz-adv-x="782" 
d="M606 341c0 -72 -21 -135 -63 -187c-43 -52 -94 -77 -153 -77s-110 27 -152 77c-41 51 -63 117 -63 187c0 74 20 136 63 186c42 52 93 77 152 77s110 -25 153 -77c42 -50 63 -112 63 -186zM381 793v-168c-31 -2 -53 -8 -71 -18c-20 -8 -52 -29 -80 -52l-118 138
c-7 -7 -8 -10 -12 -16c10 -13 24 -31 36 -46c11 -13 21 -27 31 -37c9 -10 18 -21 25 -31c8 -9 17 -21 25 -29c-21 -32 -37 -62 -47 -87h1c-7 -23 -14 -56 -16 -96h-138v-19h138c2 -43 8 -75 17 -98v0c10 -24 25 -56 45 -88l-117 -142c4 -5 8 -8 13 -14c11 13 26 30 38 44v0
c14 15 27 31 39 45c13 13 23 24 33 36c-10 -10 6 9 10 13c25 -24 49 -39 66 -48c19 -11 50 -18 82 -24v-167h22v168c30 5 60 12 78 20c16 7 40 25 72 52l116 -141c6 8 7 9 10 12l5 5c-12 15 -26 33 -40 49c-14 17 -29 34 -40 49c-5 6 -11 12 -16 18v0c-6 6 -12 15 -21 27
c34 56 54 117 60 182h139v19h-139c-2 40 -7 72 -14 100v-1c-9 22 -23 52 -47 89l117 140c-4 4 -10 12 -14 17c-1 1 -1 0 0 0c-14 -16 -30 -35 -45 -55c-12 -13 -22 -26 -32 -37c-12 -16 -30 -37 -41 -49c-29 27 -54 46 -73 54c-17 10 -43 16 -75 18v168h-22z" />
    <glyph glyph-name="female" unicode="&#x2640;" horiz-adv-x="644" 
d="M182 310l4 7l-11 1c2 -3 4 -6 7 -8zM388 242l-4 8c-8 -2 -18 -5 -25 -6c-12 -2 -26 -3 -37 -3c-12 0 -26 1 -37 3c-18 3 -32 9 -45 16c-21 12 -44 32 -67 58h2c-33 45 -51 100 -51 165c0 39 9 84 26 121c17 36 44 70 75 89v0c29 18 66 31 97 31c32 0 68 -13 96 -31v0
c31 -20 58 -54 76 -89c17 -38 27 -80 27 -121c0 -67 -21 -127 -60 -174c-19 -22 -41 -40 -65 -53c1 -2 2 -5 4 -8c29 13 54 33 74 61c38 47 58 108 58 174c0 42 -10 85 -28 125c-17 37 -44 72 -77 94c-34 24 -68 34 -105 34c-36 0 -72 -10 -106 -33c-31 -20 -57 -54 -76 -95
c-18 -39 -28 -83 -28 -125c0 -45 10 -88 29 -129c19 -40 46 -71 77 -93l-1 1c6 -4 12 -7 19 -9c14 -9 31 -15 48 -19c9 -2 18 -3 32 -4v-217h-191v-13h191v-219h12v219h190v13h-190v217c13 1 23 2 33 4c8 2 16 4 27 8z" />
    <glyph glyph-name="male" unicode="&#x2642;" horiz-adv-x="644" 
d="M267 364c31 0 66 -11 97 -30c31 -21 57 -55 75 -89c18 -38 27 -81 27 -122c0 -66 -22 -126 -60 -172c-36 -44 -86 -70 -139 -70c-55 0 -100 22 -141 70c-38 47 -57 105 -57 172c0 41 9 85 27 122c17 36 44 68 73 89c30 19 67 30 98 30zM507 793l-247 -147
c1 -3 2 -5 5 -14c34 20 81 47 117 69c26 15 55 34 81 49c8 6 27 17 34 21c-30 -77 -62 -161 -90 -232c-21 -55 -46 -118 -68 -177c-28 9 -51 14 -70 14c-61 0 -108 -24 -151 -74v1c-39 -51 -61 -109 -61 -180c0 -43 9 -86 28 -126c18 -38 46 -71 77 -94
c32 -23 68 -34 105 -34s73 12 105 34c32 21 59 55 77 94c18 40 29 83 29 126c0 46 -11 91 -31 131c-18 37 -51 74 -95 102c28 73 63 163 94 246c20 51 45 117 62 162l61 -303c4 2 5 3 5 3h9c-14 63 -27 130 -41 196c-8 42 -17 85 -25 126c-1 1 0 0 -1 2c-3 2 -4 3 -9 5z" />
    <glyph glyph-name="spade" unicode="&#x2660;" horiz-adv-x="463" 
d="M246 602l-6 6c-10 0 -14 -1 -24 -1c2 -5 3 -11 5 -17c2 -7 4 -17 7 -27c-3 -13 -8 -25 -11 -33c-11 -23 -29 -53 -48 -79c-11 -18 -34 -42 -61 -69c-24 -25 -46 -56 -58 -80c-7 -18 -13 -39 -13 -62c0 -29 8 -53 25 -72c18 -21 37 -31 60 -31c36 0 70 27 100 81
c1 -30 3 -57 6 -74c-17 -74 -53 -119 -106 -135h-35v11c-8 -9 -16 -16 -27 -26c27 1 46 3 62 6h227c2 0 4 -1 5 -1v0c7 -1 18 -3 26 -4v-19c8 11 16 21 25 33h-58c-18 5 -35 14 -48 25c-31 22 -49 57 -60 109c3 18 5 43 5 76c31 -53 64 -82 96 -82c26 0 45 10 60 30
c19 20 27 45 27 75c0 21 -7 42 -15 64v-1c-11 21 -34 52 -71 93s-64 79 -79 107c-7 12 -17 31 -23 58c2 8 3 19 4 26c1 5 4 16 3 13z" />
    <glyph glyph-name="club" unicode="&#x2663;" horiz-adv-x="566" 
d="M137 -2c-2 0 -3 -1 -4 -1h-2l5 -6c0 3 1 5 1 7zM444 -5l7 5v9h-29c-28 10 -48 18 -61 29c-24 20 -46 50 -58 80c-6 11 -9 25 -13 41c0 3 -2 7 -2 10c5 18 6 37 6 55v5l9 2c11 -21 19 -34 23 -41c25 -29 67 -53 97 -53c31 0 57 13 78 38c20 26 30 57 30 95
c0 37 -8 67 -28 90c-19 26 -40 38 -67 38c-11 0 -19 -2 -29 -4h1c-4 -2 -13 -6 -26 -16l-14 -6c-2 7 -5 10 -5 10c20 35 29 67 29 92c0 31 -12 63 -32 87c-21 24 -47 39 -78 39c-32 0 -57 -14 -77 -39c-20 -24 -31 -55 -31 -90c0 -12 1 -24 4 -37c2 -2 4 -6 5 -10
c4 -10 19 -39 30 -61c-46 25 -71 34 -84 34c-25 0 -46 -12 -66 -37c-19 -25 -28 -55 -28 -91c0 -38 9 -68 31 -95c21 -25 47 -38 78 -38c42 0 87 31 121 95l8 -2c1 -25 3 -45 5 -60c-4 -20 -10 -37 -16 -54c-15 -35 -33 -60 -58 -79c-11 -8 -32 -17 -62 -27h-14
c1 10 0 5 2 15c-9 -11 -17 -22 -27 -35c8 2 17 5 23 7v1c1 1 1 3 1 5h10v-4c0 1 1 1 2 1c1 1 2 1 3 1h281c7 -2 13 -3 21 -5z" />
    <glyph glyph-name="heart" unicode="&#x2665;" horiz-adv-x="516" 
d="M246 -15l-2 2c0 -13 1 -9 2 -2zM246 -15l5 -6h23c-3 10 -7 26 -11 42c8 27 20 55 29 74c19 43 52 102 98 170v0c31 48 57 94 70 126v-1c11 29 17 62 17 91c0 33 -9 59 -29 82v-1c-20 24 -45 38 -73 38c-26 0 -53 -17 -76 -39c-11 -15 -26 -43 -41 -104
c-16 57 -31 89 -44 105c-22 23 -48 37 -75 37c-28 0 -53 -13 -72 -36s-28 -52 -28 -87c0 -38 11 -73 34 -119c9 -17 30 -49 62 -101c42 -68 75 -129 92 -161c6 -14 15 -40 27 -75c-2 -6 -4 -12 -5 -17c-1 -3 -2 -11 -3 -18z" />
    <glyph glyph-name="diamond" unicode="&#x2666;" horiz-adv-x="447" 
d="M235 597l-6 7h-22c1 -2 3 -7 4 -9l2 -6l-1 3c2 -3 5 -8 6 -10c-24 -45 -51 -94 -73 -130c-42 -69 -76 -120 -103 -159c40 -58 66 -98 72 -108v0c24 -38 47 -78 67 -112c6 -9 12 -19 17 -28c12 -23 10 -17 25 -51c27 55 58 109 85 154c40 63 75 117 97 145
c-25 35 -64 91 -97 147c-25 41 -54 92 -79 141c0 1 2 6 2 7c2 5 2 5 4 9z" />
    <glyph glyph-name="musicalnote" unicode="&#x266a;" horiz-adv-x="438" 
d="M213 665v-491c-31 17 -59 27 -76 27c-33 0 -58 -12 -80 -34h1c-19 -22 -28 -49 -28 -82c0 -31 7 -57 22 -75v1c17 -20 39 -30 67 -30c25 0 49 8 69 19v0c20 13 35 32 44 52c8 21 13 52 13 90v425h16c25 0 47 -6 68 -17c33 -17 51 -51 51 -102v-13h28v44
c0 61 -15 114 -37 143c-16 15 -37 31 -55 36c-17 5 -47 7 -92 7h-11z" />
    <glyph glyph-name="musicalnotedbl" unicode="&#x266b;" horiz-adv-x="644" 
d="M231 621v-492c-32 17 -59 26 -76 26c-32 0 -59 -13 -79 -35c-18 -21 -31 -49 -31 -81c0 -31 10 -55 26 -75c16 -19 39 -28 68 -28c24 0 47 6 68 20v0c19 13 35 29 43 49c8 21 12 53 12 92v422c29 11 59 22 88 33c51 20 116 44 167 64v-382c-25 13 -41 19 -47 21h1
c-9 2 -19 3 -28 3c-32 0 -61 -12 -79 -34c-20 -22 -31 -51 -31 -81c0 -29 11 -57 25 -75c18 -17 42 -28 69 -28c24 0 48 5 69 21c20 11 33 27 41 46v0c7 20 12 50 12 91v543c-51 -19 -112 -42 -160 -61c-16 -6 -34 -13 -52 -19h1c-37 -14 -71 -27 -107 -40z" />
    <glyph glyph-name="IJ" unicode="&#x132;" horiz-adv-x="632" 
d="M107 0h68v716h-68v-716zM329 203l-62 -10c3 -134 59 -205 157 -205c34 0 65 9 90 25c27 16 46 44 57 73v-1c12 33 18 81 18 140v491h-69v-496c0 -44 -4 -75 -9 -95c-13 -41 -44 -67 -87 -67c-28 0 -53 13 -67 34c-14 20 -24 58 -28 111z" />
    <glyph glyph-name="ij" unicode="&#x133;" horiz-adv-x="392" 
d="M85 629h64v87h-64v-87zM85 0h64v515h-64v-515zM278 628h64v88h-64v-88zM198 -145l-12 -62c18 -4 39 -8 51 -8c39 0 68 19 86 47h-1c12 24 20 69 20 132v551h-64v-549c0 -50 -5 -82 -12 -98c-9 -12 -21 -20 -38 -20c-4 0 -16 2 -30 7z" />
    <glyph glyph-name="napostrophe" unicode="&#x149;" horiz-adv-x="524" 
d="M178 0h65v282c0 70 12 118 35 144c23 23 54 38 86 38c19 0 38 -6 55 -18c14 -9 26 -27 32 -48c4 -18 8 -47 8 -84v-314h65v318c0 42 -2 72 -5 86c-3 24 -10 45 -21 62v0c-10 17 -27 32 -49 43c-21 12 -44 17 -70 17c-52 0 -98 -32 -144 -102v91h-57v-515zM81 635h37
c-1 -56 -16 -91 -44 -111c0 0 7 -7 7 -10c2 -2 5 -9 6 -13c26 17 41 34 50 56c8 17 12 50 12 92v76h-68v-90z" />
    <glyph glyph-name="minute" unicode="&#x2032;" horiz-adv-x="180" 
d="M69 473h38c3 8 5 17 8 26c6 20 12 41 18 59v-1c0 2 1 4 1 5c4 14 8 29 14 44c1 12 3 22 6 31v-1c4 25 8 52 14 80h-74c-2 -11 -4 -22 -6 -34c-5 -27 -10 -57 -14 -81c-2 -38 -4 -72 -5 -108v-20z" />
    <glyph glyph-name="second" unicode="&#x2033;" horiz-adv-x="318" 
d="M82 473h38c3 8 5 17 8 26c6 20 12 41 18 59v-1c0 2 1 4 1 5c4 14 8 29 14 44c1 12 3 22 6 31v-1c4 25 8 52 14 80h-74c-2 -11 -4 -22 -6 -34c-5 -27 -10 -57 -14 -81c-2 -38 -4 -72 -5 -108v-20zM194 473h38c3 8 5 17 8 26c6 20 12 41 18 59v-1c0 2 1 4 1 5
c4 14 8 29 14 44c1 12 3 22 6 31v-1c4 25 8 52 14 80h-74c-2 -11 -4 -22 -6 -34c-5 -27 -10 -57 -14 -81c-2 -38 -4 -72 -5 -108v-20z" />
    <glyph glyph-name="afii61248" unicode="&#x2105;" horiz-adv-x="756" 
d="M304 479l-40 5c-14 -63 -40 -91 -81 -91c-26 0 -50 14 -65 36c-16 25 -27 65 -27 115s11 88 27 112c17 25 41 37 67 37c33 0 61 -26 75 -75c3 0 6 1 9 2v-1c2 1 9 3 10 3c5 1 12 3 19 4c-15 66 -56 103 -115 103c-40 0 -72 -18 -98 -47c-22 -32 -34 -80 -34 -140
c0 -58 13 -106 34 -137v0c26 -30 59 -47 98 -47c31 0 60 11 81 34c19 20 33 48 40 87zM183 -26h48c91 210 182 423 272 635c18 42 34 78 51 120h-49c-70 -166 -139 -328 -209 -488c-20 -48 -45 -105 -66 -157c-17 -40 -31 -73 -47 -110zM472 178c0 50 10 87 28 111
c19 26 42 39 68 39s51 -15 68 -39c18 -23 28 -62 28 -109c0 -51 -10 -89 -28 -115c-17 -24 -41 -37 -68 -37c-26 0 -50 13 -68 37c-17 25 -28 63 -28 113zM429 178c0 -58 17 -107 39 -138c25 -31 60 -49 100 -49c43 0 76 16 101 49c24 31 37 79 37 143c0 56 -13 101 -37 131
c-26 34 -60 49 -101 49s-75 -15 -100 -49c-25 -31 -39 -77 -39 -136z" />
    <glyph glyph-name="afii61289" unicode="&#x2113;" horiz-adv-x="293" 
d="M154 436v118c0 60 3 99 9 115c6 10 14 16 24 16s20 -5 25 -16c8 -13 10 -30 10 -52c0 -20 -2 -41 -8 -64c-6 -17 -23 -57 -50 -117h-10zM24 204l32 -30c6 10 15 23 24 36c1 1 7 11 14 23v-132c0 -79 28 -113 77 -113c29 0 56 12 87 39v65c-3 -3 -6 -5 -8 -7
c-20 -16 -33 -27 -44 -34c-10 -5 -18 -9 -23 -9c-11 0 -17 6 -22 13c-4 10 -7 31 -7 62v210c47 79 77 139 92 181c16 43 25 80 25 109c0 34 -8 61 -24 81s-39 31 -61 31c-30 0 -52 -13 -69 -36h1c-14 -24 -24 -71 -24 -146v-230z" />
    <glyph glyph-name="H22073" unicode="&#x25a1;" horiz-adv-x="524" 
d="M93 433h336v-410h-336v410zM74 456v-456h376v456h-376z" />
    <glyph glyph-name="H18543" unicode="&#x25aa;" horiz-adv-x="318" 
d="M248 437h-180v-215h180v215z" />
    <glyph glyph-name="H18551" unicode="&#x25ab;" horiz-adv-x="318" 
d="M229 416v-171h-140v171h140zM248 437h-180v-215h180v215z" />
    <glyph glyph-name="H18533" unicode="&#x25cf;" horiz-adv-x="524" 
d="M263 493c-31 0 -60 -10 -88 -29c-29 -17 -51 -44 -65 -77c-16 -34 -24 -71 -24 -106c0 -58 16 -109 50 -150c34 -42 78 -63 127 -63c47 0 89 22 124 63v0c33 40 51 91 51 150c0 35 -8 72 -23 106c-16 31 -40 60 -67 77c-27 18 -56 29 -85 29z" />
    <glyph glyph-name="openbullet" unicode="&#x25e6;" horiz-adv-x="318" 
d="M160 425c21 0 38 -9 53 -28c14 -18 23 -41 23 -66c0 -26 -7 -50 -23 -69c-15 -17 -32 -27 -53 -27s-40 10 -55 28c-14 19 -22 42 -22 68c0 24 8 48 22 66c15 19 34 28 55 28zM160 448c-28 0 -52 -14 -72 -36c-16 -21 -26 -52 -26 -81c0 -32 10 -60 26 -83
c20 -22 45 -36 72 -36c26 0 50 13 69 36c16 22 28 51 28 83c0 30 -11 60 -28 81c-19 23 -42 36 -69 36z" />
    <glyph glyph-name="Amacron" unicode="&#x100;" horiz-adv-x="577" 
d="M185 285l70 226c10 39 22 91 31 140h11c10 -43 26 -96 42 -152c17 -54 34 -110 51 -163c4 -15 11 -36 16 -51h-221zM27 0h72c6 20 13 40 19 61s13 43 20 64c6 23 14 50 21 75c2 6 5 16 7 22h261l68 -222h81c-8 25 -16 49 -25 74c-56 165 -115 334 -168 496h-1
c-11 35 -24 73 -36 109c-5 13 -9 24 -13 37h-79c-12 -37 -24 -74 -36 -112c-32 -101 -65 -204 -95 -300s-65 -205 -96 -304zM172 784h247v57h-247v-57z" />
    <glyph glyph-name="amacron" unicode="&#x101;" 
d="M360 270v-45c0 -39 -4 -71 -12 -94c-23 -54 -70 -89 -129 -89c-62 0 -93 39 -93 92c0 18 1 33 11 48c7 12 16 25 32 31h-1c14 7 35 13 67 19c46 8 88 20 125 38zM356 61l11 -4c1 -21 5 -40 12 -57h64c-7 21 -11 39 -13 55c-3 23 -5 77 -5 159v120c0 40 0 65 -4 81
c-3 22 -11 43 -21 59v-1c-21 30 -67 53 -139 53c-37 0 -70 -7 -97 -18c-47 -23 -79 -67 -93 -130c8 -2 20 -3 26 -4c7 -1 20 -3 31 -5c4 -1 2 0 5 -1c8 37 21 61 37 76c19 16 46 23 80 23c37 0 68 -11 88 -31c15 -17 23 -45 23 -84v-7c0 -3 -1 -6 -1 -9v-13
c-35 -15 -79 -24 -136 -34c-28 -4 -51 -7 -66 -13c-55 -16 -101 -68 -101 -144c0 -41 14 -76 37 -104c25 -24 62 -40 106 -40c28 0 56 6 81 16c23 12 51 32 75 57zM138 613h247v57h-247v-57z" />
    <glyph glyph-name="Ccircumflex" unicode="&#x108;" horiz-adv-x="622" 
d="M587 218l-69 22c-26 -123 -92 -186 -179 -186c-37 0 -73 13 -105 37c-65 48 -96 147 -96 273c0 51 8 97 19 142c12 48 35 85 66 113c35 29 75 42 123 42c78 0 132 -46 164 -151c3 1 5 1 8 2c9 3 18 5 23 7c11 3 23 7 35 10c-18 62 -45 113 -80 145c-41 34 -91 55 -150 55
c-53 0 -101 -16 -145 -43v0c-43 -29 -77 -72 -98 -127c-25 -55 -35 -120 -35 -196c0 -69 10 -134 29 -193v0c43 -109 125 -182 249 -182c59 0 113 22 156 60c37 38 68 98 85 170zM338 860l47 -91h71c-11 18 -27 43 -37 55c-13 23 -29 46 -46 71h-75c-6 -11 -14 -22 -20 -31
c-7 -12 -14 -23 -20 -32c-7 -12 -19 -29 -29 -46v-1c-6 -8 -6 -8 -11 -16h71c13 23 36 66 49 91z" />
    <glyph glyph-name="ccircumflex" unicode="&#x109;" horiz-adv-x="438" 
d="M429 168l-62 10c-15 -90 -59 -131 -115 -131c-37 0 -69 16 -91 51v0c-24 33 -36 87 -36 159c0 73 13 126 37 160c23 33 57 51 95 51c48 0 85 -35 102 -106c4 0 9 1 13 2c9 1 16 3 22 4c4 1 9 2 14 3c4 1 10 3 13 3c-21 99 -79 152 -167 152c-36 0 -73 -11 -103 -31v0
c-58 -42 -93 -131 -93 -241c0 -82 20 -151 53 -197c36 -44 87 -69 141 -69c48 0 87 16 119 50c26 29 47 71 58 130zM265 686l47 -91h71c-11 18 -27 43 -37 55c-13 23 -29 46 -46 71h-75c-6 -11 -14 -22 -20 -31c-7 -12 -14 -23 -20 -32c-7 -12 -19 -29 -29 -46v-1
c-6 -8 -6 -8 -11 -16h71c13 23 36 66 49 91z" />
    <glyph glyph-name="Cdotaccent" unicode="&#x10a;" horiz-adv-x="622" 
d="M587 218l-69 22c-26 -123 -92 -186 -179 -186c-37 0 -73 13 -105 37c-65 48 -96 147 -96 273c0 51 8 97 19 142c12 48 35 85 66 113c35 29 75 42 123 42c78 0 132 -46 164 -151c3 1 5 1 8 2c9 3 18 5 23 7c11 3 23 7 35 10c-18 62 -45 113 -80 145c-41 34 -91 55 -150 55
c-53 0 -101 -16 -145 -43v0c-43 -29 -77 -72 -98 -127c-25 -55 -35 -120 -35 -196c0 -69 10 -134 29 -193v0c43 -109 125 -182 249 -182c59 0 113 22 156 60c37 38 68 98 85 170zM297 790h80v97h-80v-97z" />
    <glyph glyph-name="cdotaccent" unicode="&#x10b;" horiz-adv-x="438" 
d="M429 168l-62 10c-15 -90 -59 -131 -115 -131c-37 0 -69 16 -91 51v0c-24 33 -36 87 -36 159c0 73 13 126 37 160c23 33 57 51 95 51c48 0 85 -35 102 -106c4 0 9 1 13 2c9 1 16 3 22 4c4 1 9 2 14 3c4 1 10 3 13 3c-21 99 -79 152 -167 152c-36 0 -73 -11 -103 -31v0
c-58 -42 -93 -131 -93 -241c0 -82 20 -151 53 -197c36 -44 87 -69 141 -69c48 0 87 16 119 50c26 29 47 71 58 130zM220 595h80v97h-80v-97z" />
    <glyph glyph-name="Emacron" unicode="&#x112;" horiz-adv-x="577" 
d="M93 0h438v70h-370v266h333v70h-333v240h356v70h-424v-716zM193 790h247v57h-247v-57z" />
    <glyph glyph-name="emacron" unicode="&#x113;" 
d="M383 301h-258c6 57 20 97 43 124v0c23 29 52 43 89 43c38 0 71 -18 94 -53c15 -24 26 -62 32 -114zM444 145l-66 10c-25 -77 -64 -108 -117 -108c-37 0 -70 17 -94 48c-23 29 -41 86 -44 147h327v15c0 87 -18 153 -55 200c-36 45 -81 69 -138 69c-60 0 -109 -24 -145 -71
c-37 -47 -55 -115 -55 -203c0 -79 22 -148 54 -194c36 -42 89 -70 150 -70c91 0 155 56 183 157zM129 613h247v57h-247v-57z" />
    <glyph glyph-name="Ebreve" unicode="&#x114;" horiz-adv-x="577" 
d="M93 0h438v70h-370v266h333v70h-333v240h356v70h-424v-716zM425 892h-40c-12 -45 -34 -68 -78 -68c-36 0 -61 23 -72 68h-39c11 -76 51 -114 115 -114c59 0 100 43 114 114z" />
    <glyph glyph-name="ebreve" unicode="&#x115;" 
d="M383 301h-258c6 57 20 97 43 124v0c23 29 52 43 89 43c38 0 71 -18 94 -53c15 -24 26 -62 32 -114zM444 145l-66 10c-25 -77 -64 -108 -117 -108c-37 0 -70 17 -94 48c-23 29 -41 86 -44 147h327v15c0 87 -18 153 -55 200c-36 45 -81 69 -138 69c-60 0 -109 -24 -145 -71
c-37 -47 -55 -115 -55 -203c0 -79 22 -148 54 -194c36 -42 89 -70 150 -70c91 0 155 56 183 157zM376 715h-40c-12 -45 -34 -68 -78 -68c-36 0 -61 23 -72 68h-39c11 -76 51 -114 115 -114c59 0 100 43 114 114z" />
    <glyph glyph-name="Edotaccent" unicode="&#x116;" horiz-adv-x="577" 
d="M93 0h438v70h-370v266h333v70h-333v240h356v70h-424v-716zM277 772h80v97h-80v-97z" />
    <glyph glyph-name="edotaccent" unicode="&#x117;" 
d="M383 301h-258c6 57 20 97 43 124v0c23 29 52 43 89 43c38 0 71 -18 94 -53c15 -24 26 -62 32 -114zM444 145l-66 10c-25 -77 -64 -108 -117 -108c-37 0 -70 17 -94 48c-23 29 -41 86 -44 147h327v15c0 87 -18 153 -55 200c-36 45 -81 69 -138 69c-60 0 -109 -24 -145 -71
c-37 -47 -55 -115 -55 -203c0 -79 22 -148 54 -194c36 -42 89 -70 150 -70c91 0 155 56 183 157zM224 595h80v97h-80v-97z" />
    <glyph glyph-name="Gcircumflex" unicode="&#x11c;" horiz-adv-x="667" 
d="M371 287h178v-148c-20 -20 -46 -38 -79 -56c-33 -16 -68 -24 -103 -24c-38 0 -80 12 -114 33c-70 45 -112 138 -112 268c0 53 9 106 23 151c28 79 92 150 202 150c30 0 60 -8 85 -20s44 -31 60 -52c12 -21 25 -50 33 -85c19 6 39 13 54 19c3 0 6 1 8 2
c-10 49 -22 80 -42 108c-19 29 -49 54 -81 71v0c-35 17 -74 25 -117 25c-60 0 -114 -17 -158 -44h1c-41 -28 -80 -80 -104 -135c-21 -57 -36 -129 -36 -196c0 -69 13 -134 36 -190s63 -102 106 -131v0c49 -29 102 -45 161 -45c84 0 167 37 245 111v258h-246v-70zM376 857
l47 -91h71c-11 18 -27 43 -37 55c-13 23 -29 46 -46 71h-75c-6 -11 -14 -22 -20 -31c-7 -12 -14 -23 -20 -32c-7 -12 -19 -29 -29 -46v-1c-6 -8 -6 -8 -11 -16h71c13 23 36 66 49 91z" />
    <glyph glyph-name="gcircumflex" unicode="&#x11d;" 
d="M119 267c0 65 13 114 35 150c24 33 55 50 88 50c36 0 65 -16 90 -51c25 -36 37 -85 37 -152c0 -72 -11 -123 -36 -157c-25 -32 -54 -48 -89 -48s-66 16 -90 50c-22 34 -35 87 -35 158zM130 -72l-61 12c3 -50 19 -90 43 -114c31 -24 77 -41 124 -41c43 0 80 9 108 28
c29 19 51 48 65 80c12 32 19 91 19 171v451h-57v-75c-46 56 -90 86 -133 86c-36 0 -72 -13 -99 -34c-27 -23 -49 -57 -64 -96c-14 -40 -21 -88 -21 -135c0 -73 16 -134 47 -185h-1c35 -50 79 -76 137 -76c41 0 82 26 127 80v-34c0 -49 -3 -84 -6 -102
c-14 -62 -51 -101 -122 -101c-32 0 -60 10 -81 28c-11 12 -20 30 -25 57zM244 686l47 -91h71c-11 18 -27 43 -37 55c-13 23 -29 46 -46 71h-75c-6 -11 -14 -22 -20 -31c-7 -12 -14 -23 -20 -32c-7 -12 -19 -29 -29 -46v-1c-6 -8 -6 -8 -11 -16h71c13 23 36 66 49 91z" />
    <glyph glyph-name="Gdotaccent" unicode="&#x120;" horiz-adv-x="667" 
d="M371 287h178v-148c-20 -20 -46 -38 -79 -56c-33 -16 -68 -24 -103 -24c-38 0 -80 12 -114 33c-70 45 -112 138 -112 268c0 53 9 106 23 151c28 79 92 150 202 150c30 0 60 -8 85 -20s44 -31 60 -52c12 -21 25 -50 33 -85c19 6 39 13 54 19c3 0 6 1 8 2
c-10 49 -22 80 -42 108c-19 29 -49 54 -81 71v0c-35 17 -74 25 -117 25c-60 0 -114 -17 -158 -44h1c-41 -28 -80 -80 -104 -135c-21 -57 -36 -129 -36 -196c0 -69 13 -134 36 -190s63 -102 106 -131v0c49 -29 102 -45 161 -45c84 0 167 37 245 111v258h-246v-70zM335 766h80
v97h-80v-97z" />
    <glyph glyph-name="gdotaccent" unicode="&#x121;" 
d="M119 267c0 65 13 114 35 150c24 33 55 50 88 50c36 0 65 -16 90 -51c25 -36 37 -85 37 -152c0 -72 -11 -123 -36 -157c-25 -32 -54 -48 -89 -48s-66 16 -90 50c-22 34 -35 87 -35 158zM130 -72l-61 12c3 -50 19 -90 43 -114c31 -24 77 -41 124 -41c43 0 80 9 108 28
c29 19 51 48 65 80c12 32 19 91 19 171v451h-57v-75c-46 56 -90 86 -133 86c-36 0 -72 -13 -99 -34c-27 -23 -49 -57 -64 -96c-14 -40 -21 -88 -21 -135c0 -73 16 -134 47 -185h-1c35 -50 79 -76 137 -76c41 0 82 26 127 80v-34c0 -49 -3 -84 -6 -102
c-14 -62 -51 -101 -122 -101c-32 0 -60 10 -81 28c-11 12 -20 30 -25 57zM215 595h80v97h-80v-97z" />
    <glyph glyph-name="Gcommaaccent" unicode="&#x122;" horiz-adv-x="667" 
d="M371 287h178v-148c-20 -20 -46 -38 -79 -56c-33 -16 -68 -24 -103 -24c-38 0 -80 12 -114 33c-70 45 -112 138 -112 268c0 53 9 106 23 151c28 79 92 150 202 150c30 0 60 -8 85 -20s44 -31 60 -52c12 -21 25 -50 33 -85c19 6 39 13 54 19c3 0 6 1 8 2
c-10 49 -22 80 -42 108c-19 29 -49 54 -81 71v0c-35 17 -74 25 -117 25c-60 0 -114 -17 -158 -44h1c-41 -28 -80 -80 -104 -135c-21 -57 -36 -129 -36 -196c0 -69 13 -134 36 -190s63 -102 106 -131v0c49 -29 102 -45 161 -45c84 0 167 37 245 111v258h-246v-70zM350 -4
l-17 -74c53 -4 60 -20 62 -38c0 -13 -4 -26 -14 -34c-12 -9 -32 -13 -55 -13h-5c-7 0 -7 -1 -31 1c0 -5 0 -10 -1 -13v-5c0 -4 0 -8 -1 -13c0 -4 -1 -9 -1 -12c20 -4 36 -5 53 -5c39 0 68 8 87 27c18 17 26 37 26 60c0 28 -24 56 -71 66l13 53h-45z" />
    <glyph glyph-name="gcommaaccent" unicode="&#x123;" 
d="M263 655h-42c8 42 21 69 43 86c-4 7 -11 20 -15 29c-45 -28 -62 -71 -62 -135v-51h76v71zM106 267c0 61 11 110 35 147v0c21 35 51 53 88 53c41 0 72 -20 95 -56c21 -39 32 -87 32 -145c0 -67 -12 -122 -35 -156c-24 -33 -53 -51 -90 -51c-35 0 -64 16 -90 48
c-22 34 -35 87 -35 160zM118 -72l-62 12c0 -53 12 -83 39 -110c28 -30 71 -45 130 -45c41 0 78 9 108 30c32 20 53 48 64 83c12 35 18 90 18 166v451h-57v-75c-46 56 -89 86 -133 86c-57 0 -104 -30 -136 -74c-31 -49 -48 -116 -48 -194c0 -72 15 -133 48 -182
c32 -51 76 -76 136 -76c42 0 83 25 126 79c0 -79 -4 -123 -9 -147c-11 -47 -52 -89 -119 -89c-61 0 -94 30 -105 85z" />
    <glyph glyph-name="Hcircumflex" unicode="&#x124;" horiz-adv-x="622" 
d="M92 0h68v345h325v-345h71v716h-71v-301h-325v301h-68v-716zM337 863l47 -91h71c-11 18 -27 43 -37 55c-13 23 -29 46 -46 71h-75c-6 -11 -14 -22 -20 -31c-7 -12 -14 -23 -20 -32c-7 -12 -19 -29 -29 -46v-1c-6 -8 -6 -8 -11 -16h71c13 23 36 66 49 91z" />
    <glyph glyph-name="hcircumflex" unicode="&#x125;" 
d="M81 0h65v282c0 43 3 76 12 101c11 26 24 47 43 60c20 14 42 21 66 21c61 0 97 -41 97 -136v-328h64v328c0 51 -6 89 -16 115c-20 50 -68 83 -130 83c-43 0 -91 -31 -136 -83v273h-65v-716zM284 863l47 -91h71c-11 18 -27 43 -37 55c-13 23 -29 46 -46 71h-75
c-6 -11 -14 -22 -20 -31c-7 -12 -14 -23 -20 -32c-7 -12 -19 -29 -29 -46v-1c-6 -8 -6 -8 -11 -16h71c13 23 36 66 49 91z" />
    <glyph glyph-name="Hbar" unicode="&#x126;" horiz-adv-x="622" 
d="M147 549h325v-134h-325v134zM79 549v-549h68v345h325v-345h71v549h53v57h-53v110h-71v-110h-325v110h-68v-110h-56v-57h56z" />
    <glyph glyph-name="hbar" unicode="&#x127;" 
d="M69 598v-598h64v282c0 65 12 113 34 140c22 30 51 42 84 42c68 0 101 -45 101 -136v-328h63v328c0 81 -17 135 -44 161c-31 25 -65 37 -100 37c-47 0 -92 -28 -138 -82v154h151v51h-151v67h-64v-67h-53v-51h53z" />
    <glyph glyph-name="Itilde" unicode="&#x128;" horiz-adv-x="255" 
d="M107 0h68v716h-68v-716zM3 785h44c2 15 5 27 11 33c8 9 16 15 26 15c7 0 23 -6 43 -19c26 -18 49 -27 66 -27c39 0 68 32 75 98h-44c-6 -34 -17 -43 -34 -43c-11 0 -24 5 -41 15c-26 17 -51 27 -68 27c-23 0 -41 -11 -56 -30c-13 -14 -19 -38 -22 -69z" />
    <glyph glyph-name="itilde" unicode="&#x129;" horiz-adv-x="255" 
d="M111 0h62v515h-62v-515zM10 608h44c2 15 5 27 11 33c8 9 16 15 26 15c7 0 23 -6 43 -19c26 -18 49 -27 66 -27c39 0 68 32 75 98h-44c-6 -34 -17 -43 -34 -43c-11 0 -24 5 -41 15c-26 17 -51 27 -68 27c-23 0 -41 -11 -56 -30c-13 -14 -19 -38 -22 -69z" />
    <glyph glyph-name="Imacron" unicode="&#x12a;" horiz-adv-x="255" 
d="M107 0h68v716h-68v-716zM16 777h247v57h-247v-57z" />
    <glyph glyph-name="imacron" unicode="&#x12b;" horiz-adv-x="255" 
d="M111 0h62v515h-62v-515zM18 613h247v57h-247v-57z" />
    <glyph glyph-name="Ibreve" unicode="&#x12c;" horiz-adv-x="255" 
d="M107 0h68v716h-68v-716zM259 879h-40c-12 -45 -34 -68 -78 -68c-36 0 -61 23 -72 68h-39c11 -76 51 -114 115 -114c59 0 100 43 114 114z" />
    <glyph glyph-name="ibreve" unicode="&#x12d;" horiz-adv-x="255" 
d="M111 0h62v515h-62v-515zM257 715h-40c-12 -45 -34 -68 -78 -68c-36 0 -61 23 -72 68h-39c11 -76 51 -114 115 -114c59 0 100 43 114 114z" />
    <glyph glyph-name="Iogonek" unicode="&#x12e;" horiz-adv-x="255" 
d="M136 0h30v716h-71v-726c-8 -41 -12 -76 -12 -100c0 -32 7 -57 23 -76v1c16 -19 35 -27 59 -27s56 9 87 26v44c-26 -13 -48 -19 -64 -19c-18 0 -34 8 -46 23c-11 16 -19 35 -19 60c0 19 5 47 13 78z" />
    <glyph glyph-name="iogonek" unicode="&#x12f;" horiz-adv-x="208" 
d="M71 629h64v87h-64v-87zM113 0h22v515h-64v-523c-9 -43 -13 -82 -13 -102c0 -29 7 -56 23 -74c13 -19 35 -28 61 -28c23 0 54 9 84 26v43c-25 -13 -47 -18 -62 -18c-19 0 -34 8 -48 23c-10 16 -17 35 -17 60c0 20 5 48 14 78z" />
    <glyph glyph-name="Jcircumflex" unicode="&#x134;" horiz-adv-x="438" 
d="M113 203l-62 -10c3 -134 59 -205 157 -205c34 0 65 9 90 25c27 16 46 44 57 73v-1c12 33 18 81 18 140v491h-69v-496c0 -44 -4 -75 -9 -95c-13 -41 -44 -67 -87 -67c-28 0 -53 13 -67 34c-14 20 -24 58 -28 111zM346 863l47 -91h71c-11 18 -27 43 -37 55
c-13 23 -29 46 -46 71h-75c-6 -11 -14 -22 -20 -31c-7 -12 -14 -23 -20 -32c-7 -12 -19 -29 -29 -46v-1c-6 -8 -6 -8 -11 -16h71c13 23 36 66 49 91z" />
    <glyph glyph-name="jcircumflex" unicode="&#x135;" horiz-adv-x="208" 
d="M105 686l49 -91h69c-10 16 -28 41 -39 57l-9 15v0c-12 18 -23 36 -35 54h-74c-1 -3 -3 -6 -5 -9v0c-4 -6 -9 -14 -13 -19l-3 -5v1c-18 -30 -37 -59 -58 -94h69c1 1 2 3 2 3c4 8 10 19 15 27v0c8 16 23 44 32 61zM-9 -146l-11 -61c17 -4 39 -8 50 -8c39 0 67 13 81 41
c15 28 25 74 25 138v551h-64v-549c0 -45 -5 -78 -10 -94c-8 -15 -20 -24 -41 -24c-4 0 -18 3 -30 6z" />
    <glyph glyph-name="Kcommaaccent" unicode="&#x136;" horiz-adv-x="577" 
d="M86 0h70v250c33 40 71 84 105 123l216 -373h91c-11 17 -25 40 -36 59c-25 42 -52 86 -75 122c-50 85 -100 168 -150 247l246 288h-91c-65 -80 -145 -176 -218 -263c-4 -6 -9 -11 -13 -17c-21 -27 -54 -66 -75 -91v371h-70v-716zM302 -40v-37h8c37 0 56 -13 56 -40
c0 -31 -24 -46 -73 -46h-9c-2 0 -2 -1 -3 -1c-3 -1 -7 -1 -20 2c0 -5 0 -11 -1 -13v-5c0 -4 0 -8 -1 -14c0 -4 -1 -8 -1 -12c21 -3 40 -4 52 -4c40 0 70 8 88 27c18 18 26 37 26 61c0 21 -7 40 -22 57c-17 18 -43 27 -79 27h-9c-1 0 -3 0 -12 -2z" />
    <glyph glyph-name="kcommaaccent" unicode="&#x137;" horiz-adv-x="438" 
d="M81 0h66v207c17 22 40 47 58 68l145 -275h78c-57 104 -123 225 -180 326l158 189h-79c-28 -36 -61 -76 -94 -118c-26 -33 -61 -77 -86 -107v426h-66v-716zM234 -40v-37h8c37 0 56 -13 56 -40c0 -31 -24 -46 -73 -46h-9c-2 0 -2 -1 -3 -1c-3 -1 -7 -1 -20 2
c0 -5 0 -11 -1 -13v-5c0 -4 0 -8 -1 -14c0 -4 -1 -8 -1 -12c21 -3 40 -4 52 -4c40 0 70 8 88 27c18 18 26 37 26 61c0 21 -7 40 -22 57c-17 18 -43 27 -79 27h-9c-1 0 -3 0 -12 -2z" />
    <glyph glyph-name="kgreenlandic" unicode="&#x138;" horiz-adv-x="438" 
d="M67 0h66v207c10 12 21 26 31 37c7 8 20 23 27 31l145 -275h78c-17 29 -34 62 -50 92c-44 78 -90 163 -131 234l160 189h-79c-45 -58 -105 -131 -156 -193c-3 -5 -8 -10 -9 -11v1c-3 -4 -14 -22 -16 -25v228h-66v-515z" />
    <glyph glyph-name="Lcommaaccent" unicode="&#x13b;" 
d="M87 0h367v70h-297v646h-70v-716zM254 -40v-37h8c37 0 56 -13 56 -40c0 -31 -24 -46 -73 -46h-9c-2 0 -2 -1 -3 -1c-3 -1 -7 -1 -20 2c0 -5 0 -11 -1 -13v-5c0 -4 0 -8 -1 -14c0 -4 -1 -8 -1 -12c21 -3 40 -4 52 -4c40 0 70 8 88 27c18 18 26 37 26 61c0 21 -7 40 -22 57
c-17 18 -43 27 -79 27h-9c-1 0 -3 0 -12 -2z" />
    <glyph glyph-name="lcommaaccent" unicode="&#x13c;" horiz-adv-x="208" 
d="M82 0h64v716h-64v-716zM73 -40v-37h8c37 0 56 -13 56 -40c0 -31 -24 -46 -73 -46h-9c-2 0 -2 -1 -3 -1c-3 -1 -7 -1 -20 2c0 -5 0 -11 -1 -13v-5c0 -4 0 -8 -1 -14c0 -4 -1 -8 -1 -12c21 -3 40 -4 52 -4c40 0 70 8 88 27c18 18 26 37 26 61c0 21 -7 40 -22 57
c-17 18 -43 27 -79 27h-9c-1 0 -3 0 -12 -2z" />
    <glyph glyph-name="Ncommaaccent" unicode="&#x145;" horiz-adv-x="622" 
d="M89 0h65v572l8 2l319 -574h73v716h-66v-572l-8 -2l-318 574h-73v-716zM312 -40v-37h8c37 0 56 -13 56 -40c0 -31 -24 -46 -73 -46h-9c-2 0 -2 -1 -3 -1c-3 -1 -7 -1 -20 2c0 -5 0 -11 -1 -13v-5c0 -4 0 -8 -1 -14c0 -4 -1 -8 -1 -12c21 -3 40 -4 52 -4c40 0 70 8 88 27
c18 18 26 37 26 61c0 21 -7 40 -22 57c-17 18 -43 27 -79 27h-9c-1 0 -3 0 -12 -2z" />
    <glyph glyph-name="ncommaaccent" unicode="&#x146;" 
d="M81 0h65v282c0 70 12 118 35 144c23 23 54 38 86 38c19 0 38 -6 55 -18c14 -9 26 -27 32 -48c4 -18 8 -47 8 -84v-314h65v318c0 42 -2 72 -5 86c-3 24 -10 45 -21 62v0c-10 17 -27 32 -49 43c-21 12 -44 17 -70 17c-52 0 -98 -32 -144 -102v91h-57v-515zM218 -40v-37h8
c37 0 56 -13 56 -40c0 -31 -24 -46 -73 -46h-9c-2 0 -2 -1 -3 -1c-3 -1 -7 -1 -20 2c0 -5 0 -11 -1 -13v-5c0 -4 0 -8 -1 -14c0 -4 -1 -8 -1 -12c21 -3 40 -4 52 -4c40 0 70 8 88 27c18 18 26 37 26 61c0 21 -7 40 -22 57c-17 18 -43 27 -79 27h-9c-1 0 -3 0 -12 -2z" />
    <glyph glyph-name="Eng" unicode="&#x14a;" horiz-adv-x="623" 
d="M80 716v-716h68v393c0 68 7 121 19 154h-1c10 34 30 61 59 84c29 20 63 32 98 32c115 0 173 -99 173 -297c1 -208 -59 -301 -122 -308c-15 1 -39 9 -63 24c-1 -1 -2 -3 -3 -4v0c-3 -6 -7 -13 -9 -16c-2 -5 -5 -13 -9 -20c-4 -9 -7 -15 -11 -23c35 -21 64 -31 95 -31
c58 0 105 31 139 93c35 63 53 157 53 288c0 89 -9 158 -27 207v-1c-36 94 -97 154 -192 154c-34 0 -66 -6 -97 -20c-26 -10 -60 -42 -102 -94v101h-68z" />
    <glyph glyph-name="eng" unicode="&#x14b;" 
d="M416 -36v354c0 48 -5 89 -12 116v0c-8 23 -27 49 -46 65c-22 18 -54 27 -88 27c-51 0 -98 -32 -144 -102v91h-56v-515h64v282c0 68 12 117 35 143c23 25 53 39 86 39c68 0 97 -46 97 -150v-348c0 -46 -4 -76 -11 -92s-21 -26 -40 -26c-7 0 -16 2 -31 7
c-1 -4 -2 -10 -3 -17c-1 -5 4 5 -3 -14c-1 -3 -2 -7 -2 -12c-2 -8 -2 -14 -5 -20c20 -4 39 -7 54 -7c38 0 65 13 80 41c16 28 25 74 25 138z" />
    <glyph glyph-name="Omacron" unicode="&#x14c;" horiz-adv-x="667" 
d="M137 347c0 109 24 193 63 242c40 46 92 72 148 72c40 0 78 -12 112 -37c65 -51 99 -144 99 -266c0 -94 -22 -172 -59 -224c-40 -52 -92 -80 -153 -80c-59 0 -109 27 -151 79c-39 53 -59 123 -59 214zM64 349c0 -64 11 -123 34 -180c22 -53 59 -100 100 -132
c42 -31 95 -49 149 -49c49 0 103 16 145 44c43 29 81 76 103 131c24 56 36 122 36 194s-12 139 -34 192c-22 55 -55 101 -100 133c-44 31 -93 47 -149 47c-85 0 -151 -34 -204 -101c-52 -66 -80 -161 -80 -279zM231 795h247v57h-247v-57z" />
    <glyph glyph-name="omacron" unicode="&#x14d;" 
d="M126 256c0 72 13 124 36 159c29 36 58 52 98 52c39 0 68 -16 95 -52c25 -35 38 -87 38 -154c0 -73 -13 -127 -38 -161c-25 -35 -57 -53 -95 -53c-40 0 -68 16 -98 52c-23 34 -36 87 -36 157zM59 256c0 -80 24 -153 55 -198c37 -43 88 -70 146 -70c38 0 71 11 103 32v0
c30 20 55 49 69 87c18 39 28 92 28 158c0 82 -20 146 -57 192c-36 45 -84 69 -143 69c-52 0 -100 -20 -134 -58c-43 -45 -67 -115 -67 -212zM133 613h247v57h-247v-57z" />
    <glyph glyph-name="Obreve" unicode="&#x14e;" horiz-adv-x="667" 
d="M137 347c0 109 24 193 63 242c40 46 92 72 148 72c40 0 78 -12 112 -37c65 -51 99 -144 99 -266c0 -94 -22 -172 -59 -224c-40 -52 -92 -80 -153 -80c-59 0 -109 27 -151 79c-39 53 -59 123 -59 214zM64 349c0 -64 11 -123 34 -180c22 -53 59 -100 100 -132
c42 -31 95 -49 149 -49c49 0 103 16 145 44c43 29 81 76 103 131c24 56 36 122 36 194s-12 139 -34 192c-22 55 -55 101 -100 133c-44 31 -93 47 -149 47c-85 0 -151 -34 -204 -101c-52 -66 -80 -161 -80 -279zM470 892h-40c-12 -45 -34 -68 -78 -68c-36 0 -61 23 -72 68
h-39c11 -76 51 -114 115 -114c59 0 100 43 114 114z" />
    <glyph glyph-name="obreve" unicode="&#x14f;" 
d="M126 256c0 72 13 124 36 159c29 36 58 52 98 52c39 0 68 -16 95 -52c25 -35 38 -87 38 -154c0 -73 -13 -127 -38 -161c-25 -35 -57 -53 -95 -53c-40 0 -68 16 -98 52c-23 34 -36 87 -36 157zM59 256c0 -80 24 -153 55 -198c37 -43 88 -70 146 -70c38 0 71 11 103 32v0
c30 20 55 49 69 87c18 39 28 92 28 158c0 82 -20 146 -57 192c-36 45 -84 69 -143 69c-52 0 -100 -20 -134 -58c-43 -45 -67 -115 -67 -212zM372 715h-40c-12 -45 -34 -68 -78 -68c-36 0 -61 23 -72 68h-39c11 -76 51 -114 115 -114c59 0 100 43 114 114z" />
    <glyph glyph-name="Rcommaaccent" unicode="&#x156;" horiz-adv-x="622" 
d="M159 393v258h197c46 0 80 -13 101 -35c21 -23 33 -55 33 -92c0 -25 -5 -48 -17 -71c-22 -41 -62 -60 -135 -60h-179zM90 0h69v325h98c22 0 37 -2 48 -4c37 -12 72 -52 135 -173c26 -49 52 -98 78 -148h88c-16 29 -37 69 -50 98v-1c-9 16 -19 33 -27 50
c-7 14 -15 26 -21 39c-21 38 -42 68 -66 97h1c-11 9 -32 26 -66 47c74 15 121 38 146 68c27 35 39 78 39 126c0 39 -7 75 -24 105c-16 34 -36 56 -63 67c-28 13 -68 20 -123 20h-262v-716zM312 -40v-37h8c37 0 56 -13 56 -40c0 -31 -24 -46 -73 -46h-9c-2 0 -2 -1 -3 -1
c-3 -1 -7 -1 -20 2c0 -5 0 -11 -1 -13v-5c0 -4 0 -8 -1 -14c0 -4 -1 -8 -1 -12c21 -3 40 -4 52 -4c40 0 70 8 88 27c18 18 26 37 26 61c0 21 -7 40 -22 57c-17 18 -43 27 -79 27h-9c-1 0 -3 0 -12 -2z" />
    <glyph glyph-name="rcommaaccent" unicode="&#x157;" horiz-adv-x="301" 
d="M81 0h64v270c0 37 5 76 13 106c13 45 42 73 77 73c15 0 31 -4 51 -16v0c4 9 9 22 10 30c3 10 9 26 11 38c-25 18 -47 25 -68 25c-18 0 -33 -6 -47 -16c-12 -11 -28 -34 -44 -72l-9 2v75h-58v-515zM133 -40v-37h8c37 0 56 -13 56 -40c0 -31 -24 -46 -73 -46h-9
c-2 0 -2 -1 -3 -1c-3 -1 -7 -1 -20 2c0 -5 0 -11 -1 -13v-5c0 -4 0 -8 -1 -14c0 -4 -1 -8 -1 -12c21 -3 40 -4 52 -4c40 0 70 8 88 27c18 18 26 37 26 61c0 21 -7 40 -22 57c-17 18 -43 27 -79 27h-9c-1 0 -3 0 -12 -2z" />
    <glyph glyph-name="Scircumflex" unicode="&#x15c;" horiz-adv-x="577" 
d="M128 227l-66 -7c3 -47 15 -86 32 -120c42 -72 116 -112 220 -112c44 0 82 9 116 28c31 18 58 47 76 78c16 32 27 68 27 105c0 74 -30 132 -99 171c-23 13 -73 29 -134 46c-63 18 -106 36 -123 54s-25 42 -25 72c0 32 12 60 37 83c23 23 58 34 109 34
c88 0 137 -48 150 -140c10 1 23 2 30 3c2 0 4 1 6 1l30 3c-3 38 -12 76 -28 101c-36 67 -106 102 -193 102c-41 0 -77 -8 -111 -24h1c-29 -17 -56 -40 -72 -73c-16 -29 -25 -62 -25 -97c0 -64 28 -117 82 -153c21 -13 60 -28 116 -44c56 -17 91 -27 108 -36v0
c51 -26 73 -63 74 -111c3 -72 -58 -134 -155 -132c-34 0 -65 7 -93 21c-54 28 -79 74 -90 147zM297 860l47 -91h71c-11 18 -27 43 -37 55c-13 23 -29 46 -46 71h-75c-6 -11 -14 -22 -20 -31c-7 -12 -14 -23 -20 -32c-7 -12 -19 -29 -29 -46v-1c-6 -8 -6 -8 -11 -16h71
c13 23 36 66 49 91z" />
    <glyph glyph-name="scircumflex" unicode="&#x15d;" horiz-adv-x="438" 
d="M117 156l-63 -13c20 -102 75 -155 181 -155c33 0 63 7 90 20c25 15 46 34 59 60c14 26 20 51 20 79c0 29 -6 54 -15 73c-11 19 -29 35 -46 46h1c-20 8 -60 23 -111 41c-14 5 -28 9 -37 12v0c-15 5 -24 7 -29 10c-13 8 -25 17 -32 26c-7 11 -9 22 -9 38c0 21 8 39 24 53v0
c15 14 43 22 76 22c57 0 88 -30 100 -86c3 0 8 1 12 2c3 0 6 1 8 1c6 1 15 3 24 4h1c7 1 10 2 17 3c-7 32 -15 55 -25 70c-24 38 -77 64 -143 64c-44 0 -86 -15 -108 -34c-29 -26 -47 -66 -47 -111c0 -24 6 -47 14 -67c10 -20 25 -35 47 -46c21 -13 60 -28 111 -44
c38 -12 66 -22 77 -31c17 -12 25 -31 25 -54c0 -25 -9 -47 -28 -66c-16 -18 -41 -26 -76 -26c-66 0 -106 37 -118 109zM240 686l47 -91h71c-11 18 -27 43 -37 55c-13 23 -29 46 -46 71h-75c-6 -11 -14 -22 -20 -31c-7 -12 -14 -23 -20 -32c-7 -12 -19 -29 -29 -46v-1
c-6 -8 -6 -8 -11 -16h71c13 23 36 66 49 91z" />
    <glyph glyph-name="Tbar" unicode="&#x166;" horiz-adv-x="530" 
d="M230 314v-314h71v314h135v50h-135v282h199v70h-468v-70h198v-282h-134v-50h134z" />
    <glyph glyph-name="tbar" unicode="&#x167;" horiz-adv-x="255" 
d="M144 699l3 3l-8 3v-10c2 1 3 3 5 4zM76 256v-109c0 -45 2 -76 6 -94c6 -35 37 -60 93 -60c13 0 29 3 49 6c-1 6 -4 17 -5 20c0 9 -2 24 -4 39v0c-1 4 -1 2 -1 5c-13 -1 -22 -2 -28 -2c-21 0 -33 7 -39 19c-5 12 -8 33 -8 63v113h71v51h-71v153h74v55h-74v180
c-19 -14 -47 -33 -63 -46v-134h-55v-55h55v-153h-55v-51h55z" />
    <glyph glyph-name="Utilde" unicode="&#x168;" horiz-adv-x="622" 
d="M485 716v-413c0 -95 -13 -159 -39 -193c-27 -34 -69 -51 -128 -51c-37 0 -66 9 -91 25c-25 17 -41 43 -53 77c-8 28 -15 78 -15 142v413h-67v-415c0 -76 7 -137 22 -180v1c31 -82 102 -134 210 -134c58 0 105 12 139 38c33 27 59 60 71 103c14 43 22 100 22 172v415h-71z
M200 782h44c2 15 5 27 11 33c8 9 16 15 26 15c7 0 23 -6 43 -19c26 -18 49 -27 66 -27c39 0 68 32 75 98h-44c-6 -34 -17 -43 -34 -43c-11 0 -24 5 -41 15c-26 17 -51 27 -68 27c-23 0 -41 -11 -56 -30c-13 -14 -19 -38 -22 -69z" />
    <glyph glyph-name="utilde" unicode="&#x169;" 
d="M368 0h57v515h-65v-276c0 -45 -4 -82 -14 -109c-8 -24 -22 -45 -42 -59c-21 -14 -41 -21 -65 -21c-46 0 -81 30 -91 81c-2 17 -4 50 -4 98v286h-65v-321c0 -37 2 -66 5 -83v0c4 -25 12 -45 23 -64c9 -15 28 -31 47 -42c21 -10 46 -17 71 -17c49 0 97 35 143 105v-93z
M125 608h44c2 15 5 27 11 33c8 9 16 15 26 15c7 0 23 -6 43 -19c26 -18 49 -27 66 -27c39 0 68 32 75 98h-44c-6 -34 -17 -43 -34 -43c-11 0 -24 5 -41 15c-26 17 -51 27 -68 27c-23 0 -41 -11 -56 -30c-13 -14 -19 -38 -22 -69z" />
    <glyph glyph-name="Umacron" unicode="&#x16a;" horiz-adv-x="622" 
d="M485 716v-413c0 -95 -13 -159 -39 -193c-27 -34 -69 -51 -128 -51c-37 0 -66 9 -91 25c-25 17 -41 43 -53 77c-8 28 -15 78 -15 142v413h-67v-415c0 -76 7 -137 22 -180v1c31 -82 102 -134 210 -134c58 0 105 12 139 38c33 27 59 60 71 103c14 43 22 100 22 172v415h-71z
M208 787h247v57h-247v-57z" />
    <glyph glyph-name="umacron" unicode="&#x16b;" 
d="M368 0h57v515h-65v-276c0 -45 -4 -82 -14 -109c-8 -24 -22 -45 -42 -59c-21 -14 -41 -21 -65 -21c-46 0 -81 30 -91 81c-2 17 -4 50 -4 98v286h-65v-321c0 -37 2 -66 5 -83v0c4 -25 12 -45 23 -64c9 -15 28 -31 47 -42c21 -10 46 -17 71 -17c49 0 97 35 143 105v-93z
M133 613h247v57h-247v-57z" />
    <glyph glyph-name="Ubreve" unicode="&#x16c;" horiz-adv-x="622" 
d="M485 716v-413c0 -95 -13 -159 -39 -193c-27 -34 -69 -51 -128 -51c-37 0 -66 9 -91 25c-25 17 -41 43 -53 77c-8 28 -15 78 -15 142v413h-67v-415c0 -76 7 -137 22 -180v1c31 -82 102 -134 210 -134c58 0 105 12 139 38c33 27 59 60 71 103c14 43 22 100 22 172v415h-71z
M439 889h-40c-12 -45 -34 -68 -78 -68c-36 0 -61 23 -72 68h-39c11 -76 51 -114 115 -114c59 0 100 43 114 114z" />
    <glyph glyph-name="ubreve" unicode="&#x16d;" 
d="M368 0h57v515h-65v-276c0 -45 -4 -82 -14 -109c-8 -24 -22 -45 -42 -59c-21 -14 -41 -21 -65 -21c-46 0 -81 30 -91 81c-2 17 -4 50 -4 98v286h-65v-321c0 -37 2 -66 5 -83v0c4 -25 12 -45 23 -64c9 -15 28 -31 47 -42c21 -10 46 -17 71 -17c49 0 97 35 143 105v-93z
M372 715h-40c-12 -45 -34 -68 -78 -68c-36 0 -61 23 -72 68h-39c11 -76 51 -114 115 -114c59 0 100 43 114 114z" />
    <glyph glyph-name="Uogonek" unicode="&#x172;" horiz-adv-x="622" 
d="M323 -20l9 8c55 4 100 21 129 50c31 27 54 65 65 105c10 42 17 96 17 158v415h-71v-413c0 -95 -13 -159 -39 -193s-69 -51 -131 -51c-32 0 -60 9 -84 24v0c-27 16 -44 42 -57 78c-9 28 -15 75 -15 142v413h-67v-415c0 -111 14 -187 46 -232c31 -44 84 -71 162 -81
c-9 -43 -13 -76 -13 -98c0 -30 10 -57 24 -75c16 -18 36 -27 61 -27c26 0 54 9 85 26v43c-25 -13 -47 -18 -63 -18c-37 0 -65 32 -65 85c0 13 2 32 7 56z" />
    <glyph glyph-name="uogonek" unicode="&#x173;" 
d="M395 0h15v515h-64v-276c0 -43 -3 -77 -9 -99c-7 -26 -22 -48 -44 -65c-20 -16 -44 -25 -69 -25c-22 0 -43 7 -57 21c-18 14 -28 35 -32 55c-3 21 -6 57 -6 103v286h-63v-321c0 -48 4 -84 13 -112c6 -26 22 -49 45 -67c22 -17 52 -27 86 -27c49 0 99 35 144 105v-103
l-3 -16c-7 -34 -11 -62 -11 -84c0 -33 8 -57 22 -75c15 -19 36 -27 61 -27c26 0 55 9 86 26v43c-25 -13 -46 -18 -63 -18s-33 7 -45 21c-11 16 -19 37 -19 62c0 20 4 47 13 78z" />
    <glyph glyph-name="Wcircumflex" unicode="&#x174;" horiz-adv-x="805" 
d="M191 0h74c20 90 43 187 64 278c10 43 20 86 30 130c12 48 23 96 34 145c3 13 7 32 10 51c2 11 5 23 6 33h9c2 -7 3 -10 8 -22c2 -15 6 -37 13 -62l125 -553h70c21 92 43 191 65 286c7 29 15 65 22 92c19 89 42 190 63 284c4 19 8 35 13 54h-71c-6 -33 -14 -70 -21 -106
c-8 -44 -16 -87 -25 -128c-16 -74 -32 -156 -46 -231c-9 -39 -16 -76 -22 -111c-3 -15 -7 -32 -10 -45h-9c-11 82 -27 171 -46 256c-28 119 -58 245 -87 365h-87c-25 -103 -51 -218 -75 -321c-7 -29 -13 -56 -19 -84c-7 -28 -12 -53 -18 -80c-5 -12 -9 -37 -17 -74
c-2 -12 -3 -21 -6 -35c-1 -2 -2 -6 -2 -8v1c-1 -7 -4 -15 -6 -22l-9 1c-1 8 -3 16 -4 24c-6 38 -13 85 -20 125l-93 473h-70c17 -74 37 -165 54 -239c3 -16 7 -31 10 -47c28 -129 57 -264 85 -397c2 -12 5 -21 8 -33zM414 863l47 -91h71c-11 18 -27 43 -37 55
c-13 23 -29 46 -46 71h-75c-6 -11 -14 -22 -20 -31c-7 -12 -14 -23 -20 -32c-7 -12 -19 -29 -29 -46v-1c-6 -8 -6 -8 -11 -16h71c13 23 36 66 49 91z" />
    <glyph glyph-name="wcircumflex" unicode="&#x175;" horiz-adv-x="622" 
d="M159 0h71c16 79 35 168 54 248c5 24 11 51 16 75c6 26 12 53 18 78h8l18 -89c16 -82 35 -166 53 -244c2 -12 5 -27 9 -42c3 -10 4 -17 6 -26h70c6 23 11 45 17 68c15 61 31 122 46 179v0c21 86 44 177 67 268h-58c-13 -51 -27 -109 -39 -160l-9 -33
c-9 -35 -18 -74 -26 -110c-9 -33 -18 -69 -26 -103h-9c-11 44 -13 55 -20 92c0 4 -1 7 -2 12c-6 25 -11 51 -17 76c-16 76 -32 150 -47 226h-70c-6 -31 -14 -66 -21 -99c-5 -26 -11 -51 -16 -75c-10 -44 -20 -89 -30 -132c-5 -24 -12 -53 -17 -77c-2 -9 -3 -18 -4 -25
c-1 -3 -4 -8 -9 -16c-3 13 -8 35 -11 46c-6 26 -12 50 -18 77c-22 100 -46 201 -67 301h-67c22 -85 44 -171 66 -258c7 -28 14 -60 22 -88c14 -53 30 -115 42 -169zM329 686l47 -91h71c-11 18 -27 43 -37 55c-13 23 -29 46 -46 71h-75c-6 -11 -14 -22 -20 -31
c-7 -12 -14 -23 -20 -32c-7 -12 -19 -29 -29 -46v-1c-6 -8 -6 -8 -11 -16h71c13 23 36 66 49 91z" />
    <glyph glyph-name="Ycircumflex" unicode="&#x176;" horiz-adv-x="577" 
d="M261 0h68v306l236 410h-80c-6 -10 -12 -21 -17 -32c-17 -29 -33 -61 -48 -90v0c-2 -4 -5 -8 -7 -11c-14 -27 -29 -54 -44 -80c-20 -39 -51 -101 -69 -138c-18 42 -44 92 -66 134c-11 21 -24 42 -34 63c-28 51 -56 104 -83 154h-84c34 -60 69 -124 104 -188
c41 -73 85 -153 124 -222v-306zM312 863l47 -91h71c-11 18 -27 43 -37 55c-13 23 -29 46 -46 71h-75c-6 -11 -14 -22 -20 -31c-7 -12 -14 -23 -20 -32c-7 -12 -19 -29 -29 -46v-1c-6 -8 -6 -8 -11 -16h71c13 23 36 66 49 91z" />
    <glyph glyph-name="ycircumflex" unicode="&#x177;" horiz-adv-x="438" 
d="M71 -138l8 -69c15 -4 29 -8 42 -8c42 0 78 33 102 82c10 24 24 67 42 120h-1c55 178 108 350 163 528h-62c-5 -15 -10 -32 -15 -49c-8 -26 -17 -54 -24 -78s-15 -49 -22 -73c-10 -34 -21 -71 -31 -106c-11 -36 -22 -77 -31 -118h-9c-10 43 -19 80 -32 120l-90 304h-67
c30 -98 61 -200 93 -301c23 -74 48 -152 70 -223l-4 -11c0 -1 -1 -3 -2 -4v-3c-1 -2 -1 -5 -1 -7c-9 -32 -19 -57 -24 -70c-15 -24 -34 -39 -69 -39c-7 0 -19 2 -36 5zM250 686l47 -91h71c-11 18 -27 43 -37 55c-13 23 -29 46 -46 71h-75c-6 -11 -14 -22 -20 -31
c-7 -12 -14 -23 -20 -32c-7 -12 -19 -29 -29 -46v-1c-6 -8 -6 -8 -11 -16h71c13 23 36 66 49 91z" />
    <glyph glyph-name="longs" unicode="&#x17f;" horiz-adv-x="208" 
d="M71 0h64v571c0 29 5 54 14 68c9 15 26 23 54 23c9 0 21 0 37 -3c1 8 3 15 4 19c1 11 3 30 6 45c-24 4 -45 6 -63 6c-29 0 -53 -5 -69 -18c-16 -11 -31 -27 -36 -46c-7 -20 -11 -48 -11 -85v-580z" />
    <glyph glyph-name="Aringacute" unicode="&#x1fa;" horiz-adv-x="577" 
d="M246 888h49c9 14 18 26 27 39c4 7 9 15 13 21c7 9 16 23 25 37c9 13 12 17 19 27h-84c-14 -39 -32 -82 -49 -124zM230 792c0 15 5 29 15 41s22 19 35 19c12 0 24 -7 34 -18c10 -13 14 -28 14 -43c0 -18 -4 -35 -14 -46c-12 -12 -21 -17 -34 -17s-26 5 -35 18
c-9 10 -15 27 -15 46zM172 285l70 226c10 39 22 91 31 140h11c10 -43 26 -96 42 -152c17 -54 34 -110 51 -163c4 -15 11 -36 16 -51h-221zM14 0h72c6 20 13 40 19 61s13 43 20 64c6 23 14 50 21 75c2 6 5 16 7 22h261l68 -222h81c-8 25 -16 49 -25 74
c-56 165 -115 334 -168 496c-13 38 -27 79 -40 117c-4 10 -9 23 -12 34c1 1 3 4 4 5c2 2 4 3 8 5c11 15 18 36 18 59c0 22 -6 43 -19 58c-16 16 -33 26 -50 26c-20 0 -36 -11 -50 -26c-12 -15 -18 -35 -18 -56c0 -25 6 -46 18 -61c2 -3 7 -7 13 -12
c-30 -95 -63 -200 -95 -297c-12 -40 -25 -80 -37 -118c-30 -96 -65 -205 -96 -304z" />
    <glyph glyph-name="aringacute" unicode="&#x1fb;" 
d="M221 820h48c8 14 17 26 25 38c10 16 21 32 31 47c7 10 19 29 25 39h-80c-4 -8 -8 -17 -12 -27c-5 -12 -9 -24 -14 -35v1c-7 -17 -15 -41 -23 -63zM191 659c0 17 7 32 16 44c8 12 20 17 34 17c10 0 26 -5 33 -18c10 -12 17 -28 17 -44s-7 -32 -17 -43
c-9 -12 -22 -18 -33 -18c-13 0 -26 7 -34 17c-10 13 -16 29 -16 45zM170 660c0 -25 7 -46 20 -61c14 -15 31 -24 49 -24c20 0 36 9 49 23c13 16 21 37 21 60s-7 42 -21 57c-14 18 -29 27 -49 27c-18 0 -34 -10 -48 -27c-14 -15 -21 -32 -21 -55zM347 270v-45
c0 -39 -4 -71 -12 -94c-23 -54 -70 -89 -129 -89c-62 0 -93 39 -93 92c0 18 1 33 11 48c7 12 16 25 32 31h-1c14 7 35 13 67 19c46 8 88 20 125 38zM343 61l11 -4c1 -21 5 -40 12 -57h64c-7 21 -11 39 -13 55c-3 23 -5 77 -5 159v120c0 40 0 65 -4 81c-3 22 -11 43 -21 59
v-1c-21 30 -67 53 -139 53c-37 0 -70 -7 -97 -18c-47 -23 -79 -67 -93 -130c8 -2 20 -3 26 -4c7 -1 20 -3 31 -5c4 -1 2 0 5 -1c8 37 21 61 37 76c19 16 46 23 80 23c37 0 68 -11 88 -31c15 -17 23 -45 23 -84v-7c0 -3 -1 -6 -1 -9v-13c-35 -15 -79 -24 -136 -34
c-28 -4 -51 -7 -66 -13c-55 -16 -101 -68 -101 -144c0 -41 14 -76 37 -104c25 -24 62 -40 106 -40c28 0 56 6 81 16c23 12 51 32 75 57z" />
    <glyph glyph-name="AEacute" unicode="&#x1fc;" horiz-adv-x="851" 
d="M211 282l145 364h70v-364h-215zM27 0h73c14 36 31 80 46 116c8 19 16 40 23 59c5 12 10 26 13 36h244v-211h383v70h-315v265h283v70h-283v241h306v70h-490c-36 -93 -73 -189 -110 -280c-29 -74 -61 -154 -92 -231c-27 -70 -54 -136 -81 -205zM387 772h50c4 6 7 12 11 19
c8 11 15 23 21 32c5 7 11 16 17 25c12 18 21 32 32 50h-82c-2 -6 -6 -13 -8 -18c-3 -10 -8 -21 -10 -29c-3 -7 -7 -17 -11 -27c-6 -18 -14 -34 -20 -52z" />
    <glyph glyph-name="aeacute" unicode="&#x1fd;" horiz-adv-x="758" 
d="M664 301h-255c7 56 20 98 41 125c24 26 52 41 88 41c69 0 115 -50 126 -166zM339 265l10 -11c0 -52 -1 -88 -6 -107v1c-7 -29 -24 -56 -49 -76c-23 -18 -52 -30 -84 -30c-29 0 -53 11 -67 27h1c-16 17 -25 40 -25 66c0 28 10 50 27 69c11 10 35 20 66 26
c51 9 102 24 127 35zM723 147l-65 11c-19 -72 -62 -111 -116 -111c-25 0 -47 7 -68 21c-21 15 -37 36 -47 58c-10 20 -16 60 -17 116h308v-20c7 9 11 13 22 25c-6 -1 -10 -3 -14 -4c4 14 4 20 4 22c0 41 -8 82 -22 124h1c-14 41 -34 73 -62 100c-29 26 -64 37 -108 37
c-56 0 -102 -27 -140 -74c-15 25 -30 43 -43 49c-27 17 -66 25 -109 25c-35 0 -67 -6 -93 -18c-25 -12 -46 -29 -58 -52c-11 -18 -22 -45 -31 -80c5 -1 12 -2 18 -3c8 -1 16 -2 21 -2c4 -1 12 -3 18 -4h1c3 -1 0 0 2 -1c6 28 13 49 21 59v-1c16 27 52 43 101 43
c36 0 61 -9 78 -26c16 -19 24 -50 24 -94v-27c-34 -11 -72 -19 -108 -26c-51 -8 -92 -20 -118 -31h1c-22 -14 -40 -32 -53 -55c-14 -25 -21 -49 -21 -76c0 -38 17 -75 37 -103c27 -26 64 -41 108 -41c63 0 120 33 181 102c48 -67 101 -102 163 -102c88 0 153 57 184 159z
M365 595h50c4 6 7 12 11 19c8 11 15 23 21 32c5 7 11 16 17 25c12 18 21 32 32 50h-82c-2 -6 -6 -13 -8 -18c-3 -10 -8 -21 -10 -29c-3 -7 -7 -17 -11 -27c-6 -18 -14 -34 -20 -52z" />
    <glyph glyph-name="Oslashacute" unicode="&#x1fe;" horiz-adv-x="667" 
d="M204 122l316 429c24 -65 39 -131 39 -196c0 -95 -22 -169 -62 -221c-40 -53 -90 -80 -151 -80c-26 0 -55 7 -77 18c-16 8 -39 25 -65 50zM492 590l-317 -429l-6 17c-11 30 -21 57 -24 74c-7 31 -10 72 -10 106c0 100 19 175 60 227c41 50 91 76 152 76c27 0 49 -4 70 -13
c20 -10 44 -28 75 -58zM603 742l-69 -96c-34 31 -66 55 -91 64c-29 13 -61 19 -96 19c-54 0 -104 -17 -147 -45v0c-41 -29 -77 -76 -101 -130c-23 -56 -36 -124 -36 -198c0 -47 5 -88 13 -124v1c11 -34 30 -81 57 -131l-73 -96l15 -15c2 -3 8 -9 15 -15l3 -3
c10 14 26 36 38 50h-1c8 13 20 27 33 43c32 -28 61 -51 84 -60c30 -11 65 -18 101 -18c50 0 98 13 141 44c45 29 80 72 104 130c24 56 36 123 36 196c0 50 -4 95 -16 138c-8 30 -24 69 -51 114l74 98c-1 0 -1 1 -2 2l-11 12l-8 8zM307 772h50c4 6 7 12 11 19
c8 11 15 23 21 32c5 7 11 16 17 25c12 18 21 32 32 50h-82c-2 -6 -6 -13 -8 -18c-3 -10 -8 -21 -10 -29c-3 -7 -7 -17 -11 -27c-6 -18 -14 -34 -20 -52z" />
    <glyph glyph-name="oslashacute" unicode="&#x1ff;" horiz-adv-x="530" 
d="M195 84l193 305c12 -32 19 -53 20 -63c3 -19 5 -44 5 -69c0 -70 -14 -122 -38 -157c-27 -37 -61 -53 -99 -53c-27 0 -52 10 -81 37zM366 427l-194 -307c-19 47 -27 95 -27 136c0 71 12 122 36 159c28 36 59 52 98 52c26 0 56 -12 87 -40zM440 546l-41 -65
c-48 32 -81 45 -122 45c-56 0 -101 -22 -141 -66c-38 -43 -57 -112 -57 -210c0 -43 4 -84 15 -121c6 -19 19 -44 38 -70l-44 -68c4 -3 9 -9 11 -12c4 -3 6 -3 19 -16c6 9 14 22 21 33h-1c3 5 7 10 9 13v0c1 2 4 5 6 8s6 10 8 12c39 -29 76 -41 116 -41c49 0 98 21 134 55
c40 45 66 122 66 213c0 42 -3 81 -12 115c-5 21 -17 47 -36 79l42 68h-1c-6 5 -15 13 -18 17l-3 3c-3 3 -3 3 -9 8zM248 595h50c4 6 7 12 11 19c8 11 15 23 21 32c5 7 11 16 17 25c12 18 21 32 32 50h-82c-2 -6 -6 -13 -8 -18c-3 -10 -8 -21 -10 -29c-3 -7 -7 -17 -11 -27
c-6 -18 -14 -34 -20 -52z" />
    <glyph glyph-name="anoteleia" unicode="&#x387;" horiz-adv-x="255" 
d="M91 428h74v87h-74v-87z" />
    <glyph glyph-name="Wgrave" unicode="&#x1e80;" horiz-adv-x="805" 
d="M191 0h74c20 90 43 187 64 278c10 43 20 86 30 130c12 48 23 96 34 145c3 13 7 32 10 51c2 11 5 23 6 33h9c2 -7 3 -10 8 -22c2 -15 6 -37 13 -62l125 -553h70c21 92 43 191 65 286c7 29 15 65 22 92c19 89 42 190 63 284c4 19 8 35 13 54h-71c-6 -33 -14 -70 -21 -106
c-8 -44 -16 -87 -25 -128c-16 -74 -32 -156 -46 -231c-9 -39 -16 -76 -22 -111c-3 -15 -7 -32 -10 -45h-9c-11 82 -27 171 -46 256c-28 119 -58 245 -87 365h-87c-25 -103 -51 -218 -75 -321c-7 -29 -13 -56 -19 -84c-7 -28 -12 -53 -18 -80c-5 -12 -9 -37 -17 -74
c-2 -12 -3 -21 -6 -35c-1 -2 -2 -6 -2 -8v1c-1 -7 -4 -15 -6 -22l-9 1c-1 8 -3 16 -4 24c-6 38 -13 85 -20 125l-93 473h-70c17 -74 37 -165 54 -239c3 -16 7 -31 10 -47c28 -129 57 -264 85 -397c2 -12 5 -21 8 -33zM323 898h10s-1 1 -1 2v-1c-1 3 -3 4 -4 6zM466 772
l-49 126h-84c9 -13 21 -32 27 -41c10 -16 22 -33 34 -51c8 -11 15 -22 24 -34h48z" />
    <glyph glyph-name="wgrave" unicode="&#x1e81;" horiz-adv-x="622" 
d="M159 0h71c16 79 35 168 54 248c5 24 11 51 16 75c6 26 12 53 18 78h8l18 -89c16 -82 35 -166 53 -244c2 -12 5 -27 9 -42c3 -10 4 -17 6 -26h70c6 23 11 45 17 68c15 61 31 122 46 179v0c21 86 44 177 67 268h-58c-13 -51 -27 -109 -39 -160l-9 -33
c-9 -35 -18 -74 -26 -110c-9 -33 -18 -69 -26 -103h-9c-11 44 -13 55 -20 92c0 4 -1 7 -2 12c-6 25 -11 51 -17 76c-16 76 -32 150 -47 226h-70c-6 -31 -14 -66 -21 -99c-5 -26 -11 -51 -16 -75c-10 -44 -20 -89 -30 -132c-5 -24 -12 -53 -17 -77c-2 -9 -3 -18 -4 -25
c-1 -3 -4 -8 -9 -16c-3 13 -8 35 -11 46c-6 26 -12 50 -18 77c-22 100 -46 201 -67 301h-67c22 -85 44 -171 66 -258c7 -28 14 -60 22 -88c14 -53 30 -115 42 -169zM208 721h10s-1 1 -1 2v-1c-1 3 -3 4 -4 6zM351 595l-49 126h-84c9 -13 21 -32 27 -41c10 -16 22 -33 34 -51
c8 -11 15 -22 24 -34h48z" />
    </font>
</defs>
</svg>
